<svg id="Capa_1" data-name="Capa 1" xmlns="http://www.w3.org/2000/svg" viewBox="0 0 100 100"><defs><style>.cls-1{fill:#8ccbed;}.cls-2{fill:#6d8e9d;}.cls-3{fill:#bc4251;}</style></defs><title>iconos 2017 GF</title><path d="M73.85,38a9,9,0,1,0,8.94,9A9,9,0,0,0,73.85,38Zm3,12h-6V44h6Z"/><path d="M26.15,62a9,9,0,1,0,8.94,9A9,9,0,0,0,26.15,62Zm3,12h-6V68h6Z"/><path class="cls-1" d="M26.15,38a9,9,0,1,0,8.94,9A9,9,0,0,0,26.15,38Zm3,12h-6V44h6Z"/><path d="M82.79,1.93H17.21a12,12,0,0,0-11.92,12V86.05a12,12,0,0,0,11.92,12H82.79a12,12,0,0,0,11.92-12V13.95A12,12,0,0,0,82.79,1.93Zm6,84.13a6,6,0,0,1-6,6H17.21a6,6,0,0,1-6-6V26h77.5Zm0-66.1H11.25v-6a6,6,0,0,1,6-6H82.79a6,6,0,0,1,6,6Z"/><path class="cls-2" d="M73.85,80a9,9,0,1,0-8.94-9A9,9,0,0,0,73.85,80Zm-3-12h6v6h-6Z"/><path class="cls-3" d="M50,56a9,9,0,1,0-8.94-9A9,9,0,0,0,50,56ZM47,44h6v6H47Z"/><path d="M50,80a9,9,0,1,0-8.94-9A9,9,0,0,0,50,80ZM47,68h6v6H47Z"/></svg>