<svg id="Capa_1" data-name="Capa 1" xmlns="http://www.w3.org/2000/svg" viewBox="0 0 100 100"><defs><style>.cls-1{fill:#3e3e3e;}.cls-2{fill:#d8d8d8;}.cls-3{fill:#b3b3b4;}.cls-4{fill:#fff;}.cls-5{fill:#5fa6a2;}</style></defs><title>iconos 2017 GF</title><rect class="cls-1" x="16.36" y="2.7" width="69.31" height="96.1" rx="5.39" ry="5.39"/><rect class="cls-2" x="19.38" y="6.89" width="63.26" height="82.89" rx="5.39" ry="5.39"/><rect class="cls-3" x="20.61" y="16.11" width="45.72" height="2.81"/><rect class="cls-3" x="20.61" y="20.15" width="45.72" height="2.81"/><rect class="cls-3" x="20.61" y="24.06" width="45.72" height="2.81"/><rect class="cls-3" x="20.61" y="42.27" width="45.72" height="2.81"/><rect class="cls-3" x="20.61" y="46.31" width="45.72" height="2.81"/><rect class="cls-3" x="20.61" y="50.23" width="45.72" height="2.81"/><rect class="cls-3" x="20.61" y="70.43" width="45.72" height="2.81"/><rect class="cls-3" x="20.61" y="74.47" width="45.72" height="2.81"/><rect class="cls-3" x="20.61" y="78.38" width="45.72" height="2.81"/><rect class="cls-4" x="69.12" y="16.11" width="9.95" height="10.76"/><rect class="cls-4" x="69.12" y="16.11" width="9.95" height="10.76"/><rect class="cls-4" x="69.12" y="42.15" width="9.95" height="10.76"/><rect class="cls-4" x="69.12" y="70.49" width="9.95" height="10.76"/><polygon class="cls-5" points="67.62 41.09 70.61 41.09 73.19 46.54 77.37 37.3 80.56 37.3 74.09 52.5 67.62 41.09"/><rect class="cls-2" x="36.34" y="92.15" width="29.35" height="3.36" rx="0.71" ry="0.71"/></svg>