<svg id="Capa_1" data-name="Capa 1" xmlns="http://www.w3.org/2000/svg" viewBox="0 0 100 100"><defs><style>.cls-1,.cls-2{fill:#020202;}.cls-2{opacity:0.22;}.cls-3{fill:#6d8e9d;}.cls-4{fill:#779daa;}.cls-5{fill:#aa3f51;}.cls-6{fill:#bc4251;}.cls-7{fill:#bcb948;}.cls-8{fill:#dbc926;}</style></defs><title>iconos 2017 GF</title><path class="cls-1" d="M62.61,92.13a1,1,0,0,0-.91,0,27.38,27.38,0,0,1-10.05,1.52A26.85,26.85,0,0,1,41.6,92.13a1,1,0,0,0-.91,0c-.3.15-.61.3-.61.61L38.86,95a1.23,1.23,0,0,0,.76,1.68,30.28,30.28,0,0,0,11.88,2,30.28,30.28,0,0,0,11.88-2A1.44,1.44,0,0,0,64.14,95l-.91-2.28C63.07,92.43,62.92,92.13,62.61,92.13Z"/><path class="cls-1" d="M17.23,40.35c.15,0,.3.15.46.15a1.15,1.15,0,0,0,1.07-.76,24.77,24.77,0,0,1,6.09-8.22,30,30,0,0,1,8.22-6.09c.3-.15.61-.3.61-.61a1,1,0,0,0,0-.91l-.91-2.28a1.05,1.05,0,0,0-1.52-.76,31.7,31.7,0,0,0-9.75,7,35.29,35.29,0,0,0-7.16,9.75,1.41,1.41,0,0,0,.61,1.83Z"/><path class="cls-1" d="M78.15,31.52a29.94,29.94,0,0,1,6.09,8.22,1.15,1.15,0,0,0,1.07.76.56.56,0,0,0,.46-.15L88,39.44a1.28,1.28,0,0,0,.61-1.67,31.71,31.71,0,0,0-7-9.75,35.33,35.33,0,0,0-9.75-7.16,1.28,1.28,0,0,0-1.68.61l-.91,2.28a1,1,0,0,0,0,.91c0,.46.3.61.61.76A24.77,24.77,0,0,1,78.15,31.52Z"/><path class="cls-2" d="M55.9,24.77A13,13,0,0,0,61.23,14C61.23,7.72,60,1.32,50.57,1.32h0c-9.29,0-10.66,6.4-10.66,12.64a13,13,0,0,0,5.33,10.81c-7,2.13-12,8.07-12,15.23q0,5.48,5.48,7.77c2.74,1.07,6.4,1.52,11.73,1.52h0c1.12,0,1.9-.11,2.89-.15,1.37-.06,2.87-.07,4-.21a19.22,19.22,0,0,0,4.84-1.16q5.48-2.28,5.48-7.77C67.93,33,62.91,26.91,55.9,24.77Z"/><path class="cls-2" d="M86.19,69.13a13,13,0,0,0,5.33-10.81c0-6.24-1.22-12.64-10.66-12.64h0c-9.29,0-10.66,6.4-10.66,12.64a13,13,0,0,0,5.33,10.81c-7,2.13-12,8.07-12,15.23q0,5.48,5.48,7.77c2.74,1.07,6.4,1.52,11.73,1.52h0c1.12,0,1.9-.11,2.89-.15,1.37-.06,2.87-.07,4-.21a19.22,19.22,0,0,0,4.84-1.16q5.48-2.28,5.48-7.77C98.22,77.36,93.2,71.27,86.19,69.13Z"/><path class="cls-2" d="M23.63,69.13A13,13,0,0,0,29,58.32c0-6.24-1.22-12.64-10.66-12.64h0C9,45.68,7.64,52.08,7.64,58.32A13,13,0,0,0,13,69.13c-7,2.13-12,8.07-12,15.23q0,5.48,5.48,7.77c2.74,1.07,6.4,1.52,11.73,1.52h0c1,0,1.75-.1,2.67-.14,1.45-.06,3-.07,4.22-.22a19.22,19.22,0,0,0,4.84-1.16q5.48-2.28,5.48-7.77C35.66,77.36,30.64,71.27,23.63,69.13Z"/><path class="cls-3" d="M56.53,23.51a12.29,12.29,0,0,0,5-10.23c0-5.91-1.15-12-10.09-12S41.4,7.37,41.4,13.28a12.29,12.29,0,0,0,5,10.23c-6.63,2-11.38,7.64-11.38,14.41q0,5.19,5.19,7.35c2.59,1,6.05,1.44,11.1,1.44s8.65-.43,11.1-1.44q5.19-2.16,5.19-7.35c.29-6.63-4.47-12.39-11.1-14.41Z"/><path class="cls-4" d="M56.54,23.51a12.29,12.29,0,0,0,5-10.23c0-5.91-1.15-12-10.09-12l-.14,45.39c5,0,8.65-.43,11.1-1.44q5.19-2.16,5.19-7.35C67.92,31.29,63.17,25.53,56.54,23.51Z"/><path class="cls-5" d="M87.95,68.18A12.29,12.29,0,0,0,93,58C93,52,91.84,46,82.91,46S72.82,52,72.82,58a12.29,12.29,0,0,0,5,10.23c-6.63,2-11.38,7.64-11.38,14.41q0,5.19,5.19,7.35c2.59,1,6.05,1.44,11.1,1.44s8.65-.43,11.1-1.44Q99,87.78,99,82.59c.29-6.63-4.47-12.39-11.1-14.41Z"/><path class="cls-6" d="M88,68.18A12.29,12.29,0,0,0,93,58C93,52,91.85,46,82.91,46l-.14,45.39c5,0,8.65-.43,11.1-1.44q5.19-2.16,5.19-7.35C99.34,76,94.58,70.2,88,68.18Z"/><path class="cls-7" d="M25.12,68.18a12.29,12.29,0,0,0,5-10.23C30.17,52,29,46,20.08,46S10,52,10,58a12.29,12.29,0,0,0,5,10.23c-6.63,2-11.38,7.64-11.38,14.41q0,5.19,5.19,7.35c2.59,1,6.05,1.44,11.1,1.44S28.58,91,31,89.94q5.19-2.16,5.19-7.35c.29-6.63-4.47-12.39-11.1-14.41Z"/><path class="cls-8" d="M25.13,68.18a12.29,12.29,0,0,0,5-10.23C30.17,52,29,46,20.09,46l-.14,45.39c5,0,8.65-.43,11.1-1.44q5.19-2.16,5.19-7.35C36.51,76,31.76,70.2,25.13,68.18Z"/></svg>