<svg id="Capa_1" data-name="Capa 1" xmlns="http://www.w3.org/2000/svg" viewBox="0 0 100 100"><defs><style>.cls-1{fill:#6e8d9e;}.cls-2{fill:#020202;}.cls-3{fill:#339dc3;}.cls-4{fill:#f4a03b;}.cls-5{fill:#fff;}</style></defs><title>iconos 2017 GF</title><circle class="cls-1" cx="50.03" cy="24.74" r="15.68"/><path class="cls-2" d="M8.69,4.26H91.52c.67.41.67,1,.67,1.68q0,18.76,0,37.51c0,1.6-.17,1.76-1.86,1.76H9.69C8.3,45.21,8,45,8,43.74q0-19,0-38A4.38,4.38,0,0,1,8.69,4.26Zm54,20.49C62.73,18.33,57,13,50.1,13S37.53,18.28,37.49,24.67s5.62,11.72,12.57,11.75S62.71,31.18,62.72,24.75Z"/><path class="cls-3" d="M15.67,71.62c1,.89,1.88,1.8,2.88,2.64a1.12,1.12,0,0,0,.91-.16c1-.81,1.86-1.68,2.77-2.51.88.6,1.65,1.11,2.38,1.65a.76.76,0,0,1,.29.51,12.22,12.22,0,0,0,3.25,7.88l-2.32,1c-1.65.7-3.49,1.14-4.41,2.76-.08.14-.47.18-.71.18-4.89,0-9.78,0-14.66,0-.84,0-1-.43-1.27-.92V84.3c.91-2.64,1.76-5.29,2.77-7.9a3.14,3.14,0,0,1,1.51-1.47c2.12-1,4.5-1.61,6.26-3.18.08-.07.26-.07.39-.1Z"/><path class="cls-4" d="M62.31,81.64c.93.88,1.79,1.62,2.55,2.43s1.11.59,1.7,0c.77-.81,1.59-1.57,2.48-2.44C70.9,83.47,73.3,84,75.44,85a2.79,2.79,0,0,1,1.41,1.1c1,2.62,2,5.25,2.79,7.93.41,1.38,0,1.66-1.58,1.66H53.19c-1.33,0-1.66-.28-1.49-1.45A27.15,27.15,0,0,1,54.64,86a3.33,3.33,0,0,1,1.57-1.09C58.27,84,60.56,83.43,62.31,81.64Z"/><path class="cls-2" d="M31.16,81.61c.91.89,1.76,1.67,2.56,2.5.54.56,1,.62,1.56,0,.81-.82,1.69-1.58,2.63-2.44,1.82,1.79,4.27,2.4,6.47,3.4a2.55,2.55,0,0,1,1.29,1.09c1,2.56,1.89,5.15,2.8,7.74a2.29,2.29,0,0,1,.07.81c0,.68-.34,1-1.2,1q-12.79,0-25.59,0c-1,0-1.31-.41-1.25-1.14a8.84,8.84,0,0,1,.4-2.23c.72-2,1.48-4,2.35-6a3.06,3.06,0,0,1,1.44-1.31C26.84,84.06,29.28,83.49,31.16,81.61Z"/><path class="cls-2" d="M84.69,71.49c1.83,1.83,4.27,2.39,6.42,3.42A3.21,3.21,0,0,1,92.6,76.3c.85,1.9,1.6,3.85,2.26,5.81a12.25,12.25,0,0,1,.35,2.68c.05.53-.26.77-.86.77-5,0-10,0-15,0a1.46,1.46,0,0,1-.71-.36,21.47,21.47,0,0,0-2.56-1.86c-1.29-.67-2.7-1.14-4.15-1.74.41-.52.77-.94,1.09-1.39a11.87,11.87,0,0,0,2.23-6A1.33,1.33,0,0,1,76,72.94a14.34,14.34,0,0,0,2-1.45c.86.84,1.74,1.67,2.58,2.53.51.53.91.48,1.41,0C82.85,73.17,83.74,72.38,84.69,71.49Z"/><path class="cls-2" d="M88.85,57.21a12.25,12.25,0,0,1-2.73,8.08c-2.94,3.55-7.16,3.53-9.92-.15a12.67,12.67,0,0,1-2.07-10.92,5.25,5.25,0,0,1,4.62-4.12,17.24,17.24,0,0,1,5.19,0c3,.48,4.69,2.72,4.91,5.87C88.87,56.38,88.85,56.8,88.85,57.21Z"/><path class="cls-2" d="M15.72,67.12A18.46,18.46,0,0,1,14,65.41a12.78,12.78,0,0,1-2.29-11.14,5.33,5.33,0,0,1,4.77-4.2,17,17,0,0,1,4.68,0,5.76,5.76,0,0,1,5.22,5.57,12.42,12.42,0,0,1-3,10.08C21.6,67.59,19,68.86,16,67.11a.74.74,0,0,0-.29,0Z"/><path class="cls-2" d="M57.62,57.3a11.8,11.8,0,0,1-3.11,8.44c-2.82,3-6.47,2.92-9.19-.18a11.58,11.58,0,0,1-2.69-6.75,18.33,18.33,0,0,1,0-3A5.81,5.81,0,0,1,47.93,50a16,16,0,0,1,4.38,0,5.83,5.83,0,0,1,5.3,5.84C57.65,56.34,57.62,56.82,57.62,57.3Z"/><path class="cls-2" d="M73.23,68.78c-.07,3.63-1.08,6.89-4,9.27a5.45,5.45,0,0,1-7.54-.23,10.94,10.94,0,0,1-3.4-7.26,17.46,17.46,0,0,1,0-3.38,5.77,5.77,0,0,1,5.26-5.64,16.49,16.49,0,0,1,4.38,0,5.87,5.87,0,0,1,5.34,5.81C73.26,67.82,73.23,68.31,73.23,68.78Z"/><path class="cls-2" d="M42.09,68.53c-.08,3.55-1,6.57-3.42,9C36,80.16,32.6,80.1,30,77.35a11.42,11.42,0,0,1-3-7.26,14,14,0,0,1,.11-3.47,5.62,5.62,0,0,1,5.24-5.08,16.86,16.86,0,0,1,4.38,0A5.77,5.77,0,0,1,42,66.9C42.05,67.51,42.06,68.13,42.09,68.53Z"/><path class="cls-2" d="M40.69,81.57a10.69,10.69,0,0,0,3.16-6.37,3.53,3.53,0,0,1,2-3,10.32,10.32,0,0,0,.87-.63c.89.83,1.8,1.64,2.67,2.49a.81.81,0,0,0,1.33,0c.86-.85,1.77-1.67,2.64-2.48.93.63,1.69,1.14,2.42,1.68a.77.77,0,0,1,.29.52,12.13,12.13,0,0,0,3.24,7.88c-1.3.54-2.51,1.06-3.75,1.53a5.65,5.65,0,0,0-2.9,2.06,1,1,0,0,1-.73.32c-1.26,0-2.53,0-3.8,0a1.66,1.66,0,0,1-.79-.4A19.06,19.06,0,0,0,45,83.39C43.66,82.7,42.2,82.19,40.69,81.57Z"/><path class="cls-5" d="M46.11,24.73c0-1.88,0-3.76,0-5.64A1.54,1.54,0,0,1,46.6,18c.19-.14.78.08,1.07.3C50.13,20.12,52.57,22,55,23.87c.87.67.87,1.07,0,1.75-2.44,1.88-4.88,3.75-7.34,5.59a1.33,1.33,0,0,1-1.07.28,1.32,1.32,0,0,1-.44-1C46.09,28.56,46.11,26.65,46.11,24.73Z"/></svg>