<?xml version="1.0" encoding="utf-8"?>
<!-- Generator: Adobe Illustrator 21.0.0, SVG Export Plug-In . SVG Version: 6.00 Build 0)  -->
<svg version="1.1" id="Capa_1" xmlns="http://www.w3.org/2000/svg" xmlns:xlink="http://www.w3.org/1999/xlink" x="0px" y="0px"
	 viewBox="0 0 200 200" style="enable-background:new 0 0 200 200;" xml:space="preserve">
<style type="text/css">
	.st0{fill:#FF7F4F;}
	.st1{fill:#D35933;}
	.st2{fill:#386895;}
	.st3{fill:#273B7A;}
	.st4{fill:#121149;}
	.st5{fill:#38C6D9;}
	.st6{fill:#02B2B2;}
	.st7{fill:none;}
	.st8{fill:#FFFFFF;}
	.st9{fill:#6D0E64;}
	.st10{fill:#370732;}
	.st11{fill:#CFDBE6;}
	.st12{fill:#F9B54C;}
	.st13{fill:#F4A200;}
	.st14{fill:#4CDBC4;}
	.st15{fill:#05BEA6;}
	.st16{fill:#FF8E31;}
	.st17{fill:#ED7425;}
	.st18{fill:#5D6D7E;}
	.st19{fill:#34495E;}
	.st20{fill:#5E7D9B;}
	.st21{fill:#0684BA;}
	.st22{fill:#283A4D;}
	.st23{fill:#0578AB;}
	.st24{fill:#E5E9EC;}
	.st25{fill:#29ABE2;}
	.st26{fill:#324A5E;}
	.st27{fill:#2B3B4E;}
	.st28{fill:#E6E6E6;}
	.st29{fill:#FFD300;}
	.st30{fill:#FC6F58;}
	.st31{fill:#F1543F;}
	.st32{fill:#FFD15D;}
	.st33{fill:#67D6A4;}
	.st34{fill:#018C4D;}
	.st35{fill:#D4145A;}
	.st36{fill:#9E005D;}
	.st37{fill:#FFDA79;}
	.st38{fill:#FFD155;}
	.st39{fill:#36495E;}
	.st40{fill:#6A82A1;}
	.st41{fill:#2C3E50;}
	.st42{fill:#39B54A;}
	.st43{fill:#0575A5;}
	.st44{fill:#025E90;}
	.st45{fill:#C1D354;}
	.st46{fill:#71CC8D;}
	.st47{fill:url(#SVGID_1_);}
	.st48{opacity:0.15;}
	.st49{clip-path:url(#SVGID_3_);}
	.st50{fill:#4D4D4D;}
	.st51{fill:#B60C1B;}
	.st52{fill:#8CC63F;}
	.st53{fill:#648C2C;}
	.st54{fill:#9B4C00;}
	.st55{fill:#6D3802;}
	.st56{fill:#FFC61B;}
	.st57{fill:#EAA22F;}
	.st58{fill:#B54324;}
	.st59{fill:#FF5419;}
	.st60{fill:#C92F00;}
	.st61{fill:#FFEDB5;}
</style>
<g>
	<g>
		<rect x="10.5" y="10.2" class="st50" width="190" height="189.8"/>
	</g>
	<g>
		<rect x="1" y="0.4" class="st51" width="189.8" height="189.8"/>
	</g>
	<path class="st8" d="M158.8,34.2C148.3,23.7,134.4,18,119.6,18s-28.7,5.8-39.2,16.2S64.2,58.6,64.2,73.4c0,12.4,4.1,24.2,11.6,33.9
		l-10.7,10.7l-1.1-1.1c-1.5-1.5-3.9-1.5-5.4,0L24.6,151c-4.8,4.8-4.8,12.6,0,17.4c2.3,2.3,5.4,3.6,8.7,3.6s6.4-1.3,8.7-3.6
		l34.1-34.1c1.5-1.5,1.5-3.9,0-5.4l-1.1-1.1l10.7-10.7c9.7,7.5,21.5,11.6,33.9,11.6c14.8,0,28.7-5.8,39.2-16.2
		c10.5-10.5,16.2-24.4,16.2-39.2C175,58.6,169.2,44.7,158.8,34.2z M153.4,107.2c-9,9-21,14-33.8,14c-12.8,0-24.8-5-33.8-14
		s-14-21-14-33.8c0-12.8,5-24.8,14-33.8c9-9,21-14,33.8-14s24.8,5,33.8,14c9,9,14,21,14,33.8C167.4,86.1,162.5,98.1,153.4,107.2z
		 M122.3,35.1c0.3,2.1-1.2,4-3.2,4.3c-1.3,0.2-31.4,4.8-31.4,34c0,2.1-1.7,3.8-3.8,3.8c-2.1,0-3.8-1.7-3.8-3.8
		c0-18.8,10.4-29.1,19.1-34.5c9.2-5.7,18.4-7,18.8-7C120.1,31.6,122,33,122.3,35.1z"/>
</g>
</svg>
