<?xml version="1.0" encoding="utf-8"?>
<!-- Generator: Adobe Illustrator 21.0.0, SVG Export Plug-In . SVG Version: 6.00 Build 0)  -->
<svg version="1.1" id="Capa_1" xmlns="http://www.w3.org/2000/svg" xmlns:xlink="http://www.w3.org/1999/xlink" x="0px" y="0px"
	 viewBox="0 0 200 200" style="enable-background:new 0 0 200 200;" xml:space="preserve">
<style type="text/css">
	.st0{fill:#FF7F4F;}
	.st1{fill:#D35933;}
	.st2{fill:#386895;}
	.st3{fill:#273B7A;}
	.st4{fill:#121149;}
	.st5{fill:#38C6D9;}
	.st6{fill:#02B2B2;}
	.st7{fill:none;}
	.st8{fill:#FFFFFF;}
	.st9{fill:#6D0E64;}
	.st10{fill:#370732;}
	.st11{fill:#CFDBE6;}
	.st12{fill:#F9B54C;}
	.st13{fill:#F4A200;}
	.st14{fill:#4CDBC4;}
	.st15{fill:#05BEA6;}
	.st16{fill:#FF8E31;}
	.st17{fill:#ED7425;}
	.st18{fill:#5D6D7E;}
	.st19{fill:#34495E;}
	.st20{fill:#5E7D9B;}
	.st21{fill:#0684BA;}
	.st22{fill:#283A4D;}
	.st23{fill:#0578AB;}
	.st24{fill:#E5E9EC;}
	.st25{fill:#29ABE2;}
	.st26{fill:#324A5E;}
	.st27{fill:#2B3B4E;}
	.st28{fill:#E6E6E6;}
	.st29{fill:#FFD300;}
	.st30{fill:#FC6F58;}
	.st31{fill:#F1543F;}
	.st32{fill:#FFD15D;}
	.st33{fill:#67D6A4;}
	.st34{fill:#018C4D;}
	.st35{fill:#D4145A;}
	.st36{fill:#9E005D;}
	.st37{fill:#FFDA79;}
	.st38{fill:#FFD155;}
	.st39{fill:#36495E;}
	.st40{fill:#6A82A1;}
	.st41{fill:#2C3E50;}
	.st42{fill:#39B54A;}
	.st43{fill:#0575A5;}
	.st44{fill:#025E90;}
	.st45{fill:#C1D354;}
	.st46{fill:#71CC8D;}
	.st47{fill:url(#SVGID_1_);}
	.st48{opacity:0.15;}
	.st49{clip-path:url(#SVGID_3_);}
	.st50{fill:#4D4D4D;}
	.st51{fill:#B60C1B;}
	.st52{fill:#8CC63F;}
	.st53{fill:#648C2C;}
	.st54{fill:#9B4C00;}
	.st55{fill:#6D3802;}
	.st56{fill:#FFC61B;}
	.st57{fill:#EAA22F;}
	.st58{fill:#B54324;}
	.st59{fill:#FF5419;}
	.st60{fill:#C92F00;}
	.st61{fill:#FFEDB5;}
</style>
<g>
	<g>
		<rect x="10.5" y="10.2" class="st50" width="190" height="189.8"/>
	</g>
	<g>
		<rect x="1" y="0.4" class="st51" width="189.8" height="189.8"/>
	</g>
	<path color-interpolation="sRGB" image-rendering="auto" color-rendering="auto" shape-rendering="auto" class="st8" d="M82.4,35.6
		c-1.3,0-2.5,0.7-3.1,1.8L68.1,54.2H29.9c-2.1,0-3.9,1.7-3.9,3.9v38.7c0,2.1,1.7,3.9,3.9,3.9h38.7c2.1,0,3.9-1.7,3.9-3.9V66.2
		l-7.7,11.6v15H33.7V61.9h29.2L52,78.3l-4.8-9.5C46.3,66.8,44,66,42.1,67c-1.9,0.9-2.7,3.2-1.8,5.2c0,0,0,0.1,0,0.1l7.7,15.5
		c1,1.9,3.3,2.7,5.2,1.7c0.6-0.3,1.1-0.8,1.5-1.3l30.9-46.4c1.2-1.8,0.8-4.2-1-5.4C84,35.8,83.2,35.6,82.4,35.6L82.4,35.6z
		 M99.5,69.7c-2.1,0-3.9,1.7-3.9,3.9v7.7c0,2.1,1.7,3.9,3.9,3.9h69.6c2.1,0,3.9-1.7,3.9-3.9v-7.7c0-2.1-1.7-3.9-3.9-3.9H99.5z
		 M29.9,108.4c-2.1,0-3.9,1.7-3.9,3.9v38.7c0,2.1,1.7,3.9,3.9,3.9h38.7c2.1,0,3.9-1.7,3.9-3.9v-38.7c0-2.1-1.7-3.9-3.9-3.9H29.9z
		 M33.7,116.1h30.9v30.9H33.7V116.1z M99.5,123.8c-2.1,0-3.9,1.7-3.9,3.9v7.7c0,2.1,1.7,3.9,3.9,3.9h69.6c2.1,0,3.9-1.7,3.9-3.9
		v-7.7c0-2.1-1.7-3.9-3.9-3.9L99.5,123.8L99.5,123.8z"/>
</g>
</svg>
