<?xml version="1.0" encoding="utf-8"?>
<!-- Generator: Adobe Illustrator 21.0.0, SVG Export Plug-In . SVG Version: 6.00 Build 0)  -->
<svg version="1.1" id="Capa_1" xmlns="http://www.w3.org/2000/svg" xmlns:xlink="http://www.w3.org/1999/xlink" x="0px" y="0px"
	 viewBox="0 0 200 200" style="enable-background:new 0 0 200 200;" xml:space="preserve">
<style type="text/css">
	.st0{fill:#FF7F4F;}
	.st1{fill:#D35933;}
	.st2{fill:#386895;}
	.st3{fill:#273B7A;}
	.st4{fill:#121149;}
	.st5{fill:#38C6D9;}
	.st6{fill:#02B2B2;}
	.st7{fill:none;}
	.st8{fill:#FFFFFF;}
	.st9{fill:#6D0E64;}
	.st10{fill:#370732;}
	.st11{fill:#CFDBE6;}
	.st12{fill:#F9B54C;}
	.st13{fill:#F4A200;}
	.st14{fill:#4CDBC4;}
	.st15{fill:#05BEA6;}
	.st16{fill:#FF8E31;}
	.st17{fill:#ED7425;}
	.st18{fill:#5D6D7E;}
	.st19{fill:#34495E;}
	.st20{fill:#5E7D9B;}
	.st21{fill:#0684BA;}
	.st22{fill:#283A4D;}
	.st23{fill:#0578AB;}
	.st24{fill:#E5E9EC;}
	.st25{fill:#29ABE2;}
	.st26{fill:#324A5E;}
	.st27{fill:#2B3B4E;}
	.st28{fill:#E6E6E6;}
	.st29{fill:#FFD300;}
	.st30{fill:#FC6F58;}
	.st31{fill:#F1543F;}
	.st32{fill:#FFD15D;}
	.st33{fill:#67D6A4;}
	.st34{fill:#018C4D;}
	.st35{fill:#D4145A;}
	.st36{fill:#9E005D;}
	.st37{fill:#FFDA79;}
	.st38{fill:#FFD155;}
	.st39{fill:#36495E;}
	.st40{fill:#6A82A1;}
	.st41{fill:#2C3E50;}
	.st42{fill:#39B54A;}
	.st43{fill:#0575A5;}
	.st44{fill:#025E90;}
	.st45{fill:#C1D354;}
	.st46{fill:#71CC8D;}
	.st47{fill:url(#SVGID_1_);}
	.st48{opacity:0.15;}
	.st49{clip-path:url(#SVGID_3_);}
	.st50{fill:#4D4D4D;}
	.st51{fill:#B60C1B;}
	.st52{fill:#8CC63F;}
	.st53{fill:#648C2C;}
	.st54{fill:#9B4C00;}
	.st55{fill:#6D3802;}
	.st56{fill:#FFC61B;}
	.st57{fill:#EAA22F;}
	.st58{fill:#B54324;}
	.st59{fill:#FF5419;}
	.st60{fill:#C92F00;}
	.st61{fill:#FFEDB5;}
</style>
<g>
	<g>
		<rect x="11" y="10.2" class="st50" width="190" height="189.8"/>
	</g>
	<g>
		<rect x="1.5" y="0.4" class="st51" width="189.8" height="189.8"/>
	</g>
	<g>
		<path class="st8" d="M45.3,127.8c0,6.7,5.5,12.2,12.2,12.2h2.7h74.4h5.4h5.6v-5.4H140V121h5.6v-2.4h2.7h4.1v-5.4h-4.1V99.7h4.1
			v-5.4h-4.1H148v-1.8v-2.7v-0.1l-6.7-12.5h7v-7.3l-17.7-21.6H68.3L52.2,73.6c-2.7,2.2-4.5,5.6-4.5,9.4c0,6.7,5.4,12.1,12.1,12.2
			c-4.5,1.8-7.7,6.2-7.7,11.3c0,3.7,1.7,7,4.3,9.2C50.2,116.3,45.3,121.5,45.3,127.8z M53.1,83c0-2.5,1.4-4.7,3.5-5.9h80.7v12.6
			H59.9C56.1,89.8,53.1,86.8,53.1,83z M64.3,99.7H67h75.9v13.5H67h-2.7c-3.7,0-6.8-3-6.8-6.8C57.5,102.8,60.5,99.7,64.3,99.7z
			 M57.5,121h2.7h74.4v13.5H60.2h-2.7c-3.7,0-6.8-3-6.8-6.8S53.8,121,57.5,121z"/>
	</g>
</g>
</svg>
