<?xml version="1.0" encoding="utf-8"?>
<!-- Generator: Adobe Illustrator 21.0.0, SVG Export Plug-In . SVG Version: 6.00 Build 0)  -->
<svg version="1.1" id="Capa_1" xmlns="http://www.w3.org/2000/svg" xmlns:xlink="http://www.w3.org/1999/xlink" x="0px" y="0px"
	 viewBox="0 0 1919.4 399" style="enable-background:new 0 0 1919.4 399;" xml:space="preserve">
<style type="text/css">
	.st0{opacity:0.15;enable-background:new    ;}
	.st1{clip-path:url(#SVGID_2_);}
	.st2{fill:#39B54A;}
	.st3{clip-path:url(#SVGID_4_);}
	.st4{fill:#161616;}
	.st5{fill:url(#SVGID_5_);}
	.st6{clip-path:url(#SVGID_11_);}
	.st7{clip-path:url(#SVGID_12_);}
	.st8{clip-path:url(#SVGID_13_);}
	.st9{clip-path:url(#SVGID_14_);}
	.st10{clip-path:url(#SVGID_15_);}
	.st11{fill:#0F0F0F;}
	.st12{opacity:0.5;fill:#FFFFFF;enable-background:new    ;}
	.st13{fill:#191919;}
	.st14{fill:#232323;}
	.st15{fill:#2D2D2D;}
	.st16{opacity:0.6;fill:url(#SVGID_16_);enable-background:new    ;}
	.st17{opacity:0.5;fill:url(#SVGID_17_);enable-background:new    ;}
	.st18{opacity:0.56;clip-path:url(#SVGID_4_);fill:#1D1D1B;enable-background:new    ;}
</style>
<g class="st0">
	<g>
		<g>
			<defs>
				<path id="SVGID_1_" d="M-101.7,399.8h-1886.4c-8.7,0-15.7-7.1-15.7-15.7V25c0-8.7,7.1-15.7,15.7-15.7h1886.4
					C-93.1,9.3-86,16.4-86,25v359C-86,392.7-93.1,399.8-101.7,399.8z"/>
			</defs>
			<clipPath id="SVGID_2_">
				<use xlink:href="#SVGID_1_"  style="overflow:visible;"/>
			</clipPath>
			<g class="st1">
				<path class="st2" d="M3.5,192.1c0,6.3-5.1,11.3-11.3,11.3c-6.3,0-11.3-5.1-11.3-11.3c0-6.3,5.1-11.3,11.3-11.3
					S3.5,185.8,3.5,192.1z"/>
				<path class="st2" d="M4.1,197.4c0,6.3-5.1,11.3-11.3,11.3c-6.3,0-11.3-5.1-11.3-11.3c0-6.3,5.1-11.3,11.3-11.3
					C-1,186.1,4.1,191.1,4.1,197.4z"/>
				<path class="st2" d="M22.1,199.7c0,6.3-5.1,11.3-11.3,11.3c-6.3,0-11.3-5.1-11.3-11.3c0-6.3,5.1-11.3,11.3-11.3
					C17.1,188.4,22.1,193.5,22.1,199.7z"/>
				<path class="st2" d="M2,215.4c0,6.3-5.1,11.3-11.4,11.3c-6.2,0-11.3-5.1-11.3-11.3c0-6.3,5.1-11.3,11.3-11.3
					C-3.1,204.1,2,209.2,2,215.4z"/>
				<path class="st2" d="M23,210.5c0,6.3-5.1,11.4-11.3,11.4c-6.3,0-11.3-5.1-11.3-11.4c0-6.3,5.1-11.3,11.3-11.3S23,204.3,23,210.5
					z"/>
				<path class="st2" d="M41.2,210.4c0,6.3-5.1,11.3-11.3,11.3s-11.3-5.1-11.3-11.3s5-11.4,11.3-11.4
					C36.1,199,41.2,204.1,41.2,210.4z"/>
				<path class="st2" d="M19.2,234.1c0,6.3-5.1,11.3-11.4,11.3c-6.2,0-11.3-5.1-11.3-11.3c0-6.3,5.1-11.3,11.3-11.3
					C14.1,222.8,19.2,227.9,19.2,234.1z"/>
				<path class="st2" d="M40.9,227.3c0,6.3-5.1,11.3-11.3,11.3s-11.3-5.1-11.3-11.3c0-6.3,5.1-11.3,11.3-11.3
					C35.8,215.9,40.9,221,40.9,227.3z"/>
				<path class="st2" d="M59.7,224.7c0,6.3-5.1,11.3-11.3,11.3c-6.3,0-11.3-5.1-11.3-11.3c0-6.3,5.1-11.3,11.3-11.3
					C54.6,213.3,59.7,218.4,59.7,224.7z"/>
				<path class="st2" d="M10.1,267.1c0,6.3-5.1,11.3-11.3,11.3s-11.3-5.1-11.3-11.3c0-6.3,5.1-11.3,11.3-11.3
					C5,255.7,10.1,260.8,10.1,267.1z"/>
				<path class="st2" d="M35.1,255.7c0,6.3-5.1,11.3-11.3,11.3c-6.3,0-11.3-5.1-11.3-11.3c0-6.3,5.1-11.3,11.3-11.3
					C30,244.3,35.1,249.4,35.1,255.7z"/>
				<path class="st2" d="M57.6,247.1c0,6.3-5.1,11.3-11.3,11.3c-6.3,0-11.3-5.1-11.3-11.3c0-6.3,5.1-11.3,11.3-11.3
					C52.5,235.7,57.6,240.8,57.6,247.1z"/>
				<ellipse class="st2" cx="65.9" cy="242.2" rx="11.3" ry="11.3"/>
				<path class="st2" d="M24.5,291.6c0,6.3-5.1,11.3-11.3,11.3c-6.3,0-11.4-5.1-11.4-11.3c0-6.3,5.1-11.3,11.4-11.3
					C19.4,280.3,24.5,285.4,24.5,291.6z"/>
				<path class="st2" d="M49.8,279.5c0,6.3-5.1,11.4-11.3,11.4s-11.3-5.1-11.3-11.4s5.1-11.3,11.3-11.3S49.8,273.3,49.8,279.5z"/>
				<path class="st2" d="M73,269.5c0,6.3-5.1,11.4-11.3,11.4s-11.3-5.1-11.3-11.4s5.1-11.3,11.3-11.3S73,263.3,73,269.5z"/>
				<path class="st2" d="M93.7,262.6c0,6.3-5.1,11.3-11.3,11.3c-6.3,0-11.4-5.1-11.4-11.3c0-6.3,5.1-11.4,11.4-11.4
					C88.6,251.2,93.7,256.3,93.7,262.6z"/>
				<path class="st2" d="M12.3,331c0,6.3-5.1,11.4-11.3,11.4c-6.3,0-11.3-5.1-11.3-11.4s5.1-11.3,11.3-11.3
					C7.2,319.6,12.3,324.7,12.3,331z"/>
				<path class="st2" d="M38,317.9c0,6.3-5.1,11.3-11.3,11.3c-6.3,0-11.3-5.1-11.3-11.3c0-6.3,5.1-11.3,11.3-11.3
					C32.9,306.5,38,311.6,38,317.9z"/>
				<path class="st2" d="M63.3,305.3c0,6.3-5.1,11.3-11.3,11.3c-6.3,0-11.3-5.1-11.3-11.3c0-6.3,5.1-11.3,11.3-11.3
					S63.3,299,63.3,305.3z"/>
				<path class="st2" d="M87.2,294.2c0,6.3-5.1,11.3-11.3,11.3c-6.3,0-11.3-5.1-11.3-11.3c0-6.3,5.1-11.3,11.3-11.3
					C82.1,282.8,87.2,287.9,87.2,294.2z"/>
				<path class="st2" d="M108.9,285.5c0,6.3-5.1,11.3-11.3,11.3c-6.2,0-11.3-5.1-11.3-11.3c0-6.3,5.1-11.3,11.3-11.3
					C103.8,274.1,108.9,279.2,108.9,285.5z"/>
				<path class="st2" d="M2.5,370c0,6.3-5.1,11.3-11.3,11.3c-6.3,0-11.3-5.1-11.3-11.3c0-6.3,5.1-11.3,11.3-11.3S2.5,363.8,2.5,370z
					"/>
				<path class="st2" d="M25.9,358.1c0,6.3-5.1,11.3-11.3,11.3c-6.3,0-11.3-5.1-11.3-11.3c0-6.3,5.1-11.3,11.3-11.3
					C20.8,346.7,25.9,351.8,25.9,358.1z"/>
				<path class="st2" d="M50.6,345.4c0,6.3-5.1,11.3-11.3,11.3c-6.3,0-11.3-5.1-11.3-11.3c0-6.3,5.1-11.3,11.3-11.3
					C45.6,334.1,50.6,339.1,50.6,345.4z"/>
				<path class="st2" d="M75.7,332.7c0,6.3-5.1,11.3-11.3,11.3s-11.3-5.1-11.3-11.3c0-6.3,5.1-11.3,11.3-11.3
					C70.6,321.3,75.7,326.4,75.7,332.7z"/>
				<path class="st2" d="M100.1,320.7c0,6.3-5.1,11.3-11.3,11.3c-6.2,0-11.3-5.1-11.3-11.3c0-6.3,5.1-11.3,11.3-11.3
					C95,309.4,100.1,314.5,100.1,320.7z"/>
				<path class="st2" d="M122.9,310.5c0,6.3-5.1,11.3-11.3,11.3c-6.3,0-11.3-5.1-11.3-11.3c0-6.3,5.1-11.3,11.3-11.3
					C117.8,299.1,122.9,304.2,122.9,310.5z"/>
				<ellipse class="st2" cx="6.2" cy="397.2" rx="11.3" ry="11.3"/>
				<path class="st2" d="M39.1,386.1c0,6.3-5.1,11.3-11.3,11.3c-6.3,0-11.4-5.1-11.4-11.3c0-6.3,5.1-11.3,11.4-11.3
					C34,374.8,39.1,379.9,39.1,386.1z"/>
				<circle class="st2" cx="51.3" cy="374" r="11.3"/>
				<path class="st2" d="M87.2,361.3c0,6.3-5.1,11.3-11.3,11.3c-6.2,0-11.3-5.1-11.3-11.3s5-11.3,11.3-11.3S87.2,355,87.2,361.3z"/>
				<path class="st2" d="M111.9,348.8c0,6.3-5.1,11.3-11.3,11.3c-6.3,0-11.3-5.1-11.3-11.3c0-6.3,5.1-11.3,11.3-11.3
					C106.8,337.4,111.9,342.5,111.9,348.8z"/>
				<path class="st2" d="M135.6,337.3c0,6.3-5.1,11.3-11.3,11.3s-11.3-5.1-11.3-11.3c0-6.3,5.1-11.3,11.3-11.3
					C130.6,325.9,135.6,331,135.6,337.3z"/>
				<path class="st2" d="M74.2,403.4c0,6.3-5.1,11.3-11.3,11.3s-11.3-5.1-11.3-11.3c0-6.3,5.1-11.3,11.3-11.3S74.2,397.1,74.2,403.4
					z"/>
				<path class="st2" d="M98.1,390.9c0,6.3-5.1,11.4-11.3,11.4c-6.3,0-11.3-5.1-11.3-11.4s5.1-11.3,11.3-11.3S98.1,384.6,98.1,390.9
					z"/>
				<circle class="st2" cx="111.5" cy="378" r="11.3"/>
				<path class="st2" d="M147.3,365.6c0,6.3-5.1,11.4-11.3,11.4c-6.3,0-11.3-5.1-11.3-11.4s5.1-11.3,11.3-11.3
					C142.2,354.2,147.3,359.3,147.3,365.6z"/>
				<path class="st2" d="M132.9,408.3c0,6.3-5.1,11.3-11.3,11.3c-6.3,0-11.3-5.1-11.3-11.3c0-6.3,5.1-11.3,11.3-11.3
					C127.8,396.9,132.9,402,132.9,408.3z"/>
				<path class="st2" d="M158,395.1c0,6.3-5.1,11.4-11.3,11.4c-6.3,0-11.3-5.1-11.3-11.4c0-6.2,5.1-11.3,11.3-11.3
					C152.9,383.8,158,388.8,158,395.1z"/>
			</g>
		</g>
	</g>
</g>
<g>
	<g>
		<g>
			<defs>
				<rect id="SVGID_3_" y="0.6" width="1920.2" height="400"/>
			</defs>
			<clipPath id="SVGID_4_">
				<use xlink:href="#SVGID_3_"  style="overflow:visible;"/>
			</clipPath>
			<g class="st3">
				<g>
					<rect y="-489.1" class="st4" width="1919.4" height="1279.6"/>
					
						<linearGradient id="SVGID_5_" gradientUnits="userSpaceOnUse" x1="442.7335" y1="3946.1123" x2="1476.6665" y2="2155.2876" gradientTransform="matrix(1 0 0 1 0 -2900)">
						<stop  offset="0" style="stop-color:#141414"/>
						<stop  offset="1" style="stop-color:#FFFFFF"/>
					</linearGradient>
					<rect y="-489.1" class="st5" width="1919.4" height="1279.6"/>
				</g>
				<g>
					<g>
						<g>
							<defs>
								<rect id="SVGID_6_" y="-879" width="1919.4" height="1279.6"/>
							</defs>
							<defs>
								<rect id="SVGID_7_" y="-879" width="1919.4" height="1279.6"/>
							</defs>
							<defs>
								<rect id="SVGID_8_" y="-879" width="1919.4" height="1279.6"/>
							</defs>
							<defs>
								<rect id="SVGID_9_" y="-879" width="1919.4" height="1279.6"/>
							</defs>
							<defs>
								<rect id="SVGID_10_" y="-879" width="1919.4" height="1279.6"/>
							</defs>
							<clipPath id="SVGID_11_">
								<use xlink:href="#SVGID_6_"  style="overflow:visible;"/>
							</clipPath>
							<clipPath id="SVGID_12_" class="st6">
								<use xlink:href="#SVGID_7_"  style="overflow:visible;"/>
							</clipPath>
							<clipPath id="SVGID_13_" class="st7">
								<use xlink:href="#SVGID_8_"  style="overflow:visible;"/>
							</clipPath>
							<clipPath id="SVGID_14_" class="st8">
								<use xlink:href="#SVGID_9_"  style="overflow:visible;"/>
							</clipPath>
							<clipPath id="SVGID_15_" class="st9">
								<use xlink:href="#SVGID_10_"  style="overflow:visible;"/>
							</clipPath>
							<g class="st10">
								<g>
									<g>
										<path class="st11" d="M273.5,790.4l373.3-499.2l595,444.9l-22,29.5l-18.5,24.8h79.9l11.9-15.9l38.3-51.2l298.4-399.1
											l100.5,75.2l51.2,38.3l137.9,103.1v-79.9l-99.5-74.4l99.5-133.1V146.5l-150.8,201.6L1668,272.9l-51.2-38.3L1383,59.8
											l181-242l355.4,265.7V3.7l-317.1-237.1l79.6-106.4l78.1,58.4l51.2,38.3l108.1,80.8v-79.9l-69.8-52.2l69.8-93.3v-101.5h-4
											l-117,156.5l-78.1-58.4l-51.2-38.3l-79.9-59.8h-106.8l2.4,1.8l51.2,38.3l94.8,70.9l-79.6,106.4l-38.3,51.2l-181,242
											l-310-231.8l28.7-38.4l179.8-240.4h-79.9l-112.8,150.9L835.8-489.1H729l269.6,201.6L776.9,9.1L443.2-240.4L392-278.7
											L110.5-489.1H3.7l350,261.7L65.8,157.4l-38.3,51.2L0,245.5v106.8L78.8,247l333.6,249.5L192.6,790.4H273.5z M983.5-159.1
											l310,231.8l51.2,38.3l233.8,174.8l-298.4,399.1L685.1,240L983.5-159.1z M117.1,195.8l287.8-384.9L738.5,60.3L450.7,445.2
											L117.1,195.8z"/>
									</g>
								</g>
								<path class="st12" d="M1281.5,791.2h-81.9l41-54.9l-593.7-444l-373,498.8H191l1-1.3l219.3-293.3L78.9,248.1L-0.8,354.7
									V245.2l0.2-0.2l353.2-472.3L1.3-489.9h109.5l0.2,0.2L776.7,8l220.8-295.3L726.6-489.9h109.5l0.2,0.2l201.1,150.4L1150-489.9
									h81.9l-209,279.5l308.7,230.8L1629.5-378l-149.7-112h109.5l0.2,0.2l208.7,156L1915-490h5.2v102.5l-0.2,0.2l-69.3,92.7
									l69.5,52v81.9l-238.2-178l-78.6,105.1L1920.2,3.3v81.9l-1.3-1l-354.7-265.3l-180,240.7L1768.4,347l151.7-202.9v109.5
									l-0.2,0.2l-99.1,132.5l99.2,74.2v81.9l-290.3-217.1L1281.5,791.2z M1202.8,789.6h77.9L1629.6,323L1782,437l136.6,102.1
									v-77.9l-99.9-74.7l0.5-0.6l99.4-132.9V148.9l-149.8,200.4l-0.6-0.5L1381.9,60l0.5-0.6l181.4-242.6L1918.6,82V4.1
									l-317.4-237.3l0.5-0.6l80.1-107.1l0.6,0.5l236.2,176.6v-77.9l-70.1-52.4l70.1-93.8v-100.4h-2.8l-117.3,156.8l-209.7-156.8
									h-104.2l147.1,110l-0.5,0.6L1331.9,22.6l-311.3-232.8l29.2-39.1l178.8-239.1h-77.9l-113.1,151.2l-0.6-0.5L835.6-488.3H731.4
									l268.4,200.7l-0.5,0.6L777,10.2L110.3-488.3H6.1l348.7,260.7l-0.5,0.6L0.8,245.8V350l77.8-104.1l0.6,0.5l334.3,250L413,497
									L194.2,789.6h78.9l373.5-499.5l0.6,0.5L1242.9,736L1202.8,789.6z M1280.2,686.1l-0.6-0.5L683.9,240.2l0.5-0.6l298.9-399.7
									l0.6,0.5l595.6,445.4l-0.5,0.6L1280.2,686.1z M686.2,239.9l593.7,444L1577.4,286L983.7-158L686.2,239.9z M450.9,446.4
									l-0.6-0.5L116,195.9l0.5-0.6l288.3-385.5l0.6,0.5l334.3,250l-0.5,0.6L450.9,446.4z M118.2,195.6l332.4,248.5L737.4,60.5
									L405.1-188L118.2,195.6z"/>
								<g>
									<g>
										<path class="st13" d="M474.9-231.7l-317.5,38.9L93.9-185L0-173.5v64.5l101.6-12.5l47.1,384.2L0,280.9v64.5l156.5-19.2
											l63.5-7.8l774-94.9l45.1,367.6l-413.5,50.7l-63.5,7.8L0,718.6V783l569.9-69.9l9.5,77.3h64.5l-10.4-85.1l413.5-50.7
											l16.7,135.8h65.3l-56.9-463.7l384.2-47.1l63.5-7.8l289.7-35.5l60.7,494.6l-485.3,59.5h534.6V607.8L1873,228.5l46.5-5.7
											v-64.5l-54.3,6.7l-63.5,7.8L1512,208.3l-37-299.9l444.3-54.5v-64.5l-452.1,55.5L1451.1-287l96.8-11.9l63.5-7.8l307.9-37.8
											V-409l-315.7,38.7l-14.6-119h-64.5l15.5,126.8l-96.8,11.9l-63.5,7.8l-117.5,14.4l-19.7-160.8H1178l20.7,168.6l-203.2,24.9
											l-63.5,7.8l-393.7,48.3l-30.6-249.6h-64.5L474.9-231.7z M1206.6-257l63.5-7.8l117.5-14.4l16.2,131.9l7.8,63.5l36.8,299.9
											l-384.2,47.1l-5.8-47.6l-54.9-447.7L1206.6-257z M546.2-176l393.7-48.3L987,159.9l-774.7,95l-47.1-384.2l317.5-38.9
											L546.2-176z"/>
									</g>
								</g>
								<path class="st12" d="M1920.2,791.2h-535.4l-0.1-1.6l484.5-59.4l-60.5-493l-735.8,90.2l56.9,463.8h-66.9l-16.6-135.7
									l-412,50.5l10.4,85.2h-66.1l-9.5-77.2l-570,69.9v-66.1l0.7-0.1l1038.3-127.3l-44.9-366l-994,121.9v-66.1L147.9,262
									L101-120.6L-0.8-108.1v-66.1l158.1-19.4L474-232.4l-31.6-257.5h66.1l30.6,249.5l658.8-80.8l-20.7-168.7h66.1l19.7,160.8
									l276.2-33.9l-15.6-126.9h66.1l14.6,118.9l315.8-38.7v66.1l-0.7,0.1L1452-286.3l16,130.3l452.2-55.5v66.1l-0.7,0.1L1476-90.9
									l36.6,298.3l407.6-50v66.1l-46.4,5.7l46.4,378.5V791.2z M1397.8,789.6h520.7V607.8l-46.6-380l46.6-5.7v-62.8l-407.4,50
									l-0.1-0.8l-36.9-300.7l0.8-0.1l443.6-54.4v-62.8l-452,55.4l-16.4-133.5l161.1-19.8l307.2-37.7V-408l-315.6,38.7l-14.6-119.1
									h-62.8l15.5,126.7l-279.4,34.3l-0.1-0.8l-19.6-160.1H1179l20.7,168.5l-0.8,0.1l-661.2,81.1l-0.1-0.8L507-488.3h-62.8
									L475.8-231l-0.8,0.1L0.8-172.8v62.8l101.5-12.5l0.1,0.8l47.2,385l-0.8,0.1l-148,18.3v62.8l993.9-121.9l0.1,0.8l45.2,368.4
									l-0.8,0.1L0.8,719.3v62.8l569.8-69.9l9.5,77.4h62.8l-10.4-85l0.8-0.1l414.3-50.8l0.1,0.8l16.6,135.1h63.7L1071,326l0.8-0.1
									l738.2-90.5l0.1,0.8l60.8,495.4l-0.8,0.1L1397.8,789.6z M1063.4,264.1l-5.9-48.4l-55-448.5l385.8-47.3l24.1,196.2
									l36.9,300.7l-0.8,0.1L1063.4,264.1z M1004.3-231.4l60.6,493.7l382.6-46.9l-60.6-493.7L1004.3-231.4z M211.6,255.8l-0.1-0.8
									l-47.2-385l0.8-0.1l775.5-95.1l0.1,0.8l47.2,385l-0.8,0.1L211.6,255.8z M166-128.6L213,254l773.1-94.8l-46.9-382.6
									L166-128.6z"/>
								<g>
									<g>
										<path class="st14" d="M1460.5-489.1l-146.9,365.3L624.3-401.1l13.7-34.1l21.7-54H503.8l74.8,30.1L564.9-425L541-365.6
											L355.1,96.8L238.7,49.9L179.3,26L0-46v69l155.4,62.5L42.7,365.8L0,348.6v69l18.8,7.6L78.2,449l446.7,179.6l-49.6,123.3
											l-90.5-36.4l-59.4-23.9L0,560.8v69L301.5,751l-15.9,39.4h69l6.3-15.6l38.7,15.6h171.5l-36.5-14.7l49.6-123.3l23.9-59.4
											l112.7-280.3l359.1,144.4l-17.9,44.5L945.9,790.4h69l82.6-205.5l511.1,205.5h171.5l-658-264.6l138.2-343.6l386.5,155.4
											l59.4,23.9l213.2,85.7v-69l-189.3-76.1l179.3-445.9l10-24.8v-171.5L1873.9-227l-386.5-155.4l42.9-106.7L1460.5-489.1
											L1460.5-489.1z M548.7,569.2L102.1,389.6l112.7-280.3l116.5,46.8l59.4,23.9l270.8,108.9L548.7,569.2z M1103.8,397.8
											L744.7,253.4l-59.4-23.9L414.5,120.6l185.9-462.3l689.3,277.2L1103.8,397.8z M1850-167.6l-179.3,445.9l-386.5-155.4
											L1463.5-323L1850-167.6z"/>
									</g>
								</g>
								<path class="st12" d="M1784.2,791.2l-175.9-0.1L1098,586l-82.5,205.3h-70.7l0.4-1.1l133.7-332.5L721.3,313.8L535.7,775.3
									l39.5,15.9l-175.9-0.1l-38-15.3l-6.2,15.3h-70.7l16-39.8l-301.2-121v-70.7l1.1,0.4l474.5,190.8l49-121.8L-0.8,418v-70.7
									l43.1,17.3L154.4,85.9L-0.8,23.5v-70.7L354.7,95.7l222.9-554.3l-77.9-31.3h161.2l-35.6,88.4l687.8,276.6l146.8-365h71.5
									l-43.1,107.1l385,154.8l46.7-116.2l-0.1,175.9l-189,470l189,76v70.7l-1.1-0.4l-658.3-264.7l-137.6,342.2L1784.2,791.2z
									 M1608.8,789.6H1776l-654.9-263.3l138.8-345.1L1918.6,446v-67.2L1729,302.6l189.5-471.3V-336l-44.2,110l-388-156l42.8-106.4
									H1461l-147,365.5L623.2-400.6l35.3-87.7H508l71.7,28.8L355.6,97.8L0.8-44.8v67.2L156.5,85L43.1,366.8l-42.3-17V417
									l525.1,211.1l-50.2,124.8L0.8,562v67.2l301.8,121.3l-15.7,39.1h67.2l6.4-15.8l39.3,15.8H567l-33.4-13.4l186.8-464.5
									l360.6,145L947.1,789.6h67.2l82.7-205.7L1608.8,789.6z M549.2,570.3L101,390.1l113.3-281.8l448.1,180.2L549.2,570.3z
									 M103.1,389.2l445.2,179l112.1-278.9l-445.2-179L103.1,389.2z M1104.3,398.8L413.5,121.1L600-342.7L1290.8-65L1104.3,398.8z
									 M415.5,120.2l687.8,276.6l185.3-460.9L600.9-340.7L415.5,120.2z M1671.2,279.3l-388-156L1463-324.1l388,156L1671.2,279.3z
									 M1285.2,122.4l385,154.8L1849-167.2L1464-322L1285.2,122.4z"/>
								<g>
									<g>
										<path class="st15" d="M1771.9,249l53.1-35.6l94.3-63.2v-77l-129.9,87.1l-347.6-518.7l195-130.7h-114.9l-115.7,77.6
											l-20.5-30.6l-31.5-47h-77l19.8,29.5L679.8-46L402.3-460l43.5-29.2h-141l187.6,279.9l-346.1,232L93.2,58.3L0,120.7v77
											l128.8-86.3l267.6,399.2l35.6,53.1l139.4,207.9l-27.9,18.7h117.4l-0.8-1.1l-35.6-53.1L485.1,528.2l346.1-231.9
											l331.2,494.2h78l-85.6-127.8L1771.9,249z M449.5,475.1L181.9,75.8L528-156.1l267.6,399.2L449.5,475.1z M715.4,7.1
											l617.2-413.6L1353-376l35.6,53.1l347.6,518.7L1119,609.4L715.4,7.1z"/>
									</g>
								</g>
								<path class="st12" d="M1241.9,791.2H1162l-0.2-0.4L831,297.4l-344.7,231l176.1,262.8H540.8l29.4-19.7l-441.7-659L-0.8,199.3
									v-78.9l0.4-0.2l491.7-329.6l-188-280.5h145.2l-45,30.2L680-47.1l615.8-412.7l-20.2-30.1h78.9l51.8,77.3l115.3-77.3h117.8
									l-196.6,131.7l346.7,517.4L1920,71.7v78.9l-0.4,0.2l-764,512L1241.9,791.2z M1162.8,789.6h76.1l-85.2-127.2l0.7-0.4
									l764.3-512.2V74.7l-129.4,86.7l-0.4-0.7l-348.1-519.4l193.5-129.7h-112l-116.2,77.9l-52.2-77.9h-75.1l19.4,28.9l-0.7,0.4
									l-618,414.2l-0.4-0.7L401.2-460.2l42-28.1H306.3L493.5-209l-0.7,0.4L0.8,121.2v75.1l128.2-86l0.4,0.7l443,661l-26.3,17.7
									h113.3L484,528l0.7-0.4l346.7-232.4l0.4,0.7L1162.8,789.6z M1118.9,610.6l-0.4-0.7L714.3,6.9l0.7-0.4l617.8-414.1l56.5,84.4
									l348.1,519.4l-0.7,0.4L1118.9,610.6z M716.5,7.3l402.8,601.1l615.8-412.7l-402.8-601.1L716.5,7.3z M449.3,476.2l-0.4-0.7
									l-268-399.9l0.7-0.4l346.7-232.4l0.4,0.7l268,399.9l-0.7,0.4L449.3,476.2z M183,76l266.7,398l344.7-231L527.8-155L183,76z"
									/>
							</g>
							<g class="st10">
								
									<linearGradient id="SVGID_16_" gradientUnits="userSpaceOnUse" x1="959.8501" y1="3690.5" x2="959.8501" y2="2410.8" gradientTransform="matrix(1 0 0 1 0 -2900)">
									<stop  offset="0" style="stop-color:#000000"/>
									<stop  offset="1" style="stop-color:#000000;stop-opacity:0"/>
								</linearGradient>
								<path class="st16" d="M1915.4-489.1l-66.5,88.9l-121.1,14.9l-7.6-5.7l-51.2-38.3l-57.3-42.9l25.2-16.9H1589l0,0h-58.8h-5.7
									h-2.7h-39.7h-21.7l-22.7,56.4l-31.6,21.2l-20.5-30.6l-31.5-47h-77l19.8,29.5l-46.9,31.4l-7.5-60.9h-12.3H1178h-27.7
									l-112.8,150.9L835.8-489.1H729l259.9,194.4l-56.9,7l-20,2.5L624.3-401.1l13.7-34.1l21.7-54H507.8h-3.9h-58h-2.5H304.8
									l169.5,252.9l0.6,4.5l-17.3,2.1l-14.4-10.8L392-278.7L110.5-489.1H3.7l350,261.7l-8.7,11.7l-187.6,23L93.9-185L0-173.5v64.5
									l101.6-12.5l15,122.4L0-46v69l91.2,36.7L0,120.7v77l71.6-48l-5.7,7.6l-38.3,51.2L0,245.5v35.4v64.5v3.2v3.7v65.2l18.8,7.6
									L78.2,449l284.3,114.3l-82.3,110.1L0,560.8v69l169.2,68.1L0,718.6V783l218.2-26.8l-25.6,34.2h80.9l26.3-35.2l-14.2,35.2h69
									l6.3-15.6l38.7,15.6h143.9h27.6h8.3h64.5H661l-0.8-1.1l-20.1-30l-6.6-53.9l364.8-44.7l-52.2,129.8h69l37.3-92.7l11.4,92.7
									h65.3l-7.5-61.4l41.1,61.4h38.8h39.2h40.7l11.9-15.9l38.3-51.2l25.5-34.1l199.5,80.2l-171.6,21h223.9h171.5h139.3V607.8
									l-9.1-73.8l9.1,6.8v-79.9l-19.8-14.8l-0.9-7.1l20.7,8.3v-69l-29.6-11.9l-7.7-63.1l37.3-49.9v-30.5v-64.5v-8.2v-3.7V83.6
									V73.2V3.7l-53.3-39.8l43.3-107.6l0.5-1.2l9.5-1.2v-16.2v-6.3v-42v-31.6v-97.9l-30.3,75.3l-39.5-29.5l34.2-45.7l35.6-4.4
									v-43.2v-21.2v-80.3L1915.4-489.1L1915.4-489.1z M1626.8-373l-23.2,2.8l-3.8-31l30.8,23L1626.8-373z M1198.3,556.5
									l-76.1-30.6L1209,310l247.1-30.3l35.6-4.4l72.8,29.3l-9.7,12.9L1198.3,556.5z M1439.4,471.9L1335,611.5l-64.9-26.1
									L1439.4,471.9z M499.3,549.4l-14.2-21.2l109.6-73.5l-46,114.5L499.3,549.4z M1206.6-257l63.5-7.8l105.4-12.9l-61.9,153.8
									l-251.7-101.2l25.8-17.3L1206.6-257z M1533.1-419.6l7,57.3l-2.3,0.3l-50.5-20.3l3.6-9L1533.1-419.6z M1645.9,256.4
									L1645.9,256.4l0.2-0.1L1645.9,256.4z M210.9,119l3.9-9.7l116.5,46.8l59.4,23.9l101.1,40.6l-196.5,24.1L210.9,119z
									 M224,253.5l-11.7,1.4l-2.8-23.2L224,253.5z M607.3-37.8L704,106.5l-72.5,97l-8.4,1l-208.6-83.9L508-112L607.3-37.8z
									 M1401.2-168.1l2.6,20.8l7.6,62.3l-79.6,106.5l-5.3-3.9L1401.2-168.1z M1272.8-22.6l-141-105.5l157.9,63.5L1272.8-22.6z
									 M720.5,192.6l21.7-29l16.3,24.4L720.5,192.6z M783.4,108.6l169.5-226.7l34.1,278l-156.4,19.2L783.4,108.6z M776.9,9.1
									l-30.5-22.8l95.2-63.8L776.9,9.1z M745.9,253.9l41.1-5l-20.1,13.5L745.9,253.9z M870.5,238.6L994,223.5l16.8,136.9
									l-80.2-32.3L870.5,238.6z M1019.7,432.9l4.2,34.5l-30.1-44.9L1019.7,432.9z M1079.4,388l-7.5-61.3l63.6-7.8l-31.7,78.9
									L1079.4,388z M1064.1,263.2l-5.8-47.6l-43-350.9l232.9,174.2l-85.4,212.3L1064.1,263.2z M1260.3,182.2l108.5,43.6
									l-132.6,16.3L1260.3,182.2z M1444.8,187.4l-160.6-64.6l17.6-43.9l42.9,32.1l99.9,74.7L1444.8,187.4z M1383,59.8l39.6-53
									l11.2,91L1383,59.8z M1466.8-159l-7.1-57.8l23.8,35.5L1466.8-159z M925.7-210.9L692.1-54.3L656.3-81l-67.2-100.2l314.4-38.6
									L925.7-210.9z M419.6-160.5l-72.5,48.6l32.7-43.7L419.6-160.5z M430.6-90.8L355.1,96.8L238.7,49.9l-9.6-3.9l2.7-3.6
									L430.6-90.8z M335.1,304.3l243.4-29.8L450.7,445.2l-42.5-31.8L335.1,304.3z M569.4,394.7l77.4-103.5l10.6,7.9l-20.2,50.1
									L569.4,394.7z M887.1,379.6l15.4,23l-48.6-36.3L887.1,379.6z M1786.1,324.7l-56-22.5l13.8-34.4l28-18.8l14.9-10l22.6-2.8
									l6,49.2L1786.1,324.7z M1708.5,184.2L1571.8,201l-67-50.1L1478-67.2l20.4-27.2l40-4.9l177.6,265L1708.5,184.2z
									 M1609.6-108.1l45.9-5.6l132.9,99.4l-43.5,108.2L1609.6-108.1z M1569.6-167.7l-7.8-11.7l2.1-2.9l17.5,13.1L1569.6-167.7z
									 M1602.3-233.4l19.4-26l162.7,65.4l-111.2,13.6L1602.3-233.4z M1551.1-271.7l-27,36.1l-37.3-55.7l42.6-5.2l31,12.5
									L1551.1-271.7z M1332.5-406.5L1353-376l22.6,33.8l-113.3,13.9l-3.5-28.8L1332.5-406.5z M1185.5-429.2l5,40.9l-71.3,47.8
									L1185.5-429.2z M780.7-269.2l-220.2,27l40-99.5L780.7-269.2z M578.6-459.1L564.9-425L541-365.6L527.1-331L508-487.5
									L578.6-459.1z M402.3-460l41.2-27.6l13.4,108.9L402.3-460z M291.9-144.8L187-4.6l-6.1,4.1l-15.8-128.8L291.9-144.8z
									 M78.8,247l9,6.7l-7,17.3l-22,2.7L78.8,247z M2.2,349.5l3.6-4.8l47.8-5.9l-10.8,26.9L2.2,349.5z M126.1,329.9l30.5-3.7
									l24.2-3l180.4,134.9l32.7,48.8L102.1,389.6L126.1,329.9z M457.2,601.4l37.8,56.5l-134.7,16.5l64.4-86.1L457.2,601.4z
									 M423.5,731.1l63.3-7.8l-11.5,28.6L423.5,731.1z M553.8,783.5l-19.2-7.7l14.8-36.7l21.9,32.7L553.8,783.5z M625.6,641.8
									l-39,4.8l21.5-53.5l81.1-201.7l48.3-32.4l272.3,203.6l17.3,25.8l-1.7,4.2L625.6,641.8z M1221.8,762.8l-55.7-83.2l75.6,56.6
									L1221.8,762.8z M1280.1,684.9l-75-56.1l0.7-0.4l89.6,36L1280.1,684.9z M1870,730.9l-182.3,22.4l-291.3-117.1l203.1-271.6
									l42.8-28.7l4.5,1.8l1.9,0.8l81.5,60.9l51.2,38.3l57.8,43.3L1870,730.9z M1909.6,159.5l-5.1,0.6l9.3-6.3L1909.6,159.5z
									 M1912,78.1l-122.6,82.2l-1.4-2.1l53.4-132.8L1912,78.1z M1813.1-75.8l-65.8-49.2l90-11L1813.1-75.8z M1760-281.4l25,18.7
									l-123.6-49.7l0.3-0.4l48.4-5.9L1760-281.4z"/>
								
									<linearGradient id="SVGID_17_" gradientUnits="userSpaceOnUse" x1="959.8501" y1="3690.5" x2="959.8501" y2="2410.8" gradientTransform="matrix(1 0 0 1 0 -2900)">
									<stop  offset="0" style="stop-color:#FFFFFF;stop-opacity:0"/>
									<stop  offset="1" style="stop-color:#FFFFFF"/>
								</linearGradient>
								<path class="st17" d="M1915.4-489.1l-66.5,88.9l-121.1,14.9l-7.6-5.7l-51.2-38.3l-57.3-42.9l25.2-16.9H1589l0,0h-58.8h-5.7
									h-2.7h-39.7h-21.7l-22.7,56.4l-31.6,21.2l-20.5-30.6l-31.5-47h-77l19.8,29.5l-46.9,31.4l-7.5-60.9h-12.3H1178h-27.7
									l-112.8,150.9L835.8-489.1H729l259.9,194.4l-56.9,7l-20,2.5L624.3-401.1l13.7-34.1l21.7-54H507.8h-3.9h-58h-2.5H304.8
									l169.5,252.9l0.6,4.5l-17.3,2.1l-14.4-10.8L392-278.7L110.5-489.1H3.7l350,261.7l-8.7,11.7l-187.6,23L93.9-185L0-173.5v64.5
									l101.6-12.5l15,122.4L0-46v69l91.2,36.7L0,120.7v77l71.6-48l-5.7,7.6l-38.3,51.2L0,245.5v35.4v64.5v3.2v3.7v65.2l18.8,7.6
									L78.2,449l284.3,114.3l-82.3,110.1L0,560.8v69l169.2,68.1L0,718.6V783l218.2-26.8l-25.6,34.2h80.9l26.3-35.2l-14.2,35.2h69
									l6.3-15.6l38.7,15.6h143.9h27.6h8.3h64.5H661l-0.8-1.1l-20.1-30l-6.6-53.9l364.8-44.7l-52.2,129.8h69l37.3-92.7l11.4,92.7
									h65.3l-7.5-61.4l41.1,61.4h38.8h39.2h40.7l11.9-15.9l38.3-51.2l25.5-34.1l199.5,80.2l-171.6,21h223.9h171.5h139.3V607.8
									l-9.1-73.8l9.1,6.8v-79.9l-19.8-14.8l-0.9-7.1l20.7,8.3v-69l-29.6-11.9l-7.7-63.1l37.3-49.9v-30.5v-64.5v-8.2v-3.7V83.6
									V73.2V3.7l-53.3-39.8l43.3-107.6l0.5-1.2l9.5-1.2v-16.2v-6.3v-42v-31.6v-97.9l-30.3,75.3l-39.5-29.5l34.2-45.7l35.6-4.4
									v-43.2v-21.2v-80.3L1915.4-489.1L1915.4-489.1z M1626.8-373l-23.2,2.8l-3.8-31l30.8,23L1626.8-373z M1198.3,556.5
									l-76.1-30.6L1209,310l247.1-30.3l35.6-4.4l72.8,29.3l-9.7,12.9L1198.3,556.5z M1439.4,471.9L1335,611.5l-64.9-26.1
									L1439.4,471.9z M499.3,549.4l-14.2-21.2l109.6-73.5l-46,114.5L499.3,549.4z M1206.6-257l63.5-7.8l105.4-12.9l-61.9,153.8
									l-251.7-101.2l25.8-17.3L1206.6-257z M1533.1-419.6l7,57.3l-2.3,0.3l-50.5-20.3l3.6-9L1533.1-419.6z M1645.9,256.4
									L1645.9,256.4l0.2-0.1L1645.9,256.4z M210.9,119l3.9-9.7l116.5,46.8l59.4,23.9l101.1,40.6l-196.5,24.1L210.9,119z
									 M224,253.5l-11.7,1.4l-2.8-23.2L224,253.5z M607.3-37.8L704,106.5l-72.5,97l-8.4,1l-208.6-83.9L508-112L607.3-37.8z
									 M1401.2-168.1l2.6,20.8l7.6,62.3l-79.6,106.5l-5.3-3.9L1401.2-168.1z M1272.8-22.6l-141-105.5l157.9,63.5L1272.8-22.6z
									 M720.5,192.6l21.7-29l16.3,24.4L720.5,192.6z M783.4,108.6l169.5-226.7l34.1,278l-156.4,19.2L783.4,108.6z M776.9,9.1
									l-30.5-22.8l95.2-63.8L776.9,9.1z M745.9,253.9l41.1-5l-20.1,13.5L745.9,253.9z M870.5,238.6L994,223.5l16.8,136.9
									l-80.2-32.3L870.5,238.6z M1019.7,432.9l4.2,34.5l-30.1-44.9L1019.7,432.9z M1079.4,388l-7.5-61.3l63.6-7.8l-31.7,78.9
									L1079.4,388z M1064.1,263.2l-5.8-47.6l-43-350.9l232.9,174.2l-85.4,212.3L1064.1,263.2z M1260.3,182.2l108.5,43.6
									l-132.6,16.3L1260.3,182.2z M1444.8,187.4l-160.6-64.6l17.6-43.9l42.9,32.1l99.9,74.7L1444.8,187.4z M1383,59.8l39.6-53
									l11.2,91L1383,59.8z M1466.8-159l-7.1-57.8l23.8,35.5L1466.8-159z M925.7-210.9L692.1-54.3L656.3-81l-67.2-100.2l314.4-38.6
									L925.7-210.9z M419.6-160.5l-72.5,48.6l32.7-43.7L419.6-160.5z M430.6-90.8L355.1,96.8L238.7,49.9l-9.6-3.9l2.7-3.6
									L430.6-90.8z M335.1,304.3l243.4-29.8L450.7,445.2l-42.5-31.8L335.1,304.3z M569.4,394.7l77.4-103.5l10.6,7.9l-20.2,50.1
									L569.4,394.7z M887.1,379.6l15.4,23l-48.6-36.3L887.1,379.6z M1786.1,324.7l-56-22.5l13.8-34.4l28-18.8l14.9-10l22.6-2.8
									l6,49.2L1786.1,324.7z M1708.5,184.2L1571.8,201l-67-50.1L1478-67.2l20.4-27.2l40-4.9l177.6,265L1708.5,184.2z
									 M1609.6-108.1l45.9-5.6l132.9,99.4l-43.5,108.2L1609.6-108.1z M1569.6-167.7l-7.8-11.7l2.1-2.9l17.5,13.1L1569.6-167.7z
									 M1602.3-233.4l19.4-26l162.7,65.4l-111.2,13.6L1602.3-233.4z M1551.1-271.7l-27,36.1l-37.3-55.7l42.6-5.2l31,12.5
									L1551.1-271.7z M1332.5-406.5L1353-376l22.6,33.8l-113.3,13.9l-3.5-28.8L1332.5-406.5z M1185.5-429.2l5,40.9l-71.3,47.8
									L1185.5-429.2z M780.7-269.2l-220.2,27l40-99.5L780.7-269.2z M578.6-459.1L564.9-425L541-365.6L527.1-331L508-487.5
									L578.6-459.1z M402.3-460l41.2-27.6l13.4,108.9L402.3-460z M291.9-144.8L187-4.6l-6.1,4.1l-15.8-128.8L291.9-144.8z
									 M78.8,247l9,6.7l-7,17.3l-22,2.7L78.8,247z M2.2,349.5l3.6-4.8l47.8-5.9l-10.8,26.9L2.2,349.5z M126.1,329.9l30.5-3.7
									l24.2-3l180.4,134.9l32.7,48.8L102.1,389.6L126.1,329.9z M457.2,601.4l37.8,56.5l-134.7,16.5l64.4-86.1L457.2,601.4z
									 M423.5,731.1l63.3-7.8l-11.5,28.6L423.5,731.1z M553.8,783.5l-19.2-7.7l14.8-36.7l21.9,32.7L553.8,783.5z M625.6,641.8
									l-39,4.8l21.5-53.5l81.1-201.7l48.3-32.4l272.3,203.6l17.3,25.8l-1.7,4.2L625.6,641.8z M1221.8,762.8l-55.7-83.2l75.6,56.6
									L1221.8,762.8z M1280.1,684.9l-75-56.1l0.7-0.4l89.6,36L1280.1,684.9z M1870,730.9l-182.3,22.4l-291.3-117.1l203.1-271.6
									l42.8-28.7l4.5,1.8l1.9,0.8l81.5,60.9l51.2,38.3l57.8,43.3L1870,730.9z M1909.6,159.5l-5.1,0.6l9.3-6.3L1909.6,159.5z
									 M1912,78.1l-122.6,82.2l-1.4-2.1l53.4-132.8L1912,78.1z M1813.1-75.8l-65.8-49.2l90-11L1813.1-75.8z M1760-281.4l25,18.7
									l-123.6-49.7l0.3-0.4l48.4-5.9L1760-281.4z"/>
							</g>
						</g>
						<g>
						</g>
					</g>
				</g>
			</g>
			<rect x="0.4" class="st18" width="1919.8" height="401"/>
		</g>
	</g>
</g>
</svg>
