<?xml version="1.0" encoding="utf-8"?>
<!-- Generator: Adobe Illustrator 21.0.0, SVG Export Plug-In . SVG Version: 6.00 Build 0)  -->
<svg version="1.1" id="Capa_1" xmlns="http://www.w3.org/2000/svg" xmlns:xlink="http://www.w3.org/1999/xlink" x="0px" y="0px"
	 viewBox="0 0 441 516.6" style="enable-background:new 0 0 441 516.6;" xml:space="preserve">
<style type="text/css">
	.st0{fill:#90DFAA;}
	.st1{fill:#76B285;}
	.st2{fill:#324A5E;}
	.st3{fill:#FFFFFF;}
	.st4{fill:#E6E9EE;}
	.st5{fill:#FF7058;}
	.st6{fill:#54C0EB;}
	.st7{fill:#A952A5;}
	.st8{fill:#460C44;}
	.st9{fill:#FFDA79;}
	.st10{fill:#FFD155;}
	.st11{fill:#36495E;}
	.st12{fill:#6A82A1;}
	.st13{fill:#2C3E50;}
	.st14{fill:#FF7F4F;}
	.st15{fill:#D35933;}
	.st16{fill:#386895;}
	.st17{fill:#273B7A;}
	.st18{fill:#121149;}
	.st19{fill:#38C6D9;}
	.st20{fill:#02B2B2;}
	.st21{fill:none;}
	.st22{fill:#FEE187;}
	.st23{fill:#FFC61B;}
	.st24{fill:#B54324;}
	.st25{fill:#9E005D;}
	.st26{fill:#7C0050;}
	.st27{fill:#EDEDED;}
	.st28{fill:#E3E3E3;}
	.st29{fill:#EFEFF0;}
	.st30{fill:#8CC63F;}
	.st31{fill:#8BAF3A;}
	.st32{fill:#4D4D4D;}
	.st33{fill:#31BAFD;}
	.st34{fill:#2B9ED8;}
	.st35{fill:#E9EFF4;}
	.st36{fill:#D0D1D3;}
	.st37{fill:#FED8B2;}
	.st38{fill:#EFC095;}
	.st39{fill:#F4E3C3;}
	.st40{fill:#3F3B3B;}
	.st41{fill:#272525;}
	.st42{fill:#FC9483;}
	.st43{fill:#FD8469;}
	.st44{fill:#2B3B4E;}
	.st45{fill:#1B2B3A;}
	.st46{fill:#FC6F58;}
	.st47{fill:none;stroke:#FFFFFF;stroke-width:3;stroke-linecap:round;stroke-miterlimit:10;}
	.st48{fill:#404042;}
	.st49{fill:#9BC53D;}
	.st50{fill:#49873E;}
	.st51{fill:#C2001B;}
	.st52{fill:#940030;}
	.st53{fill:#E8E8E8;}
	.st54{fill:#FF5419;}
	.st55{fill:#366695;}
	.st56{fill:#666666;}
	.st57{fill:#3FA9F5;}
	.st58{fill:#6D0E64;}
	.st59{fill:#370732;}
	.st60{fill:#CFDBE6;}
	.st61{fill:#F9B54C;}
	.st62{fill:#F4A200;}
	.st63{fill:#4CDBC4;}
	.st64{fill:#05BEA6;}
	.st65{fill:#FF8E31;}
	.st66{fill:#ED7425;}
	.st67{fill:#5D6D7E;}
	.st68{fill:#34495E;}
	.st69{fill:#5E7D9B;}
	.st70{fill:#0684BA;}
	.st71{fill:#283A4D;}
	.st72{fill:#0578AB;}
	.st73{fill:#E5E9EC;}
	.st74{fill:#29ABE2;}
	.st75{fill:#D9E021;}
	.st76{fill:#BCBC1E;}
	.st77{fill:#FF1D25;}
	.st78{fill:#EFCF7B;}
	.st79{fill:#DDB761;}
	.st80{fill:#73BCAE;}
	.st81{fill:#4C9385;}
	.st82{fill:#8CD0C2;}
	.st83{fill:#D3919B;}
	.st84{fill:#B06977;}
	.st85{fill:#FACACC;}
	.st86{fill:#DD4A43;}
	.st87{fill:#BA2827;}
	.st88{fill:#ED5E53;}
	.st89{fill:#E6E6E6;}
	.st90{fill:#FFD300;}
	.st91{fill:#F1543F;}
	.st92{fill:#FFD15D;}
	.st93{fill:#67D6A4;}
	.st94{fill:#018C4D;}
	.st95{fill:#D4145A;}
	.st96{fill:#39B54A;}
	.st97{fill:#0575A5;}
	.st98{fill:#025E90;}
	.st99{fill:#C1D354;}
	.st100{fill:#71CC8D;}
	.st101{fill:url(#SVGID_1_);}
	.st102{opacity:0.15;}
	.st103{clip-path:url(#SVGID_3_);}
	.st104{fill:#B60C1B;}
	.st105{fill:#FDFEFE;}
	.st106{fill:#648C2C;}
	.st107{fill:#9B4C00;}
	.st108{fill:#6D3802;}
	.st109{fill:#EAA22F;}
	.st110{fill:#C92F00;}
	.st111{fill:#FFEDB5;}
	.st112{fill:#B2760B;}
	.st113{fill:#B82033;}
	.st114{fill:#B98A90;}
	.st115{fill:#663434;}
	.st116{fill:#009245;}
	.st117{fill:#FBB03B;}
	.st118{fill:#F7931E;}
	.st119{fill:#ED1C24;}
	.st120{fill:#AF1924;}
	.st121{fill:#CCCCCC;}
	.st122{fill:#B3B3B3;}
	.st123{fill:#57442F;}
	.st124{fill:#FF00FF;}
	.st125{fill:#C200CC;}
	.st126{fill:#00FFFF;}
	.st127{fill:#E8CF89;}
	.st128{fill:#0071BC;}
	.st129{fill:#998675;}
	.st130{fill:#534741;}
	.st131{fill:#C9862D;}
	.st132{fill:#AA1325;}
	.st133{fill:#729B31;}
	.st134{fill:#662D91;}
	.st135{fill:#361851;}
	.st136{fill:#EFEFEF;}
	.st137{fill:#E2E2E2;}
	.st138{fill:#B2B2B2;}
	.st139{fill:#D75A4A;}
	.st140{fill:#ED8A19;}
	.st141{fill:#C7CAC7;}
	.st142{fill:#FBCE9D;}
	.st143{fill:#38454F;}
	.st144{fill:#F2ECBF;}
	.st145{fill:#EBBA16;}
	.st146{fill:#C69C6D;}
	.st147{fill:#1C7A25;}
	.st148{fill:#8C6239;}
	.st149{fill:#006837;}
	.st150{fill:#C29100;}
	.st151{fill:#911245;}
	.st152{fill:#E2CD9F;}
	.st153{fill:#A59472;}
	.st154{fill:#FF931E;}
	.st155{fill:#94E629;}
	.st156{fill:#81C724;}
	.st157{fill:none;stroke:#333333;stroke-width:2;stroke-linecap:round;stroke-miterlimit:10;}
	.st158{fill:none;stroke:#333333;stroke-width:2;stroke-linecap:round;stroke-miterlimit:10;stroke-dasharray:3.0478,3.0478;}
	.st159{fill:none;stroke:#333333;stroke-width:2;stroke-linecap:round;stroke-miterlimit:10;stroke-dasharray:5.2021,5.2021;}
	.st160{fill:none;stroke:#333333;stroke-width:2;stroke-linecap:round;stroke-miterlimit:10;stroke-dasharray:5.2651,5.2651;}
	.st161{fill:none;stroke:#333333;stroke-width:2;stroke-linecap:round;stroke-miterlimit:10;stroke-dasharray:2.5546,2.5546;}
	.st162{fill:none;stroke:#333333;stroke-width:2;stroke-linecap:round;stroke-miterlimit:10;stroke-dasharray:4.6776,4.6776;}
	.st163{fill:none;stroke:#333333;stroke-width:2;stroke-linecap:round;stroke-miterlimit:10;stroke-dasharray:5.0212,5.0212;}
	.st164{fill:none;stroke:#333333;stroke-width:2;stroke-linecap:round;stroke-miterlimit:10;stroke-dasharray:4.4933,4.4933;}
	.st165{fill:none;stroke:#333333;stroke-width:2;stroke-linecap:round;stroke-miterlimit:10;stroke-dasharray:3.0425,3.0425;}
	.st166{fill:#7A0048;}
	.st167{fill:none;stroke:#FFFFFF;stroke-width:3;stroke-linecap:round;stroke-miterlimit:10;stroke-dasharray:5.4542,5.4542;}
	.st168{fill:none;stroke:#FFFFFF;stroke-width:3;stroke-linecap:round;stroke-miterlimit:10;stroke-dasharray:9.6203,9.6203;}
	.st169{fill:none;stroke:#FFFFFF;stroke-width:3;stroke-linecap:round;stroke-miterlimit:10;stroke-dasharray:9.6764,9.6764;}
	.st170{fill:none;stroke:#FFFFFF;stroke-width:3;stroke-linecap:round;stroke-miterlimit:10;stroke-dasharray:10.5773,10.5773;}
	.st171{fill:none;stroke:#FFFFFF;stroke-width:3;stroke-linecap:round;stroke-miterlimit:10;stroke-dasharray:9.3109,9.3109;}
	.st172{fill:none;stroke:#FFFFFF;stroke-width:3;stroke-linecap:round;stroke-miterlimit:10;stroke-dasharray:10.6676,10.6676;}
	.st173{fill:#00A99D;}
	.st174{fill:#754C24;}
	.st175{fill:#FFFFFF;stroke:#FFFFFF;stroke-width:0.1986;stroke-miterlimit:10;}
	.st176{fill:#F15A24;}
	.st177{fill:#CCAA1D;}
	.st178{fill:#937809;}
	.st179{opacity:0.57;fill:#666666;}
	.st180{fill:#FFFF00;}
	.st181{fill:#1C7A71;}
	.st182{fill:#9B0A45;}
	.st183{fill:#C47C1C;}
	.st184{fill:#FCD088;}
	.st185{fill:#DDAB62;}
	.st186{fill:#B76D5C;}
	.st187{fill:#91483C;}
	.st188{fill:#FF0F27;}
	.st189{fill:#444444;}
	.st190{fill:#333333;}
	.st191{fill:#D48B07;}
	.st192{fill:#9B6207;}
	.st193{fill:#564825;}
	.st194{fill:#2B2413;}
	.st195{fill:#6B9130;}
	.st196{fill:#057236;}
	.st197{fill:#2487AA;}
	.st198{fill:#055A7F;}
	.st199{fill:#2E3192;}
	.st200{fill:#6A6E77;}
	.st201{fill:#D0223A;}
	.st202{fill:#008645;}
	.st203{fill:#FF7BAC;}
	.st204{fill:#CE6E95;}
	.st205{fill:#EA4949;}
	.st206{fill:#B54040;}
	.st207{fill:#EDBF00;}
	.st208{fill:#E8CA4B;}
	.st209{fill:#CE8505;}
	.st210{fill:#EA9C00;}
	.st211{fill:#297358;}
	.st212{fill:#4ABC96;}
	.st213{fill:#3CA57F;}
	.st214{fill:#369975;}
	.st215{fill:#CC013A;}
	.st216{clip-path:url(#SVGID_5_);}
	.st217{fill:#161616;}
	.st218{fill:url(#SVGID_6_);}
	.st219{clip-path:url(#SVGID_8_);}
	.st220{fill:#0F0F0F;}
	.st221{opacity:0.5;fill:#FFFFFF;}
	.st222{fill:#191919;}
	.st223{fill:#232323;}
	.st224{fill:#2D2D2D;}
	.st225{opacity:0.6;fill:url(#SVGID_9_);}
	.st226{opacity:0.5;fill:url(#SVGID_10_);}
	.st227{fill:#808080;}
	.st228{fill:#1B1464;}
	.st229{fill:#F2F2F2;}
	.st230{fill:#0191E9;}
	.st231{fill:#0067A0;}
	.st232{fill:#242424;}
	.st233{fill:#FFBE00;}
	.st234{fill:#F4502A;}
	.st235{fill:#BA3D20;}
	.st236{fill:#008C82;}
</style>
<g>
	<g>
		<circle class="st16" cx="220.2" cy="183.6" r="160.6"/>
		<path class="st17" d="M371.2,238.2l-48.8-48.8l-17.3,17.3l-32.1-32.1l-39,32.5l-102.8,52.6l84.3,84.3c1.5,0,3.1,0.1,4.7,0.1
			C289.7,344.1,348.8,300,371.2,238.2z"/>
		<g>
			<g>
				<path class="st47" d="M183.5,149.3c1.6-0.2,3.3-0.3,5-0.3v0.1h0h2.7l2-1.1"/>
				<polyline class="st47" points="202.5,142.9 206.9,140.5 208.1,135.7 				"/>
				<path class="st47" d="M208.2,135.4l1.3-4.8c-1.1-1.1-2.1-2.4-3.2-3.8"/>
				<path class="st47" d="M200.5,117c-0.7-1.4-1.5-2.9-2.2-4.5c-0.3,0-0.5,0.1-0.9,0.1c-1.3,0-2.6-0.5-3.8-1.2"/>
				<path class="st167" d="M189.9,107.4c-0.8-1.4-1.5-3.1-1.7-4.9c-0.2-1-0.2-2-0.2-3"/>
				<path class="st47" d="M188.5,96.9c0.6-1.7,1.7-3.1,3-3.8c-0.3-1.6-0.6-3.2-0.9-4.9"/>
				<path class="st168" d="M189.7,78.5c-0.8-15.6,3.6-32.5,26.8-37.6c9.5-2.1,15.8,0.7,19.9,4"/>
				<path class="st47" d="M239.7,48.4c1.6,2,2.4,3.7,2.6,4.2c1.6-0.9,3.2-1.5,4.6-1.8"/>
				<path class="st169" d="M256.2,52.7c3.2,2.2,5.4,5.6,6.2,8c2.2,6,2.4,15.5,1.8,23.4"/>
				<path class="st47" d="M263.8,88.9c-0.2,1.9-0.5,3.6-0.8,4.9c1.1,1.1,1.8,2.6,2.2,4.4"/>
				<path class="st47" d="M260.7,110.5c-1.4,1.2-2.9,1.9-4.5,2c-0.7,1.5-1.4,3-2.2,4.5"/>
				<path class="st47" d="M247.4,126.7c-1.1,1.3-2.2,2.6-3.4,3.7l1.3,4.8"/>
				<polyline class="st47" points="245.3,135.6 246.6,140.4 246.9,140.4 251,142.7 				"/>
				<path class="st170" d="M260.2,147.9l1.8,1h2.9c20.1,0,36.6,15.8,36.6,35v18.1"/>
				<polyline class="st47" points="301.5,207.4 301.5,212.4 296.5,212.4 				"/>
				<line class="st171" x1="287.2" y1="212.4" x2="161.5" y2="212.4"/>
				<polyline class="st47" points="156.8,212.4 151.8,212.4 151.8,207.4 				"/>
				<path class="st172" d="M151.8,196.8V184c0-15.9,11.2-29.4,26.4-33.7"/>
			</g>
		</g>
		<g>
			<path class="st14" d="M225.4,303.4c-0.9,0-1.9-0.1-2.9-0.2l-46.5-7.7c-8.4-1.4-14.5-8.6-14.5-17.1v-29.5h81.1v37.3
				c0,5.1-2.2,9.9-6.1,13.2C233.4,301.9,229.5,303.4,225.4,303.4z M170.3,257.4v20.9c0,4.3,3,7.8,7.2,8.5l46.5,7.7
				c2.5,0.4,5.1-0.3,7-1.9c1.9-1.6,3.1-4.1,3.1-6.6v-28.6L170.3,257.4L170.3,257.4z"/>
			<rect x="131.2" y="203.1" class="st14" width="28.4" height="56.7"/>
		</g>
		<rect x="131.2" y="232.6" class="st15" width="28.4" height="27.2"/>
		<polygon class="st3" points="273.1,288.2 145.4,259.8 145.4,203.1 273.1,174.7 		"/>
		<polygon class="st36" points="145.4,232.6 145.4,259.8 273.1,288.2 273.1,232.6 		"/>
		<polygon class="st15" points="273.1,174.7 259.1,177.8 259.1,285.1 273.1,288.2 		"/>
		<polygon class="st24" points="259.1,232.6 259.1,285.1 273.1,288.2 273.1,232.6 		"/>
		<path class="st23" d="M337.2,241.5h-35.7c-2.4,0-4.3-1.9-4.3-4.3c0-2.4,1.9-4.3,4.3-4.3h35.7c2.4,0,4.3,1.9,4.3,4.3
			C341.5,239.5,339.6,241.5,337.2,241.5z"/>
		<path class="st109" d="M297.2,237.4c0.1,2.3,2,4.1,4.3,4.1h35.7c2.3,0,4.2-1.8,4.3-4.1H297.2z"/>
		<path class="st23" d="M301.5,214.7c-1.1,0-2.2-0.4-3.1-1.3c-1.7-1.7-1.7-4.4,0-6.1l17.8-17.8c1.7-1.7,4.4-1.7,6.1,0
			c1.7,1.7,1.7,4.4,0,6.1l-17.8,17.8C303.7,214.3,302.6,214.7,301.5,214.7z"/>
		<path class="st109" d="M319.4,286.1c-1.1,0-2.2-0.4-3.1-1.3L298.5,267c-1.7-1.7-1.7-4.4,0-6.1c1.7-1.7,4.4-1.7,6.1,0l17.8,17.8
			c1.7,1.7,1.7,4.4,0,6.1C321.6,285.7,320.5,286.1,319.4,286.1z"/>
	</g>
	<g>
		<rect x="-0.3" y="345.6" class="st21" width="441" height="204.7"/>
		<path class="st3" d="M115.5,366.9c0,1.9-0.3,3.7-1,5.4s-1.6,3.1-2.8,4.3c-1.5,1.5-3.3,2.6-5.3,3.4s-4.6,1.1-7.7,1.1h-4.9v16.3H88
			v-43.6h11c2.6,0,4.8,0.2,6.6,0.6s3.4,1.1,4.8,2.1c1.6,1.1,2.9,2.5,3.8,4.2S115.5,364.5,115.5,366.9z M109.5,367.1
			c0-1.5-0.3-2.8-0.8-3.9s-1.3-2-2.4-2.7c-0.9-0.6-2-1-3.2-1.3s-2.7-0.4-4.6-0.4h-4.8v17.4h4c2.3,0,4.2-0.2,5.7-0.6s2.6-1.1,3.6-2
			c0.9-0.9,1.5-1.8,1.9-2.9S109.5,368.4,109.5,367.1z"/>
		<path class="st3" d="M143.4,397.4h-5.3l-9.7-12.1h-4.6v12.1h-4.1v-30.5h7.9c1.8,0,3.2,0.1,4.4,0.3c1.2,0.2,2.3,0.6,3.4,1.3
			c1.1,0.7,1.9,1.6,2.5,2.6c0.6,1.1,0.9,2.4,0.9,4c0,2.2-0.6,4.1-1.7,5.6s-2.7,2.6-4.6,3.3L143.4,397.4z M134.6,375.4
			c0-0.9-0.2-1.7-0.5-2.4c-0.3-0.7-0.8-1.3-1.5-1.7c-0.6-0.4-1.2-0.7-2-0.8c-0.8-0.2-1.7-0.2-2.9-0.2h-4v11.5h3.6
			c1.2,0,2.2-0.1,3.1-0.3s1.7-0.6,2.4-1.3c0.6-0.6,1-1.3,1.3-2.1C134.4,377.4,134.6,376.5,134.6,375.4z"/>
		<path class="st3" d="M167.4,370.4c1.2,1.3,2.1,3,2.7,5s1,4.2,1,6.8c0,2.5-0.3,4.7-0.9,6.7s-1.5,3.7-2.7,5
			c-1.2,1.4-2.7,2.5-4.4,3.1c-1.7,0.7-3.5,1-5.5,1c-2.1,0-3.9-0.3-5.6-1s-3.1-1.7-4.3-3.1c-1.2-1.4-2.1-3-2.7-5s-0.9-4.2-0.9-6.7
			c0-2.6,0.3-4.8,1-6.8c0.6-1.9,1.5-3.6,2.7-5c1.2-1.4,2.6-2.4,4.3-3.1c1.7-0.7,3.5-1.1,5.6-1.1c2.1,0,4,0.4,5.6,1.1
			S166.2,369,167.4,370.4z M166.8,382.1c0-2-0.2-3.8-0.7-5.4s-1.1-2.9-1.8-3.9c-0.8-1.1-1.8-1.8-2.9-2.4s-2.4-0.8-3.8-0.8
			c-1.5,0-2.8,0.3-3.9,0.8c-1.1,0.5-2.1,1.3-2.9,2.4c-0.8,1-1.4,2.3-1.9,3.9c-0.4,1.6-0.6,3.3-0.6,5.3c0,4,0.8,7.1,2.5,9.2
			c1.7,2.1,3.9,3.2,6.8,3.2s5.1-1.1,6.8-3.2C166,389.2,166.8,386.1,166.8,382.1z"/>
		<path class="st3" d="M201.7,397.4h-4.1v-26.3l-8,17.9h-2.5l-7.9-17.9v26.3h-3.8v-30.5h5.5l7.6,17l7.4-17h5.6V397.4z"/>
		<path class="st3" d="M229.4,370.4c1.2,1.3,2.1,3,2.7,5s1,4.2,1,6.8c0,2.5-0.3,4.7-0.9,6.7s-1.5,3.7-2.7,5
			c-1.2,1.4-2.7,2.5-4.4,3.1c-1.7,0.7-3.5,1-5.5,1c-2.1,0-3.9-0.3-5.6-1s-3.1-1.7-4.3-3.1c-1.2-1.4-2.1-3-2.7-5s-0.9-4.2-0.9-6.7
			c0-2.6,0.3-4.8,1-6.8c0.6-1.9,1.5-3.6,2.7-5c1.2-1.4,2.6-2.4,4.3-3.1c1.7-0.7,3.5-1.1,5.6-1.1c2.1,0,4,0.4,5.6,1.1
			S228.3,369,229.4,370.4z M228.9,382.1c0-2-0.2-3.8-0.7-5.4s-1.1-2.9-1.8-3.9c-0.8-1.1-1.8-1.8-2.9-2.4s-2.4-0.8-3.8-0.8
			c-1.5,0-2.8,0.3-3.9,0.8c-1.1,0.5-2.1,1.3-2.9,2.4c-0.8,1-1.4,2.3-1.9,3.9c-0.4,1.6-0.6,3.3-0.6,5.3c0,4,0.8,7.1,2.5,9.2
			c1.7,2.1,3.9,3.2,6.8,3.2s5.1-1.1,6.8-3.2C228.1,389.2,228.9,386.1,228.9,382.1z"/>
		<path class="st3" d="M259.7,366.8l-10.5,30.5h-4.4l-10.5-30.5h4.3l8.4,25.3l8.4-25.3H259.7z"/>
		<path class="st3" d="M273.3,397.4h-11.9v-3.1h3.9V370h-3.9v-3.1h11.9v3.1h-3.9v24.3h3.9V397.4z"/>
		<path class="st3" d="M302.4,382.1c0,2.8-0.6,5.3-1.7,7.5c-1.1,2.2-2.6,4-4.5,5.3c-1.5,1-3.1,1.6-4.7,1.9c-1.6,0.3-3.6,0.5-6.1,0.5
			h-7v-30.5h7c2.9,0,5.1,0.2,6.8,0.6c1.6,0.4,3,1,4.2,1.8c2,1.3,3.5,3,4.6,5.2C301.8,376.6,302.4,379.2,302.4,382.1z M298.1,382.1
			c0-2.4-0.4-4.4-1.2-6c-0.8-1.7-1.9-3-3.5-3.9c-1.1-0.7-2.2-1.1-3.5-1.4s-2.8-0.4-4.6-0.4h-3.1v23.6h3.1c1.8,0,3.4-0.1,4.7-0.4
			s2.6-0.8,3.7-1.6c1.4-1,2.5-2.2,3.2-3.8C297.8,386.4,298.1,384.5,298.1,382.1z"/>
		<path class="st3" d="M328.4,370.4c1.2,1.3,2.1,3,2.7,5s1,4.2,1,6.8c0,2.5-0.3,4.7-0.9,6.7s-1.5,3.7-2.7,5
			c-1.2,1.4-2.7,2.5-4.4,3.1c-1.7,0.7-3.5,1-5.5,1c-2.1,0-3.9-0.3-5.6-1s-3.1-1.7-4.3-3.1c-1.2-1.4-2.1-3-2.7-5s-0.9-4.2-0.9-6.7
			c0-2.6,0.3-4.8,1-6.8c0.6-1.9,1.5-3.6,2.7-5c1.2-1.4,2.6-2.4,4.3-3.1c1.7-0.7,3.5-1.1,5.6-1.1c2.1,0,4,0.4,5.6,1.1
			S327.2,369,328.4,370.4z M327.8,382.1c0-2-0.2-3.8-0.7-5.4s-1.1-2.9-1.8-3.9c-0.8-1.1-1.8-1.8-2.9-2.4s-2.4-0.8-3.8-0.8
			c-1.5,0-2.8,0.3-3.9,0.8c-1.1,0.5-2.1,1.3-2.9,2.4c-0.8,1-1.4,2.3-1.9,3.9c-0.4,1.6-0.6,3.3-0.6,5.3c0,4,0.8,7.1,2.5,9.2
			c1.7,2.1,3.9,3.2,6.8,3.2s5.1-1.1,6.8-3.2C327,389.2,327.8,386.1,327.8,382.1z"/>
		<path class="st3" d="M345,397.9c-2.2,0-4.1-0.2-5.7-0.7c-1.6-0.5-3-1-4.4-1.7v-5.1h0.3c1.3,1.3,2.9,2.2,4.6,2.9s3.3,1,4.9,1
			c2.2,0,3.9-0.5,5.1-1.4s1.7-2.2,1.7-3.7c0-1.2-0.3-2.2-0.9-3s-1.6-1.3-2.9-1.7c-0.9-0.3-1.8-0.5-2.6-0.7s-1.8-0.4-2.9-0.7
			c-1.1-0.3-2-0.6-2.8-1s-1.6-1-2.2-1.7c-0.6-0.7-1.1-1.5-1.5-2.4c-0.3-0.9-0.5-2-0.5-3.1c0-2.5,1-4.5,2.9-6.2
			c1.9-1.7,4.4-2.5,7.4-2.5c1.7,0,3.3,0.2,4.9,0.5c1.5,0.3,2.9,0.8,4.2,1.5v4.9h-0.3c-1-0.9-2.2-1.7-3.7-2.3s-3.1-1-4.8-1
			c-1.9,0-3.4,0.4-4.6,1.3c-1.2,0.9-1.7,2-1.7,3.5c0,1.3,0.3,2.3,1,3.1s1.7,1.3,3,1.7c0.9,0.2,1.9,0.5,3.2,0.8
			c1.2,0.3,2.3,0.6,3.1,0.8c2.1,0.6,3.6,1.6,4.6,2.9s1.5,2.9,1.5,4.8c0,1.2-0.2,2.4-0.7,3.5s-1.2,2.1-2,3c-1,0.9-2.1,1.6-3.3,2.1
			S346.9,397.9,345,397.9z"/>
		<path class="st3" d="M140.2,438.9h-20.3v12.3h19.5v5.2h-19.5v21h-5.8v-43.6h26.1V438.9z"/>
		<path class="st3" d="M140.8,477.4l10.3-30.5h5l10.3,30.5h-4.3l-2.8-8.5h-11.7l-2.8,8.5H140.8z M158.2,465.4l-4.7-14.4l-4.7,14.4
			H158.2z"/>
		<path class="st3" d="M187,477.4h-17.7v-30.5h4.1v26.9H187V477.4z"/>
		<path class="st3" d="M194,477.4v-26.9h-10.3v-3.6h24.6v3.6H198v26.9H194z"/>
		<path class="st3" d="M205.7,477.4l10.3-30.5h5l10.3,30.5H227l-2.8-8.5h-11.7l-2.8,8.5H205.7z M223.1,465.4l-4.7-14.4l-4.7,14.4
			H223.1z"/>
		<path class="st3" d="M256,477.4h-4.6L238,451v26.3h-3.8v-30.5h5.8l12.3,24.2v-24.2h3.8V477.4z"/>
		<path class="st3" d="M269.4,477.4v-26.9h-10.3v-3.6h24.6v3.6h-10.3v26.9H269.4z"/>
		<path class="st3" d="M286.8,477.4v-30.5h19.1v3.6h-15v8.4h14v3.6h-14v11.3h15v3.6H286.8z"/>
		<path class="st3" d="M318.8,477.9c-2.2,0-4.1-0.2-5.7-0.7c-1.6-0.5-3-1-4.4-1.7v-5.1h0.3c1.3,1.3,2.9,2.2,4.6,2.9s3.3,1,4.9,1
			c2.2,0,3.9-0.5,5.1-1.4s1.7-2.2,1.7-3.7c0-1.2-0.3-2.2-0.9-3s-1.6-1.3-2.9-1.7c-0.9-0.3-1.8-0.5-2.6-0.7s-1.8-0.4-2.9-0.7
			c-1.1-0.3-2-0.6-2.8-1s-1.6-1-2.2-1.7c-0.6-0.7-1.1-1.5-1.5-2.4c-0.3-0.9-0.5-2-0.5-3.1c0-2.5,1-4.5,2.9-6.2
			c1.9-1.7,4.4-2.5,7.4-2.5c1.7,0,3.3,0.2,4.9,0.5c1.5,0.3,2.9,0.8,4.2,1.5v4.9h-0.3c-1-0.9-2.2-1.7-3.7-2.3s-3.1-1-4.8-1
			c-1.9,0-3.4,0.4-4.6,1.3c-1.2,0.9-1.7,2-1.7,3.5c0,1.3,0.3,2.3,1,3.1s1.7,1.3,3,1.7c0.9,0.2,1.9,0.5,3.2,0.8
			c1.2,0.3,2.3,0.6,3.1,0.8c2.1,0.6,3.6,1.6,4.6,2.9s1.5,2.9,1.5,4.8c0,1.2-0.2,2.4-0.7,3.5s-1.2,2.1-2,3c-1,0.9-2.1,1.6-3.3,2.1
			S320.7,477.9,318.8,477.9z"/>
	</g>
	<path class="st21" d="M381.3,512.2H59.1c-32.7,0-59.4-26.7-59.4-59.4v-393c0-32.7,26.7-59.4,59.4-59.4h322.2
		c32.7,0,59.4,26.7,59.4,59.4v393C440.7,485.4,413.9,512.2,381.3,512.2z"/>
</g>
</svg>
