<?xml version="1.0" encoding="utf-8"?>
<!-- Generator: Adobe Illustrator 21.0.0, SVG Export Plug-In . SVG Version: 6.00 Build 0)  -->
<svg version="1.1" id="Capa_1" xmlns="http://www.w3.org/2000/svg" xmlns:xlink="http://www.w3.org/1999/xlink" x="0px" y="0px"
	 viewBox="0 0 441 516.6" style="enable-background:new 0 0 441 516.6;" xml:space="preserve">
<style type="text/css">
	.st0{fill:#90DFAA;}
	.st1{fill:#76B285;}
	.st2{fill:#324A5E;}
	.st3{fill:#FFFFFF;}
	.st4{fill:#E6E9EE;}
	.st5{fill:#FF7058;}
	.st6{fill:#54C0EB;}
	.st7{fill:#A952A5;}
	.st8{fill:#460C44;}
	.st9{fill:#FFDA79;}
	.st10{fill:#FFD155;}
	.st11{fill:#36495E;}
	.st12{fill:#6A82A1;}
	.st13{fill:#2C3E50;}
	.st14{fill:#FF7F4F;}
	.st15{fill:#D35933;}
	.st16{fill:#386895;}
	.st17{fill:#273B7A;}
	.st18{fill:#121149;}
	.st19{fill:#38C6D9;}
	.st20{fill:#02B2B2;}
	.st21{fill:none;}
	.st22{fill:#FEE187;}
	.st23{fill:#FFC61B;}
	.st24{fill:#B54324;}
	.st25{fill:#6D0E64;}
	.st26{fill:#370732;}
	.st27{fill:#CFDBE6;}
	.st28{fill:#F9B54C;}
	.st29{fill:#F4A200;}
	.st30{fill:#4CDBC4;}
	.st31{fill:#05BEA6;}
	.st32{fill:#FF8E31;}
	.st33{fill:#ED7425;}
	.st34{fill:#5D6D7E;}
	.st35{fill:#34495E;}
	.st36{fill:#5E7D9B;}
	.st37{fill:#0684BA;}
	.st38{fill:#283A4D;}
	.st39{fill:#0578AB;}
	.st40{fill:#E5E9EC;}
	.st41{fill:#29ABE2;}
	.st42{fill:#D9E021;}
	.st43{fill:#BCBC1E;}
	.st44{fill:#FF1D25;}
	.st45{fill:#2B3B4E;}
	.st46{fill:#E6E6E6;}
	.st47{fill:#FFD300;}
	.st48{fill:#FC6F58;}
	.st49{fill:#F1543F;}
	.st50{fill:#FFD15D;}
	.st51{fill:#67D6A4;}
	.st52{fill:#018C4D;}
	.st53{fill:#D4145A;}
	.st54{fill:#9E005D;}
	.st55{fill:#39B54A;}
	.st56{fill:#0575A5;}
	.st57{fill:#025E90;}
	.st58{fill:#C1D354;}
	.st59{fill:#71CC8D;}
	.st60{fill:url(#SVGID_1_);}
	.st61{opacity:0.15;}
	.st62{clip-path:url(#SVGID_3_);}
	.st63{fill:#4D4D4D;}
	.st64{fill:#B60C1B;}
	.st65{fill:#8CC63F;}
	.st66{fill:#648C2C;}
	.st67{fill:#9B4C00;}
	.st68{fill:#6D3802;}
	.st69{fill:#EAA22F;}
	.st70{fill:#FF5419;}
	.st71{fill:#C92F00;}
	.st72{fill:#FFEDB5;}
	.st73{fill:#B2760B;}
	.st74{fill:#B82033;}
	.st75{fill:#B98A90;}
	.st76{fill:#663434;}
	.st77{fill:#009245;}
	.st78{fill:#FBB03B;}
	.st79{fill:#F7931E;}
	.st80{fill:#ED1C24;}
	.st81{fill:#AF1924;}
	.st82{fill:#CCCCCC;}
	.st83{fill:#B3B3B3;}
	.st84{fill:#6A6E77;}
	.st85{fill:#D0223A;}
	.st86{fill:#008645;}
	.st87{fill:#FF7BAC;}
	.st88{fill:#CE6E95;}
	.st89{fill:#0071BC;}
	.st90{fill:#EA4949;}
	.st91{fill:#B54040;}
	.st92{fill:#EDBF00;}
	.st93{fill:#E8CA4B;}
	.st94{fill:#CE8505;}
	.st95{fill:#EA9C00;}
	.st96{fill:#297358;}
	.st97{fill:#4ABC96;}
	.st98{fill:#3CA57F;}
	.st99{fill:#369975;}
	.st100{fill:#CC013A;}
	.st101{clip-path:url(#SVGID_5_);}
	.st102{fill:#161616;}
	.st103{fill:url(#SVGID_6_);}
	.st104{clip-path:url(#SVGID_8_);}
	.st105{fill:#0F0F0F;}
	.st106{opacity:0.5;fill:#FFFFFF;}
	.st107{fill:#191919;}
	.st108{fill:#232323;}
	.st109{fill:#2D2D2D;}
	.st110{opacity:0.6;fill:url(#SVGID_9_);}
	.st111{opacity:0.5;fill:url(#SVGID_10_);}
	.st112{fill:#808080;}
	.st113{fill:#2E3192;}
	.st114{fill:#1B1464;}
	.st115{fill:#006837;}
</style>
<g>
	<g>
		<circle class="st87" cx="218.6" cy="183.8" r="160.9"/>
		<path class="st88" d="M265.2,337.9c50.2-15.2,90-54.2,106.3-103.9L237.3,102.9c-49.7,16.3,33,101.5-81.5,125.3L265.2,337.9z"/>
		<g>
			
				<ellipse transform="matrix(1.465206e-02 -0.9999 0.9999 1.465206e-02 88.476 350.237)" class="st50" cx="221.9" cy="130.2" rx="31.4" ry="31.4"/>
			<path class="st28" d="M222.4,98.9c-0.1,0-0.1,0-0.2,0l-0.9,62.7c0.1,0,0.1,0,0.2,0c17.3,0.3,31.6-13.6,31.8-30.9
				C253.5,113.4,239.7,99.1,222.4,98.9z"/>
			<path class="st41" d="M155.8,228.2c0.5-35.7,29.9-64.2,65.6-63.7c35.7,0.5,64.2,29.9,63.7,65.6L155.8,228.2z"/>
			<path class="st89" d="M221.4,164.5c-0.1,0-0.1,0-0.2,0l-0.9,64.7l64.8,0.9C285.7,194.4,257.2,165,221.4,164.5z"/>
		</g>
		<path class="st82" d="M250.9,214.9h-15c-1.6,0-3-1.4-3-3v-15c0-1.7,1.4-3,3-3h15c1.7,0,3,1.3,3,3v15
			C253.9,213.5,252.6,214.9,250.9,214.9z"/>
	</g>
	<g>
		<rect x="-0.3" y="345.6" class="st21" width="441" height="204.7"/>
		<path class="st3" d="M125.4,406l17.2-50.9h8.3L168,406h-7.1l-4.6-14.2h-19.4l-4.6,14.2H125.4z M154.4,386l-7.9-24l-7.8,24H154.4z"
			/>
		<path class="st3" d="M197.1,370.4L184.9,406h-5.1l-12.3-35.6h5.1l9.9,29.6l9.9-29.6H197.1z"/>
		<path class="st3" d="M195.4,406l12-35.6h5.8l12,35.6h-5l-3.2-10h-13.6l-3.2,10H195.4z M215.7,392l-5.5-16.8l-5.5,16.8H215.7z"/>
		<path class="st3" d="M254.1,406h-5.3L233,375.3V406h-4.4v-35.6h6.7l14.3,28.2v-28.2h4.4V406z"/>
		<path class="st3" d="M275.2,406.7c-2.3,0-4.5-0.4-6.4-1.2s-3.6-1.9-5.1-3.5c-1.4-1.5-2.5-3.5-3.3-5.8c-0.8-2.3-1.2-5-1.2-8
			c0-3,0.4-5.6,1.1-7.8c0.8-2.2,1.9-4.1,3.3-5.8c1.4-1.6,3.1-2.8,5-3.6c1.9-0.8,4.1-1.3,6.5-1.3c1.2,0,2.3,0.1,3.4,0.3
			c1,0.2,2,0.4,2.9,0.7c0.8,0.2,1.6,0.5,2.4,0.9c0.8,0.4,1.6,0.8,2.4,1.2v5.7h-0.4c-0.4-0.4-0.9-0.8-1.6-1.4
			c-0.7-0.5-1.5-1.1-2.4-1.6c-0.9-0.5-1.9-0.9-3-1.2c-1.1-0.3-2.3-0.5-3.7-0.5c-1.5,0-3,0.3-4.3,0.9s-2.5,1.5-3.6,2.8
			c-1,1.2-1.8,2.7-2.3,4.6c-0.6,1.8-0.8,3.9-0.8,6.2c0,2.4,0.3,4.5,0.9,6.3c0.6,1.8,1.4,3.3,2.4,4.5c1,1.2,2.2,2.1,3.5,2.7
			c1.3,0.6,2.8,0.9,4.3,0.9c1.4,0,2.6-0.2,3.8-0.5c1.2-0.3,2.2-0.8,3.1-1.3c0.9-0.5,1.6-1,2.3-1.5c0.6-0.5,1.1-1,1.5-1.3h0.4v5.6
			c-0.8,0.4-1.5,0.7-2.2,1.1c-0.7,0.3-1.5,0.7-2.5,1c-1,0.3-2,0.6-2.9,0.8C277.8,406.6,276.7,406.7,275.2,406.7z"/>
		<path class="st3" d="M290.7,406v-35.6H313v4.2h-17.5v9.8h16.3v4.2h-16.3v13.2H313v4.2H290.7z"/>
		<path class="st3" d="M8.8,486v-35.6h22.3v4.2H13.6v9.8h16.3v4.2H13.6v13.2h17.5v4.2H8.8z"/>
		<path class="st3" d="M61.8,486h-5.3l-15.7-30.7V486h-4.4v-35.6h6.7l14.3,28.2v-28.2h4.4V486z"/>
		<path class="st3" d="M77.4,486v-31.4h-12v-4.2h28.7v4.2h-12V486H77.4z"/>
		<path class="st3" d="M125.2,486h-6.1l-11.3-14.2h-5.4V486h-4.7v-35.6h9.2c2,0,3.8,0.1,5.1,0.3c1.4,0.2,2.7,0.7,3.9,1.6
			c1.2,0.8,2.2,1.8,3,3.1c0.7,1.3,1.1,2.8,1.1,4.7c0,2.6-0.7,4.8-2,6.6c-1.3,1.8-3.1,3.1-5.4,3.9L125.2,486z M115,460.4
			c0-1-0.2-2-0.6-2.8c-0.4-0.8-0.9-1.5-1.7-2c-0.7-0.4-1.5-0.8-2.3-0.9c-0.9-0.2-2-0.3-3.3-0.3h-4.7v13.4h4.2c1.4,0,2.6-0.1,3.7-0.4
			s2-0.7,2.8-1.5c0.7-0.7,1.2-1.5,1.5-2.4C114.8,462.7,115,461.7,115,460.4z"/>
		<path class="st3" d="M128.1,486v-35.6h22.3v4.2h-17.5v9.8h16.3v4.2h-16.3v13.2h17.5v4.2H128.1z"/>
		<path class="st3" d="M181.4,450.4L169.1,486H164l-12.3-35.6h5.1l9.9,29.6l9.9-29.6H181.4z"/>
		<path class="st3" d="M197.2,486h-13.8v-3.6h4.5V454h-4.5v-3.6h13.8v3.6h-4.5v28.4h4.5V486z"/>
		<path class="st3" d="M213,486.7c-2.6,0-4.8-0.3-6.6-0.8s-3.5-1.2-5.1-2V478h0.3c1.6,1.5,3.3,2.6,5.3,3.4c2,0.8,3.9,1.2,5.7,1.2
			c2.6,0,4.6-0.5,5.9-1.6s2-2.5,2-4.3c0-1.4-0.4-2.6-1.1-3.5s-1.8-1.6-3.3-2c-1.1-0.3-2.1-0.6-3-0.8s-2-0.5-3.4-0.8
			c-1.2-0.3-2.3-0.7-3.3-1.2c-1-0.5-1.8-1.1-2.6-1.9c-0.7-0.8-1.3-1.7-1.7-2.8c-0.4-1.1-0.6-2.3-0.6-3.7c0-2.9,1.1-5.3,3.4-7.3
			c2.3-2,5.1-2.9,8.6-2.9c2,0,3.9,0.2,5.7,0.6c1.8,0.4,3.4,1,4.9,1.7v5.7h-0.4c-1.1-1-2.6-1.9-4.4-2.7c-1.8-0.8-3.6-1.2-5.6-1.2
			c-2.2,0-4,0.5-5.3,1.5c-1.4,1-2,2.4-2,4.1c0,1.5,0.4,2.7,1.2,3.6s2,1.5,3.5,2c1,0.3,2.2,0.6,3.7,0.9c1.5,0.3,2.7,0.7,3.6,0.9
			c2.5,0.8,4.3,1.9,5.4,3.4c1.1,1.5,1.7,3.4,1.7,5.6c0,1.4-0.3,2.8-0.8,4.1s-1.4,2.5-2.4,3.4c-1.1,1-2.4,1.8-3.9,2.4
			S215.2,486.7,213,486.7z"/>
		<path class="st3" d="M238.7,486v-31.4h-12v-4.2h28.7v4.2h-12V486H238.7z"/>
		<path class="st3" d="M252.4,486l12-35.6h5.8l12,35.6h-5l-3.2-10h-13.6l-3.2,10H252.4z M272.7,472l-5.5-16.8l-5.5,16.8H272.7z"/>
		<path class="st3" d="M313.7,468.2c0,3.3-0.7,6.2-2,8.8c-1.3,2.6-3.1,4.7-5.3,6.1c-1.8,1.1-3.6,1.9-5.5,2.3
			c-1.9,0.4-4.2,0.6-7.1,0.6h-8.2v-35.6h8.1c3.3,0,6,0.3,7.9,0.8c1.9,0.5,3.5,1.2,4.9,2.1c2.3,1.5,4.1,3.5,5.3,6
			C313.1,461.8,313.7,464.8,313.7,468.2z M308.8,468.2c0-2.7-0.5-5.1-1.4-7c-0.9-1.9-2.3-3.4-4-4.5c-1.3-0.8-2.6-1.3-4-1.7
			s-3.2-0.5-5.4-0.5h-3.6V482h3.6c2.1,0,3.9-0.2,5.5-0.5c1.6-0.3,3-1,4.3-1.9c1.6-1.1,2.9-2.6,3.7-4.5
			C308.4,473.3,308.8,470.9,308.8,468.2z"/>
		<path class="st3" d="M344,454.5c1.4,1.6,2.4,3.5,3.2,5.8c0.8,2.3,1.1,5,1.1,7.9c0,2.9-0.4,5.5-1.1,7.8c-0.7,2.3-1.8,4.3-3.2,5.9
			c-1.5,1.7-3.1,2.9-5.1,3.7c-1.9,0.8-4.1,1.2-6.4,1.2c-2.4,0-4.6-0.4-6.5-1.2s-3.6-2-5-3.6c-1.4-1.6-2.4-3.5-3.2-5.8
			s-1.1-4.9-1.1-7.8c0-3,0.4-5.6,1.1-7.9c0.7-2.3,1.8-4.2,3.2-5.8c1.4-1.6,3-2.8,5-3.6c1.9-0.8,4.1-1.2,6.5-1.2
			c2.4,0,4.6,0.4,6.6,1.3C341.1,451.8,342.7,453,344,454.5z M343.4,468.2c0-2.4-0.3-4.5-0.8-6.3c-0.5-1.8-1.2-3.3-2.2-4.5
			c-0.9-1.2-2.1-2.1-3.4-2.8s-2.8-0.9-4.5-0.9c-1.7,0-3.2,0.3-4.5,0.9c-1.3,0.6-2.4,1.5-3.4,2.8c-0.9,1.2-1.7,2.7-2.2,4.6
			c-0.5,1.8-0.8,3.9-0.8,6.2c0,4.7,1,8.3,2.9,10.7c2,2.5,4.6,3.7,7.9,3.7c3.3,0,5.9-1.2,7.9-3.7
			C342.4,476.5,343.4,472.9,343.4,468.2z"/>
		<path class="st3" d="M381.1,486H375l-11.3-14.2h-5.4V486h-4.7v-35.6h9.2c2,0,3.8,0.1,5.1,0.3c1.4,0.2,2.7,0.7,3.9,1.6
			c1.2,0.8,2.2,1.8,3,3.1c0.7,1.3,1.1,2.8,1.1,4.7c0,2.6-0.7,4.8-2,6.6c-1.3,1.8-3.1,3.1-5.4,3.9L381.1,486z M370.9,460.4
			c0-1-0.2-2-0.6-2.8c-0.4-0.8-0.9-1.5-1.7-2c-0.7-0.4-1.5-0.8-2.3-0.9c-0.9-0.2-2-0.3-3.3-0.3h-4.7v13.4h4.2c1.4,0,2.6-0.1,3.7-0.4
			s2-0.7,2.8-1.5c0.7-0.7,1.2-1.5,1.5-2.4C370.7,462.7,370.9,461.7,370.9,460.4z"/>
		<path class="st3" d="M383.9,486v-35.6h22.3v4.2h-17.5v9.8H405v4.2h-16.3v13.2h17.5v4.2H383.9z"/>
		<path class="st3" d="M421.3,486.7c-2.6,0-4.8-0.3-6.6-0.8s-3.5-1.2-5.1-2V478h0.3c1.6,1.5,3.3,2.6,5.3,3.4c2,0.8,3.9,1.2,5.7,1.2
			c2.6,0,4.6-0.5,5.9-1.6s2-2.5,2-4.3c0-1.4-0.4-2.6-1.1-3.5s-1.8-1.6-3.3-2c-1.1-0.3-2.1-0.6-3-0.8s-2-0.5-3.4-0.8
			c-1.2-0.3-2.3-0.7-3.3-1.2c-1-0.5-1.8-1.1-2.6-1.9c-0.7-0.8-1.3-1.7-1.7-2.8c-0.4-1.1-0.6-2.3-0.6-3.7c0-2.9,1.1-5.3,3.4-7.3
			c2.3-2,5.1-2.9,8.6-2.9c2,0,3.9,0.2,5.7,0.6c1.8,0.4,3.4,1,4.9,1.7v5.7h-0.4c-1.1-1-2.6-1.9-4.4-2.7c-1.8-0.8-3.6-1.2-5.6-1.2
			c-2.2,0-4,0.5-5.3,1.5c-1.4,1-2,2.4-2,4.1c0,1.5,0.4,2.7,1.2,3.6s2,1.5,3.5,2c1,0.3,2.2,0.6,3.7,0.9c1.5,0.3,2.7,0.7,3.6,0.9
			c2.5,0.8,4.3,1.9,5.4,3.4c1.1,1.5,1.7,3.4,1.7,5.6c0,1.4-0.3,2.8-0.8,4.1s-1.4,2.5-2.4,3.4c-1.1,1-2.4,1.8-3.9,2.4
			S423.5,486.7,421.3,486.7z"/>
	</g>
	<path class="st21" d="M381.3,512.2H59.1c-32.7,0-59.4-26.7-59.4-59.4v-393c0-32.7,26.7-59.4,59.4-59.4h322.2
		c32.7,0,59.4,26.7,59.4,59.4v393C440.7,485.4,413.9,512.2,381.3,512.2z"/>
</g>
<g>
	<path class="st112" d="M301.8,207l-14.4-14.4c-2.2-2.2-5.7-2.2-7.8,0l-53.1,53.1L208.7,228c-2.2-2.2-5.7-2.2-7.8,0l-14.4,14.4
		c-2.2,2.2-2.2,5.7,0,7.8l35.6,35.6c1.2,1.2,2.8,1.7,4.4,1.6c1.6,0.1,3.2-0.4,4.4-1.6l70.9-70.9C304,212.7,304,209.2,301.8,207z"/>
	<path class="st65" d="M293,205.4L278.6,191c-2.2-2.2-5.7-2.2-7.8,0l-53.1,53.1l-17.8-17.8c-2.2-2.2-5.7-2.2-7.8,0l-14.4,14.4
		c-2.2,2.2-2.2,5.7,0,7.8l35.6,35.6c1.2,1.2,2.8,1.7,4.4,1.6c1.6,0.1,3.2-0.4,4.4-1.6l70.9-70.9C295.1,211,295.1,207.5,293,205.4z"
		/>
</g>
</svg>
