<?xml version="1.0" encoding="utf-8"?>
<!-- Generator: Adobe Illustrator 21.0.0, SVG Export Plug-In . SVG Version: 6.00 Build 0)  -->
<svg version="1.1" id="Capa_1" xmlns="http://www.w3.org/2000/svg" xmlns:xlink="http://www.w3.org/1999/xlink" x="0px" y="0px"
	 viewBox="0 0 441 512" style="enable-background:new 0 0 441 512;" xml:space="preserve">
<style type="text/css">
	.st0{fill:#FF7F4F;}
	.st1{fill:#D35933;}
	.st2{fill:#386895;}
	.st3{fill:#273B7A;}
	.st4{fill:#121149;}
	.st5{fill:#38C6D9;}
	.st6{fill:#02B2B2;}
	.st7{fill:none;}
	.st8{fill:#FFFFFF;}
	.st9{fill:#6D0E64;}
	.st10{fill:#370732;}
	.st11{fill:#CFDBE6;}
	.st12{fill:#F9B54C;}
	.st13{fill:#F4A200;}
	.st14{fill:#4CDBC4;}
	.st15{fill:#05BEA6;}
	.st16{fill:#FF8E31;}
	.st17{fill:#ED7425;}
	.st18{fill:#5D6D7E;}
	.st19{fill:#34495E;}
	.st20{fill:#5E7D9B;}
	.st21{fill:#0684BA;}
	.st22{fill:#283A4D;}
	.st23{fill:#0578AB;}
	.st24{fill:#E5E9EC;}
	.st25{fill:#29ABE2;}
	.st26{fill:#324A5E;}
	.st27{fill:#2B3B4E;}
	.st28{fill:#E6E6E6;}
	.st29{fill:#FFD300;}
	.st30{fill:#FC6F58;}
	.st31{fill:#F1543F;}
	.st32{fill:#FFD15D;}
	.st33{fill:#67D6A4;}
	.st34{fill:#018C4D;}
	.st35{fill:#D4145A;}
	.st36{fill:#9E005D;}
	.st37{fill:#FFDA79;}
	.st38{fill:#FFD155;}
	.st39{fill:#36495E;}
	.st40{fill:#6A82A1;}
	.st41{fill:#2C3E50;}
	.st42{fill:#39B54A;}
	.st43{fill:#0575A5;}
	.st44{fill:#025E90;}
	.st45{fill:#C1D354;}
	.st46{fill:#71CC8D;}
	.st47{fill:url(#SVGID_1_);}
	.st48{opacity:0.15;}
	.st49{clip-path:url(#SVGID_3_);}
	.st50{fill:#4D4D4D;}
	.st51{fill:#B60C1B;}
</style>
<g>
	<g>
		
			<ellipse transform="matrix(1.465206e-02 -0.9999 0.9999 1.465206e-02 34.3711 402.5684)" class="st26" cx="221.4" cy="183.8" rx="163.3" ry="163.3"/>
		<path class="st27" d="M231.8,346.9c64.9-4,119.8-46.2,142.2-104.5l-98.6-101.8l-28.6,27.3L196,115.6l-23,22.1L154.8,156l36,37.6
			l-76.4,32.4L231.8,346.9z"/>
		<g>
			<g>
				
					<ellipse transform="matrix(1.465206e-02 -0.9999 0.9999 1.465206e-02 117.8077 320.7153)" class="st28" cx="221.6" cy="100.6" rx="12.2" ry="12.2"/>
				<path class="st28" d="M226,125.4l3,0c1,0,1.8,0.6,2.2,1.4c6,2.4,7.3,9.8,7.5,14.4l6.6,0.1c-2.7-13.3-10-24.3-20.7-28l-3.1,3
					l-2.9-3.1c0,0,0,0,0,0c-1.5,0.3-17.4,7.1-21.1,27.4l9.7,0.1c0.5-2.1,1.1-3.9,1.7-5.4l-0.1,5.4l26.1,0.4c0.1-3-0.9-5.9-1.1-6.4
					c0,0.1-1.5-3.6-4-4.6c-0.3,0.1-0.5,0.1-0.8,0.1l-3,0c-1.4,0-2.5-1.1-2.4-2.5C223.5,126.5,224.7,125.4,226,125.4z M224.2,136.5
					l-3,4l-0.1,0l-2.9-4.1l3.2-19.6l0.1,0L224.2,136.5z"/>
				
					<rect x="218.2" y="116.6" transform="matrix(1.465206e-02 -0.9999 0.9999 1.465206e-02 72.6341 364.6948)" class="st28" width="6.3" height="57.8"/>
				<polygon class="st28" points="200.5,197.2 240.7,197.8 245.4,150.4 197.2,149.7 				"/>
			</g>
		</g>
		
			<ellipse transform="matrix(1.465206e-02 -0.9999 0.9999 1.465206e-02 37.1329 309.2052)" class="st29" cx="175.5" cy="135.8" rx="28.9" ry="28.9"/>
		<path class="st13" d="M175.9,106.9c-0.1,0-0.3,0-0.4,0l-0.8,57.8c0.1,0,0.3,0,0.4,0c16,0.2,29.1-12.5,29.3-28.5
			C204.6,120.2,191.8,107.1,175.9,106.9z"/>
		<path class="st30" d="M114.5,226.1c0.5-32.9,27.6-59.2,60.5-58.7c32.9,0.5,59.2,27.6,58.7,60.5L114.5,226.1z"/>
		<path class="st31" d="M175,167.4c-0.1,0-0.3,0-0.4,0l-0.9,59.6l60,0.9C234.2,194.9,207.9,167.9,175,167.4z"/>
		
			<ellipse transform="matrix(1.465206e-02 -0.9999 0.9999 1.465206e-02 90.4841 409.3498)" class="st32" cx="252.9" cy="158.8" rx="28.9" ry="28.9"/>
		<path class="st12" d="M253.4,129.9c-0.1,0-0.1,0-0.2,0l-0.8,57.8c0.1,0,0.1,0,0.2,0c16,0.2,29.1-12.5,29.3-28.5
			C282.1,143.2,269.3,130.1,253.4,129.9z"/>
		<path class="st33" d="M192,249.1c0.5-32.9,27.6-59.2,60.5-58.7s59.2,27.6,58.7,60.5L192,249.1z"/>
		<path class="st34" d="M252.5,190.4c-0.1,0-0.1,0-0.2,0l-0.9,59.6l59.8,0.9C311.7,217.9,285.4,190.9,252.5,190.4z"/>
	</g>
	<g>
		
			<rect x="170" y="210.4" transform="matrix(1.465206e-02 -0.9999 0.9999 1.465206e-02 -217.2359 643.3515)" class="st7" width="95.7" height="443.1"/>
		<path class="st8" d="M85.8,458.7l0.9-64.5l40.3,0.6l-0.1,7.6L95.2,402l-0.3,17.7l29.6,0.4l-0.1,7.6l-29.6-0.4l-0.4,23.9l31.7,0.5
			l-0.1,7.6L85.8,458.7z"/>
		<path class="st8" d="M166.9,414.7l-16.2,44.9l-6.5-0.1l-14.9-45.4l6.4,0.1l11.9,37.6l13-37.3L166.9,414.7z"/>
		<path class="st8" d="M170.6,459.9l0.7-45.1l28.2,0.4l-0.1,5.3l-22.2-0.3l-0.2,12.4l20.7,0.3l-0.1,5.3l-20.7-0.3l-0.2,16.8
			l22.2,0.3l-0.1,5.3L170.6,459.9z"/>
		<path class="st8" d="M237.7,460.9l-6.7-0.1l-19.4-39.2l-0.6,38.9l-5.6-0.1l0.7-45.1l8.5,0.1l17.6,36l0.5-35.7l5.6,0.1L237.7,460.9
			z"/>
		<path class="st8" d="M257.4,461.2l0.6-39.8l-15.2-0.2l0.1-5.3l36.3,0.5l-0.1,5.3l-15.2-0.2l-0.6,39.8L257.4,461.2z"/>
		<path class="st8" d="M314.1,422.1c1.7,2,3,4.5,3.9,7.4c0.9,2.9,1.3,6.3,1.3,10.1c-0.1,3.7-0.6,7-1.5,9.9c-1,2.9-2.4,5.4-4.1,7.4
			c-1.9,2.1-4,3.6-6.5,4.6c-2.5,1-5.2,1.4-8.1,1.4c-3,0-5.8-0.6-8.2-1.7c-2.4-1.1-4.5-2.6-6.2-4.7c-1.7-2-3-4.5-3.9-7.5
			c-0.9-2.9-1.3-6.3-1.2-10c0.1-3.8,0.6-7.1,1.6-10c1-2.9,2.4-5.3,4.1-7.3c1.8-2,3.9-3.5,6.4-4.5c2.5-1,5.2-1.5,8.3-1.4
			c3.1,0,5.8,0.6,8.3,1.7C310.4,418.6,312.5,420.1,314.1,422.1z M313.1,439.5c0-3-0.2-5.6-0.9-8c-0.6-2.3-1.5-4.2-2.6-5.8
			c-1.2-1.6-2.6-2.8-4.3-3.6c-1.7-0.8-3.6-1.2-5.7-1.3c-2.2,0-4.1,0.3-5.7,1.1c-1.6,0.7-3.1,1.9-4.4,3.5c-1.2,1.5-2.2,3.4-2.8,5.7
			c-0.7,2.3-1,4.9-1.1,7.9c-0.1,5.9,1.1,10.5,3.5,13.6c2.4,3.2,5.8,4.8,9.9,4.9c4.2,0.1,7.5-1.5,10.1-4.6
			C311.7,449.9,313,445.4,313.1,439.5z"/>
		<path class="st8" d="M338.1,463.2c-3.3,0-6.1-0.4-8.3-1.1c-2.3-0.7-4.4-1.6-6.4-2.6l0.1-7.5l0.4,0c2,1.9,4.2,3.4,6.7,4.4
			c2.5,1.1,4.9,1.6,7.2,1.6c3.3,0,5.8-0.6,7.5-2s2.6-3.2,2.6-5.4c0-1.8-0.4-3.3-1.3-4.4c-0.9-1.1-2.3-2-4.2-2.6
			c-1.4-0.4-2.7-0.8-3.8-1.1c-1.1-0.3-2.6-0.7-4.3-1.1c-1.5-0.4-2.9-1-4.2-1.6c-1.2-0.6-2.3-1.5-3.2-2.5c-0.9-1-1.6-2.2-2.1-3.5
			c-0.5-1.4-0.7-2.9-0.7-4.7c0.1-3.7,1.5-6.7,4.4-9.1c2.9-2.4,6.5-3.6,11-3.6c2.5,0,4.9,0.3,7.2,0.9c2.2,0.5,4.3,1.3,6.2,2.2
			l-0.1,7.2l-0.5,0c-1.4-1.3-3.2-2.5-5.5-3.5c-2.2-1-4.6-1.5-7-1.6c-2.8,0-5.1,0.6-6.8,1.9c-1.7,1.3-2.6,3-2.7,5.1
			c0,1.9,0.5,3.5,1.4,4.6c1,1.1,2.4,2,4.4,2.5c1.3,0.4,2.8,0.8,4.6,1.2c1.8,0.5,3.4,0.9,4.6,1.3c3.1,1,5.3,2.5,6.8,4.4
			c1.4,1.9,2.1,4.3,2,7.1c0,1.8-0.4,3.5-1.2,5.2c-0.7,1.7-1.8,3.1-3.1,4.3c-1.5,1.3-3.1,2.3-5,3S340.9,463.2,338.1,463.2z"/>
	</g>
	<path class="st7" d="M378.4,517.7l-323.7-4.7c-32.8-0.5-59.3-27.7-58.8-60.5L1.7,57.5C2.2,24.7,29.4-1.7,62.3-1.2L386,3.5
		C418.8,4,445.2,31.2,444.8,64L439,458.9C438.5,491.7,411.3,518.2,378.4,517.7z"/>
</g>
</svg>
