<?xml version="1.0" encoding="utf-8"?>
<!-- Generator: Adobe Illustrator 21.0.0, SVG Export Plug-In . SVG Version: 6.00 Build 0)  -->
<svg version="1.1" id="Capa_1" xmlns="http://www.w3.org/2000/svg" xmlns:xlink="http://www.w3.org/1999/xlink" x="0px" y="0px"
	 viewBox="0 0 441 516.6" style="enable-background:new 0 0 441 516.6;" xml:space="preserve">
<style type="text/css">
	.st0{fill:#90DFAA;}
	.st1{fill:#76B285;}
	.st2{fill:#324A5E;}
	.st3{fill:#FFFFFF;}
	.st4{fill:#E6E9EE;}
	.st5{fill:#FF7058;}
	.st6{fill:#54C0EB;}
	.st7{fill:#A952A5;}
	.st8{fill:#460C44;}
	.st9{fill:#FFDA79;}
	.st10{fill:#FFD155;}
	.st11{fill:#36495E;}
	.st12{fill:#6A82A1;}
	.st13{fill:#2C3E50;}
	.st14{fill:#FF7F4F;}
	.st15{fill:#D35933;}
	.st16{fill:#386895;}
	.st17{fill:#273B7A;}
	.st18{fill:#121149;}
	.st19{fill:#38C6D9;}
	.st20{fill:#02B2B2;}
	.st21{fill:none;}
	.st22{fill:#FEE187;}
	.st23{fill:#FFC61B;}
	.st24{fill:#B54324;}
	.st25{fill:#6D0E64;}
	.st26{fill:#370732;}
	.st27{fill:#CFDBE6;}
	.st28{fill:#F9B54C;}
	.st29{fill:#F4A200;}
	.st30{fill:#4CDBC4;}
	.st31{fill:#05BEA6;}
	.st32{fill:#FF8E31;}
	.st33{fill:#ED7425;}
	.st34{fill:#5D6D7E;}
	.st35{fill:#34495E;}
	.st36{fill:#5E7D9B;}
	.st37{fill:#0684BA;}
	.st38{fill:#283A4D;}
	.st39{fill:#0578AB;}
	.st40{fill:#E5E9EC;}
	.st41{fill:#29ABE2;}
	.st42{fill:#D9E021;}
	.st43{fill:#BCBC1E;}
	.st44{fill:#FF1D25;}
	.st45{fill:#2B3B4E;}
	.st46{fill:#E6E6E6;}
	.st47{fill:#FFD300;}
	.st48{fill:#FC6F58;}
	.st49{fill:#F1543F;}
	.st50{fill:#FFD15D;}
	.st51{fill:#67D6A4;}
	.st52{fill:#018C4D;}
	.st53{fill:#D4145A;}
	.st54{fill:#9E005D;}
	.st55{fill:#39B54A;}
	.st56{fill:#0575A5;}
	.st57{fill:#025E90;}
	.st58{fill:#C1D354;}
	.st59{fill:#71CC8D;}
	.st60{fill:url(#SVGID_1_);}
	.st61{opacity:0.15;}
	.st62{clip-path:url(#SVGID_3_);}
	.st63{fill:#4D4D4D;}
	.st64{fill:#B60C1B;}
	.st65{fill:#8CC63F;}
	.st66{fill:#648C2C;}
	.st67{fill:#9B4C00;}
	.st68{fill:#6D3802;}
	.st69{fill:#EAA22F;}
	.st70{fill:#FF5419;}
	.st71{fill:#C92F00;}
	.st72{fill:#FFEDB5;}
	.st73{fill:#B2760B;}
	.st74{fill:#B82033;}
	.st75{fill:#B98A90;}
	.st76{fill:#663434;}
	.st77{fill:#009245;}
	.st78{fill:#FBB03B;}
	.st79{fill:#F7931E;}
	.st80{fill:#ED1C24;}
	.st81{fill:#AF1924;}
	.st82{fill:#CCCCCC;}
	.st83{fill:#B3B3B3;}
	.st84{fill:#6A6E77;}
	.st85{fill:#D0223A;}
	.st86{fill:#008645;}
	.st87{fill:#FF7BAC;}
	.st88{fill:#CE6E95;}
	.st89{fill:#0071BC;}
	.st90{fill:#EA4949;}
	.st91{fill:#B54040;}
	.st92{fill:#EDBF00;}
	.st93{fill:#E8CA4B;}
	.st94{fill:#CE8505;}
	.st95{fill:#EA9C00;}
	.st96{fill:#297358;}
	.st97{fill:#4ABC96;}
	.st98{fill:#3CA57F;}
	.st99{fill:#369975;}
	.st100{fill:#CC013A;}
	.st101{clip-path:url(#SVGID_5_);}
	.st102{fill:#161616;}
	.st103{fill:url(#SVGID_6_);}
	.st104{clip-path:url(#SVGID_8_);}
	.st105{fill:#0F0F0F;}
	.st106{opacity:0.5;fill:#FFFFFF;}
	.st107{fill:#191919;}
	.st108{fill:#232323;}
	.st109{fill:#2D2D2D;}
	.st110{opacity:0.6;fill:url(#SVGID_9_);}
	.st111{opacity:0.5;fill:url(#SVGID_10_);}
	.st112{fill:#808080;}
	.st113{fill:#2E3192;}
	.st114{fill:#1B1464;}
	.st115{fill:#006837;}
</style>
<g>
	<g>
		<circle class="st113" cx="220.5" cy="183.5" r="160.7"/>
		<path class="st114" d="M185.1,260.6l-28.9,16.1l82.1,66.5c79.4-8.7,141.4-75.3,142.9-156.7l-99.6-83.4h-35.4l-36,3.6v82l-54-59.8
			l31.4,87.3l-4.5,2.6l22.3,22.3l-9.1,27.4L185.1,260.6z"/>
		<g>
			<path class="st46" d="M277.8,276.7H157c-4,0-7.2-3.2-7.2-7.2v-160c0-4,3.2-7.2,7.2-7.2h33.5c4,0,7.2,3.2,7.2,7.2v14.8h39.3v-14.8
				c0-4,3.2-7.2,7.2-7.2h33.5c4,0,7.2,3.2,7.2,7.2v160C285,273.5,281.8,276.7,277.8,276.7z"/>
			<path class="st83" d="M277.8,102.2h-33.5c-4,0-7.2,3.2-7.2,7.2v14.8h-19.6v152.4h60.4c4,0,7.2-3.2,7.2-7.2v-160
				C285,105.5,281.8,102.2,277.8,102.2z"/>
			<path class="st11" d="M244.3,138.8h-53.8c-4,0-7.2-3.2-7.2-7.2v-29c0-4,3.2-7.2,7.2-7.2h53.8c4,0,7.2,3.2,7.2,7.2v29
				C251.5,135.5,248.3,138.8,244.3,138.8z"/>
			<g>
				<path class="st12" d="M205.9,192.9h-23.2c-4,0-7.2-3.2-7.2-7.2v-23.2c0-4,3.2-7.2,7.2-7.2h23.2c4,0,7.2,3.2,7.2,7.2v23.2
					C213.1,189.6,209.9,192.9,205.9,192.9z"/>
				<path class="st12" d="M205.9,245h-23.2c-4,0-7.2-3.2-7.2-7.2v-23.2c0-4,3.2-7.2,7.2-7.2h23.2c4,0,7.2,3.2,7.2,7.2v23.2
					C213.1,241.8,209.9,245,205.9,245z"/>
			</g>
			<g>
				<path class="st13" d="M244.3,95.3h-26.9v43.5h26.9c4,0,7.2-3.2,7.2-7.2v-29C251.5,98.6,248.3,95.3,244.3,95.3z"/>
				<path class="st13" d="M252.1,181.3H226c-4,0-7.2-3.2-7.2-7.2s3.2-7.2,7.2-7.2h26.1c4,0,7.2,3.2,7.2,7.2S256.1,181.3,252.1,181.3
					z"/>
				<path class="st13" d="M252.1,233.4H226c-4,0-7.2-3.2-7.2-7.2c0-4,3.2-7.2,7.2-7.2h26.1c4,0,7.2,3.2,7.2,7.2
					C259.3,230.2,256.1,233.4,252.1,233.4z"/>
			</g>
		</g>
	</g>
	<g>
		<rect x="-0.3" y="345.6" class="st21" width="441" height="204.7"/>
		<path class="st3" d="M122.7,407.7l17.6-52.3h8.6l17.6,52.3h-7.3l-4.7-14.6h-20l-4.7,14.6H122.7z M152.5,387.2l-8.1-24.7l-8.1,24.7
			H152.5z"/>
		<path class="st3" d="M196.5,371.1l-12.6,36.6h-5.3L166,371.1h5.2l10.1,30.4l10.1-30.4H196.5z"/>
		<path class="st3" d="M194.7,407.7l12.4-36.6h6l12.4,36.6h-5.1l-3.3-10.2h-14l-3.3,10.2H194.7z M215.6,393.3l-5.7-17.3l-5.6,17.3
			H215.6z"/>
		<path class="st3" d="M255.1,407.7h-5.5l-16.2-31.6v31.6h-4.6v-36.6h6.9l14.7,29v-29h4.6V407.7z"/>
		<path class="st3" d="M276.8,408.4c-2.4,0-4.6-0.4-6.6-1.2s-3.7-2-5.2-3.6c-1.5-1.6-2.6-3.6-3.4-6s-1.2-5.1-1.2-8.2
			c0-3.1,0.4-5.7,1.2-8c0.8-2.3,1.9-4.3,3.4-6c1.5-1.6,3.2-2.9,5.2-3.8c2-0.9,4.2-1.3,6.7-1.3c1.2,0,2.4,0.1,3.5,0.3
			c1.1,0.2,2.1,0.4,3,0.7c0.8,0.2,1.6,0.6,2.4,0.9c0.8,0.4,1.6,0.8,2.4,1.2v5.9h-0.4c-0.4-0.4-1-0.9-1.6-1.4
			c-0.7-0.6-1.5-1.1-2.5-1.6c-0.9-0.5-2-0.9-3.1-1.3c-1.1-0.3-2.4-0.5-3.8-0.5c-1.6,0-3,0.3-4.4,1c-1.4,0.6-2.6,1.6-3.7,2.8
			c-1,1.2-1.8,2.8-2.4,4.7s-0.9,4-0.9,6.4c0,2.5,0.3,4.7,0.9,6.5c0.6,1.8,1.4,3.3,2.5,4.6c1,1.2,2.2,2.1,3.6,2.7s2.8,0.9,4.4,0.9
			c1.4,0,2.7-0.2,3.9-0.5c1.2-0.3,2.3-0.8,3.2-1.3c0.9-0.5,1.7-1,2.3-1.6c0.7-0.5,1.2-1,1.5-1.4h0.4v5.8c-0.8,0.4-1.6,0.7-2.3,1.1
			c-0.7,0.3-1.6,0.7-2.6,1c-1.1,0.3-2.1,0.6-3,0.8S278.3,408.4,276.8,408.4z"/>
		<path class="st3" d="M292.8,407.7v-36.6h22.9v4.3h-18v10h16.8v4.3h-16.8v13.6h18v4.3H292.8z"/>
		<path class="st3" d="M67.6,487.7v-36.6h22.9v4.3h-18v10h16.8v4.3H72.4v13.6h18v4.3H67.6z"/>
		<path class="st3" d="M122,487.7h-5.5l-16.2-31.6v31.6h-4.6v-36.6h6.9l14.7,29v-29h4.6V487.7z"/>
		<path class="st3" d="M138,487.7v-32.3h-12.3v-4.3h29.5v4.3h-12.3v32.3H138z"/>
		<path class="st3" d="M187.3,487.7H181l-11.6-14.6h-5.6v14.6h-4.9v-36.6h9.5c2.1,0,3.9,0.1,5.3,0.3s2.8,0.8,4,1.6
			c1.3,0.8,2.3,1.9,3,3.2c0.7,1.3,1.1,2.9,1.1,4.8c0,2.7-0.7,4.9-2,6.7c-1.4,1.8-3.2,3.1-5.6,4L187.3,487.7z M176.7,461.4
			c0-1.1-0.2-2-0.6-2.8c-0.4-0.8-1-1.5-1.7-2c-0.7-0.5-1.5-0.8-2.4-1c-0.9-0.2-2.1-0.3-3.4-0.3h-4.8v13.8h4.3c1.4,0,2.6-0.1,3.8-0.4
			s2.1-0.8,2.9-1.5c0.7-0.7,1.2-1.5,1.6-2.5C176.6,463.8,176.7,462.7,176.7,461.4z"/>
		<path class="st3" d="M190.2,487.7v-36.6h22.9v4.3h-18v10h16.8v4.3h-16.8v13.6h18v4.3H190.2z"/>
		<path class="st3" d="M245,451.1l-12.6,36.6h-5.3l-12.6-36.6h5.2l10.1,30.4l10.1-30.4H245z"/>
		<path class="st3" d="M261.3,487.7h-14.2V484h4.7v-29.2h-4.7v-3.7h14.2v3.7h-4.7V484h4.7V487.7z"/>
		<path class="st3" d="M277.5,488.4c-2.7,0-4.9-0.3-6.8-0.8c-1.9-0.5-3.6-1.2-5.3-2v-6.1h0.3c1.6,1.5,3.4,2.7,5.5,3.5
			c2,0.8,4,1.2,5.9,1.2c2.7,0,4.7-0.6,6.1-1.7s2.1-2.6,2.1-4.4c0-1.5-0.4-2.6-1.1-3.6c-0.7-0.9-1.9-1.6-3.4-2
			c-1.1-0.3-2.2-0.6-3.1-0.8c-0.9-0.2-2.1-0.5-3.5-0.9c-1.3-0.3-2.4-0.7-3.4-1.3c-1-0.5-1.9-1.2-2.7-2c-0.8-0.8-1.3-1.8-1.8-2.8
			c-0.4-1.1-0.6-2.3-0.6-3.8c0-3,1.2-5.5,3.5-7.5s5.3-3,8.9-3c2.1,0,4,0.2,5.8,0.6c1.8,0.4,3.5,1,5.1,1.7v5.8h-0.4
			c-1.2-1.1-2.7-2-4.5-2.8c-1.8-0.8-3.7-1.2-5.7-1.2c-2.3,0-4.1,0.5-5.5,1.6c-1.4,1.1-2.1,2.4-2.1,4.2c0,1.6,0.4,2.8,1.2,3.7
			s2,1.6,3.6,2c1,0.3,2.3,0.6,3.8,0.9c1.5,0.4,2.7,0.7,3.7,1c2.5,0.8,4.4,1.9,5.5,3.5c1.2,1.6,1.7,3.5,1.7,5.8
			c0,1.4-0.3,2.8-0.9,4.2c-0.6,1.4-1.4,2.6-2.4,3.5c-1.2,1.1-2.5,1.9-4,2.5C281.6,488.1,279.8,488.4,277.5,488.4z"/>
		<path class="st3" d="M304,487.7v-32.3h-12.3v-4.3h29.5v4.3h-12.3v32.3H304z"/>
		<path class="st3" d="M318,487.7l12.4-36.6h6l12.4,36.6h-5.1l-3.3-10.2h-14l-3.3,10.2H318z M338.9,473.3l-5.7-17.3l-5.6,17.3H338.9
			z"/>
		<path class="st3" d="M362.3,488.4c-2.7,0-4.9-0.3-6.8-0.8c-1.9-0.5-3.6-1.2-5.3-2v-6.1h0.3c1.6,1.5,3.4,2.7,5.5,3.5
			c2,0.8,4,1.2,5.9,1.2c2.7,0,4.7-0.6,6.1-1.7s2.1-2.6,2.1-4.4c0-1.5-0.4-2.6-1.1-3.6c-0.7-0.9-1.9-1.6-3.4-2
			c-1.1-0.3-2.2-0.6-3.1-0.8c-0.9-0.2-2.1-0.5-3.5-0.9c-1.3-0.3-2.4-0.7-3.4-1.3c-1-0.5-1.9-1.2-2.7-2c-0.8-0.8-1.3-1.8-1.8-2.8
			c-0.4-1.1-0.6-2.3-0.6-3.8c0-3,1.2-5.5,3.5-7.5s5.3-3,8.9-3c2.1,0,4,0.2,5.8,0.6c1.8,0.4,3.5,1,5.1,1.7v5.8h-0.4
			c-1.2-1.1-2.7-2-4.5-2.8c-1.8-0.8-3.7-1.2-5.7-1.2c-2.3,0-4.1,0.5-5.5,1.6c-1.4,1.1-2.1,2.4-2.1,4.2c0,1.6,0.4,2.8,1.2,3.7
			s2,1.6,3.6,2c1,0.3,2.3,0.6,3.8,0.9c1.5,0.4,2.7,0.7,3.7,1c2.5,0.8,4.4,1.9,5.5,3.5c1.2,1.6,1.7,3.5,1.7,5.8
			c0,1.4-0.3,2.8-0.9,4.2c-0.6,1.4-1.4,2.6-2.4,3.5c-1.2,1.1-2.5,1.9-4,2.5C366.4,488.1,364.6,488.4,362.3,488.4z"/>
	</g>
	<path class="st21" d="M381.3,512.2H59.1c-32.7,0-59.4-26.7-59.4-59.4v-393c0-32.7,26.7-59.4,59.4-59.4h322.2
		c32.7,0,59.4,26.7,59.4,59.4v393C440.7,485.4,413.9,512.2,381.3,512.2z"/>
</g>
<g>
	<path class="st112" d="M301.8,207l-14.4-14.4c-2.2-2.2-5.7-2.2-7.8,0l-53.1,53.1L208.7,228c-2.2-2.2-5.7-2.2-7.8,0l-14.4,14.4
		c-2.2,2.2-2.2,5.7,0,7.8l35.6,35.6c1.2,1.2,2.8,1.7,4.4,1.6c1.6,0.1,3.2-0.4,4.4-1.6l70.9-70.9C304,212.7,304,209.2,301.8,207z"/>
	<path class="st53" d="M293,205.4L278.6,191c-2.2-2.2-5.7-2.2-7.8,0l-53.1,53.1l-17.8-17.8c-2.2-2.2-5.7-2.2-7.8,0l-14.4,14.4
		c-2.2,2.2-2.2,5.7,0,7.8l35.6,35.6c1.2,1.2,2.8,1.7,4.4,1.6c1.6,0.1,3.2-0.4,4.4-1.6l70.9-70.9C295.1,211,295.1,207.5,293,205.4z"
		/>
</g>
</svg>
