<?xml version="1.0" encoding="utf-8"?>
<!-- Generator: Adobe Illustrator 21.0.0, SVG Export Plug-In . SVG Version: 6.00 Build 0)  -->
<svg version="1.1" id="Capa_1" xmlns="http://www.w3.org/2000/svg" xmlns:xlink="http://www.w3.org/1999/xlink" x="0px" y="0px"
	 viewBox="0 0 441 512" style="enable-background:new 0 0 441 512;" xml:space="preserve">
<style type="text/css">
	.st0{fill:#90DFAA;}
	.st1{fill:#76B285;}
	.st2{fill:#324A5E;}
	.st3{fill:#FFFFFF;}
	.st4{fill:#E6E9EE;}
	.st5{fill:#FF7058;}
	.st6{fill:#54C0EB;}
	.st7{fill:#A952A5;}
	.st8{fill:#460C44;}
	.st9{fill:#FFDA79;}
	.st10{fill:#FFD155;}
	.st11{fill:#36495E;}
	.st12{fill:#6A82A1;}
	.st13{fill:#2C3E50;}
	.st14{fill:#FF7F4F;}
	.st15{fill:#D35933;}
	.st16{fill:#386895;}
	.st17{fill:#273B7A;}
	.st18{fill:#121149;}
	.st19{fill:#38C6D9;}
	.st20{fill:#02B2B2;}
	.st21{fill:none;}
	.st22{fill:#FEE187;}
	.st23{fill:#FFC61B;}
	.st24{fill:#B54324;}
	.st25{fill:#9E005D;}
	.st26{fill:#7C0050;}
	.st27{fill:#EDEDED;}
	.st28{fill:#E3E3E3;}
	.st29{fill:#EFEFF0;}
	.st30{fill:#8CC63F;}
	.st31{fill:#8BAF3A;}
	.st32{fill:#31BAFD;}
	.st33{fill:#2B9ED8;}
	.st34{fill:#E9EFF4;}
	.st35{fill:#D0D1D3;}
	.st36{fill:#FED8B2;}
	.st37{fill:#EFC095;}
	.st38{fill:#F4E3C3;}
	.st39{fill:#3F3B3B;}
	.st40{fill:#272525;}
	.st41{fill:#FC9483;}
	.st42{fill:#FD8469;}
	.st43{fill:#2B3B4E;}
	.st44{fill:#1B2B3A;}
	.st45{fill:#FC6F58;}
	.st46{fill:none;stroke:#FFFFFF;stroke-width:3;stroke-linecap:round;stroke-miterlimit:10;}
	.st47{fill:#C2001B;}
	.st48{fill:#940030;}
	.st49{fill:#E8E8E8;}
	.st50{fill:#FF5419;}
	.st51{fill:#366695;}
	.st52{fill:#666666;}
	.st53{fill:#3FA9F5;}
	.st54{fill:#6D0E64;}
	.st55{fill:#370732;}
	.st56{fill:#CFDBE6;}
	.st57{fill:#F9B54C;}
	.st58{fill:#F4A200;}
	.st59{fill:#4CDBC4;}
	.st60{fill:#05BEA6;}
	.st61{fill:#FF8E31;}
	.st62{fill:#ED7425;}
	.st63{fill:#5D6D7E;}
	.st64{fill:#34495E;}
	.st65{fill:#5E7D9B;}
	.st66{fill:#0684BA;}
	.st67{fill:#283A4D;}
	.st68{fill:#0578AB;}
	.st69{fill:#E5E9EC;}
	.st70{fill:#29ABE2;}
	.st71{fill:#D9E021;}
	.st72{fill:#BCBC1E;}
	.st73{fill:#FF1D25;}
	.st74{fill:#E6E6E6;}
	.st75{fill:#FFD300;}
	.st76{fill:#F1543F;}
	.st77{fill:#FFD15D;}
	.st78{fill:#67D6A4;}
	.st79{fill:#018C4D;}
	.st80{fill:#D4145A;}
	.st81{fill:#39B54A;}
	.st82{fill:#0575A5;}
	.st83{fill:#025E90;}
	.st84{fill:#C1D354;}
	.st85{fill:#71CC8D;}
	.st86{fill:url(#SVGID_1_);}
	.st87{opacity:0.15;}
	.st88{clip-path:url(#SVGID_3_);}
	.st89{fill:#4D4D4D;}
	.st90{fill:#B60C1B;}
	.st91{fill:#FDFEFE;}
	.st92{fill:#648C2C;}
	.st93{fill:#9B4C00;}
	.st94{fill:#6D3802;}
	.st95{fill:#EAA22F;}
	.st96{fill:#C92F00;}
	.st97{fill:#FFEDB5;}
	.st98{fill:#B2760B;}
	.st99{fill:#B82033;}
	.st100{fill:#B98A90;}
	.st101{fill:#663434;}
	.st102{fill:#009245;}
	.st103{fill:#FBB03B;}
	.st104{fill:#F7931E;}
	.st105{fill:#ED1C24;}
	.st106{fill:#AF1924;}
	.st107{fill:#CCCCCC;}
	.st108{fill:#B3B3B3;}
	.st109{fill:#57442F;}
	.st110{fill:#FCD088;}
	.st111{fill:#DDAB62;}
	.st112{fill:#E8CF89;}
	.st113{fill:#B76D5C;}
	.st114{fill:#91483C;}
	.st115{fill:#FF0F27;}
	.st116{fill:#444444;}
	.st117{fill:#333333;}
	.st118{fill:#D48B07;}
	.st119{fill:#9B6207;}
	.st120{fill:#EFEFEF;}
	.st121{fill:#E2E2E2;}
	.st122{fill:#B2B2B2;}
	.st123{fill:#D75A4A;}
	.st124{fill:#ED8A19;}
	.st125{fill:#C7CAC7;}
	.st126{fill:#FBCE9D;}
	.st127{fill:#38454F;}
	.st128{fill:#F2ECBF;}
	.st129{fill:#EBBA16;}
	.st130{fill:#564825;}
	.st131{fill:#2B2413;}
	.st132{fill:#6B9130;}
	.st133{fill:#057236;}
	.st134{fill:#C69C6D;}
	.st135{fill:#754C24;}
	.st136{fill:#2487AA;}
	.st137{fill:#0071BC;}
	.st138{fill:#055A7F;}
	.st139{fill:#2E3192;}
	.st140{fill:#6A6E77;}
	.st141{fill:#D0223A;}
	.st142{fill:#008645;}
	.st143{fill:#FF7BAC;}
	.st144{fill:#CE6E95;}
	.st145{fill:#EA4949;}
	.st146{fill:#B54040;}
	.st147{fill:#EDBF00;}
	.st148{fill:#E8CA4B;}
	.st149{fill:#CE8505;}
	.st150{fill:#EA9C00;}
	.st151{fill:#297358;}
	.st152{fill:#4ABC96;}
	.st153{fill:#3CA57F;}
	.st154{fill:#369975;}
	.st155{fill:#CC013A;}
	.st156{clip-path:url(#SVGID_5_);}
	.st157{fill:#161616;}
	.st158{fill:url(#SVGID_6_);}
	.st159{clip-path:url(#SVGID_8_);}
	.st160{fill:#0F0F0F;}
	.st161{opacity:0.5;fill:#FFFFFF;}
	.st162{fill:#191919;}
	.st163{fill:#232323;}
	.st164{fill:#2D2D2D;}
	.st165{opacity:0.6;fill:url(#SVGID_9_);}
	.st166{opacity:0.5;fill:url(#SVGID_10_);}
	.st167{fill:#808080;}
	.st168{fill:#1B1464;}
	.st169{fill:#F2F2F2;}
	.st170{fill:#006837;}
	.st171{fill:#0191E9;}
	.st172{fill:#0067A0;}
	.st173{fill:#242424;}
	.st174{fill:#FFBE00;}
	.st175{fill:#F4502A;}
	.st176{fill:#C29100;}
	.st177{fill:#BA3D20;}
</style>
<g>
	<g>
		<circle class="st32" cx="221.8" cy="185.2" r="160.6"/>
		<path class="st33" d="M376.5,228.3L251.8,103.6l-41.1,117l-71.2,54.5l70.2,70.2c4,0.3,8,0.5,12.1,0.5
			C295.6,345.8,357.7,296.1,376.5,228.3z"/>
		<path class="st34" d="M304.1,275.1H139.6v-27.9c0-19.8,12.7-37.4,31.5-43.7l30.2-10.1h41.1l30.2,10.1
			c18.8,6.3,31.5,23.9,31.5,43.7L304.1,275.1L304.1,275.1z"/>
		<path class="st35" d="M304.1,247.2c0-19.8-12.7-37.4-31.5-43.7l-30.2-10.1h-20.6v81.7h82.3V247.2z"/>
		<polygon class="st36" points="242.4,193.5 221.8,214 201.3,193.5 201.3,172.9 242.4,172.9 		"/>
		<polygon class="st37" points="242.4,172.9 221.8,172.9 221.8,214 242.4,193.5 		"/>
		<path class="st38" d="M180.7,131.8c0-22.7,18.4-41.1,41.1-41.1S263,109,263,131.8s-18.4,61.7-41.1,61.7S180.7,154.5,180.7,131.8z"
			/>
		<path class="st36" d="M263,131.8c0-22.7-18.4-41.1-41.1-41.1v102.8C244.6,193.5,263,154.5,263,131.8z"/>
		<path class="st39" d="M263,131.8c0-22.7-18.4-41.1-41.1-41.1s-41.1,18.4-41.1,41.1c0,9.1,2.9,20.7,7.9,31.5
			c-1.2-6.2-0.9-12.5-0.2-17.3c26.1-2,51.3-14.3,51.3-14.3s3.2,5.9,15.2,11.1c0.8,4.9,1.7,12.8,0.2,20.5
			C260,152.5,263,140.8,263,131.8z"/>
		<path class="st40" d="M263,131.8c0-22.7-18.4-41.1-41.1-41.1v48.1c10.7-3.6,17.8-7,17.8-7s3.2,5.9,15.2,11.1
			c0.8,4.9,1.7,12.8,0.2,20.5C260,152.5,263,140.8,263,131.8z"/>
		<polygon class="st41" points="213.2,274.4 219,220.9 224.7,220.9 230.5,274.4 		"/>
		<polygon class="st42" points="224.7,220.9 221.8,220.9 221.8,274.4 230.5,274.4 		"/>
		<path class="st2" d="M221.8,274.4l-30-77.8l-20.8,6.9c-18.8,6.3-31.5,23.9-31.5,43.7v27.9h82.3L221.8,274.4L221.8,274.4z"/>
		<path class="st43" d="M304.1,247.2c0-19.8-12.7-37.4-31.5-43.7l-20.8-6.9l-30,77.8v0.7h82.3L304.1,247.2L304.1,247.2z"/>
		<polygon class="st44" points="251.8,196.6 257.5,220.9 246.7,226.3 257.5,238.7 221.8,274.4 		"/>
		<polygon class="st43" points="191.9,196.6 186.2,220.9 197,226.3 186.2,238.7 221.8,274.4 		"/>
		<polygon class="st42" points="233.2,214.1 225.6,232 218.1,232 210.5,214.1 		"/>
		<polygon class="st45" points="233.2,214.1 221.8,214.1 221.8,232 225.6,232 		"/>
		<polygon class="st34" points="239.7,220.9 251.8,196.6 242.4,193.5 221.8,214 		"/>
		<polygon class="st3" points="204,220.9 191.9,196.6 201.3,193.5 221.8,214 		"/>
		<g>
			<path class="st3" d="M196.9,82.4l-19.2,19.2c-4.7,4.7-12.3,4.7-17,0l-19.2-19.2c-4.7-4.7-4.7-12.3,0-17l19.2-19.2
				c4.7-4.7,12.3-4.7,17,0l19.2,19.2C201.6,70.1,201.6,77.7,196.9,82.4z"/>
			<path class="st3" d="M268,81.6l-6.5,6.5c-4.7,4.7-12.3,4.7-17,0l-6.5-6.5c-4.7-4.7-4.7-12.3,0-17l6.5-6.5c4.7-4.7,12.3-4.7,17,0
				l6.5,6.5C272.6,69.3,272.6,76.9,268,81.6z"/>
			<path class="st3" d="M170.3,179.3l-6.5,6.5c-4.7,4.7-12.3,4.7-17,0l-6.5-6.5c-4.7-4.7-4.7-12.3,0-17l6.5-6.5
				c4.7-4.7,12.3-4.7,17,0l6.5,6.5C174.9,166.9,174.9,174.6,170.3,179.3z"/>
			<line class="st46" x1="203.3" y1="75.4" x2="230.7" y2="75.4"/>
			<line class="st46" x1="157.6" y1="105.9" x2="157.6" y2="146.8"/>
		</g>
	</g>
	<g>
		<rect x="32.4" y="380.2" class="st21" width="375.7" height="95"/>
		<path class="st3" d="M87.8,438.1c-3.5,0-6.4-0.4-8.9-1.1c-2.4-0.7-4.7-1.6-6.9-2.7v-8h0.5c2.1,2,4.5,3.5,7.2,4.6
			c2.7,1.1,5.2,1.6,7.7,1.6c3.5,0,6.2-0.7,8-2.2s2.7-3.4,2.7-5.8c0-1.9-0.5-3.5-1.4-4.7s-2.4-2.1-4.5-2.7c-1.5-0.4-2.8-0.8-4.1-1.1
			s-2.8-0.7-4.6-1.1c-1.7-0.4-3.1-1-4.4-1.6c-1.3-0.7-2.5-1.5-3.5-2.6c-1-1.1-1.8-2.3-2.3-3.7c-0.5-1.4-0.8-3.1-0.8-4.9
			c0-3.9,1.5-7.1,4.5-9.8c3-2.6,6.9-3.9,11.6-3.9c2.7,0,5.2,0.3,7.6,0.8c2.4,0.5,4.6,1.3,6.7,2.3v7.6h-0.5c-1.5-1.4-3.5-2.6-5.9-3.7
			s-4.9-1.6-7.5-1.6c-3,0-5.4,0.7-7.2,2.1c-1.8,1.4-2.7,3.2-2.7,5.5c0,2,0.5,3.7,1.6,4.9s2.6,2.1,4.7,2.6c1.4,0.4,3,0.8,5,1.2
			c2,0.5,3.6,0.9,4.9,1.3c3.3,1,5.7,2.5,7.3,4.6c1.5,2,2.3,4.6,2.3,7.5c0,1.9-0.4,3.7-1.1,5.5c-0.8,1.8-1.8,3.4-3.2,4.6
			c-1.5,1.4-3.3,2.5-5.2,3.2C93.2,437.7,90.8,438.1,87.8,438.1z"/>
		<path class="st3" d="M109.8,437.2v-33.6h21v4h-16.5v9.2h15.4v4h-15.4v12.5h16.5v4H109.8z"/>
		<path class="st3" d="M148.8,437.8c-2.2,0-4.2-0.4-6.1-1.1c-1.8-0.7-3.4-1.8-4.8-3.3c-1.3-1.5-2.4-3.3-3.1-5.5
			c-0.7-2.2-1.1-4.7-1.1-7.5c0-2.8,0.4-5.3,1.1-7.4c0.7-2.1,1.8-3.9,3.1-5.5c1.3-1.5,2.9-2.7,4.8-3.4c1.8-0.8,3.9-1.2,6.2-1.2
			c1.1,0,2.2,0.1,3.2,0.2c1,0.2,1.9,0.4,2.7,0.6c0.7,0.2,1.5,0.5,2.2,0.8c0.8,0.3,1.5,0.7,2.2,1.1v5.4h-0.4
			c-0.4-0.4-0.9-0.8-1.5-1.3c-0.6-0.5-1.4-1-2.3-1.5c-0.9-0.5-1.8-0.8-2.8-1.2c-1-0.3-2.2-0.5-3.5-0.5c-1.4,0-2.8,0.3-4.1,0.9
			c-1.3,0.6-2.4,1.5-3.4,2.6c-0.9,1.1-1.7,2.6-2.2,4.3c-0.5,1.7-0.8,3.7-0.8,5.8c0,2.3,0.3,4.3,0.8,5.9c0.6,1.7,1.3,3.1,2.3,4.2
			c0.9,1.1,2,2,3.3,2.5c1.3,0.6,2.6,0.8,4,0.8c1.3,0,2.5-0.2,3.6-0.5c1.1-0.3,2.1-0.7,2.9-1.2c0.8-0.5,1.5-0.9,2.1-1.4
			c0.6-0.5,1.1-0.9,1.4-1.3h0.3v5.3c-0.7,0.3-1.4,0.7-2.1,1c-0.7,0.3-1.4,0.6-2.4,0.9c-1,0.3-1.9,0.6-2.7,0.7
			C151.2,437.7,150.2,437.8,148.8,437.8z"/>
		<path class="st3" d="M176.6,437.8c-2.2,0-4.2-0.4-6.1-1.1c-1.8-0.7-3.4-1.8-4.8-3.3c-1.3-1.5-2.4-3.3-3.1-5.5
			c-0.7-2.2-1.1-4.7-1.1-7.5c0-2.8,0.4-5.3,1.1-7.4c0.7-2.1,1.8-3.9,3.1-5.5c1.3-1.5,2.9-2.7,4.8-3.4c1.8-0.8,3.9-1.2,6.2-1.2
			c1.1,0,2.2,0.1,3.2,0.2c1,0.2,1.9,0.4,2.7,0.6c0.7,0.2,1.5,0.5,2.2,0.8c0.8,0.3,1.5,0.7,2.2,1.1v5.4h-0.4
			c-0.4-0.4-0.9-0.8-1.5-1.3c-0.6-0.5-1.4-1-2.3-1.5c-0.9-0.5-1.8-0.8-2.8-1.2c-1-0.3-2.2-0.5-3.5-0.5c-1.4,0-2.8,0.3-4.1,0.9
			c-1.3,0.6-2.4,1.5-3.4,2.6c-0.9,1.1-1.7,2.6-2.2,4.3c-0.5,1.7-0.8,3.7-0.8,5.8c0,2.3,0.3,4.3,0.8,5.9c0.6,1.7,1.3,3.1,2.3,4.2
			c0.9,1.1,2,2,3.3,2.5c1.3,0.6,2.6,0.8,4,0.8c1.3,0,2.5-0.2,3.6-0.5c1.1-0.3,2.1-0.7,2.9-1.2c0.8-0.5,1.5-0.9,2.1-1.4
			c0.6-0.5,1.1-0.9,1.4-1.3h0.3v5.3c-0.7,0.3-1.4,0.7-2.1,1c-0.7,0.3-1.4,0.6-2.4,0.9c-1,0.3-1.9,0.6-2.7,0.7
			C179,437.7,177.9,437.8,176.6,437.8z"/>
		<path class="st3" d="M202.9,437.2h-13v-3.4h4.3V407h-4.3v-3.4h13v3.4h-4.3v26.7h4.3V437.2z"/>
		<path class="st3" d="M232.2,407.5c1.3,1.5,2.3,3.3,3,5.5c0.7,2.2,1.1,4.7,1.1,7.5c0,2.7-0.3,5.2-1,7.4c-0.7,2.2-1.7,4-3,5.5
			c-1.4,1.6-3,2.7-4.8,3.5c-1.8,0.7-3.8,1.1-6,1.1c-2.3,0-4.3-0.4-6.1-1.2c-1.8-0.8-3.4-1.9-4.7-3.4c-1.3-1.5-2.3-3.3-3-5.5
			c-0.7-2.2-1-4.6-1-7.4c0-2.8,0.3-5.3,1-7.4s1.7-4,3-5.5c1.3-1.5,2.9-2.6,4.7-3.4c1.8-0.8,3.9-1.2,6.1-1.2c2.3,0,4.3,0.4,6.2,1.2
			C229.4,404.9,230.9,406,232.2,407.5z M231.6,420.4c0-2.2-0.2-4.2-0.7-5.9c-0.5-1.7-1.2-3.1-2-4.3c-0.9-1.2-2-2-3.2-2.6
			c-1.3-0.6-2.7-0.9-4.2-0.9c-1.6,0-3,0.3-4.3,0.8c-1.2,0.6-2.3,1.4-3.2,2.6c-0.9,1.1-1.6,2.6-2,4.3c-0.5,1.7-0.7,3.7-0.7,5.9
			c0,4.4,0.9,7.8,2.8,10.1s4.3,3.5,7.4,3.5s5.6-1.2,7.4-3.5S231.6,424.8,231.6,420.4z"/>
		<path class="st3" d="M265.1,437.2h-5l-14.8-29v29h-4.2v-33.6h6.3l13.5,26.6v-26.6h4.2V437.2z"/>
		<path class="st3" d="M268.3,437.2l11.3-33.6h5.5l11.3,33.6h-4.7l-3-9.4h-12.8l-3,9.4H268.3z M287.5,424l-5.2-15.8l-5.2,15.8H287.5
			z"/>
		<path class="st3" d="M319.1,437.2h-19.5v-33.6h4.5v29.6h15V437.2z"/>
		<path class="st3" d="M322.6,437.2v-33.6h21v4h-16.5v9.2h15.4v4h-15.4v12.5h16.5v4H322.6z"/>
		<path class="st3" d="M357.9,437.8c-2.4,0-4.5-0.3-6.2-0.8s-3.3-1.1-4.8-1.9v-5.6h0.3c1.5,1.4,3.1,2.5,5,3.2
			c1.9,0.8,3.7,1.1,5.4,1.1c2.5,0,4.3-0.5,5.6-1.5c1.3-1,1.9-2.4,1.9-4.1c0-1.3-0.3-2.4-1-3.3c-0.7-0.8-1.7-1.5-3.2-1.9
			c-1-0.3-2-0.5-2.8-0.7c-0.9-0.2-1.9-0.5-3.2-0.8c-1.2-0.3-2.2-0.7-3.1-1.2c-0.9-0.5-1.7-1.1-2.4-1.8c-0.7-0.7-1.2-1.6-1.6-2.6
			c-0.4-1-0.6-2.2-0.6-3.5c0-2.7,1.1-5,3.2-6.8c2.1-1.8,4.8-2.8,8.1-2.8c1.9,0,3.7,0.2,5.3,0.6c1.7,0.4,3.2,0.9,4.7,1.6v5.3h-0.3
			c-1.1-1-2.4-1.8-4.1-2.6s-3.4-1.1-5.3-1.1c-2.1,0-3.8,0.5-5,1.5c-1.3,1-1.9,2.2-1.9,3.8c0,1.4,0.4,2.6,1.1,3.4
			c0.8,0.8,1.8,1.5,3.3,1.8c0.9,0.3,2.1,0.5,3.5,0.9c1.4,0.3,2.5,0.6,3.4,0.9c2.3,0.7,4,1.8,5.1,3.2s1.6,3.2,1.6,5.3
			c0,1.3-0.3,2.6-0.8,3.9s-1.3,2.4-2.2,3.2c-1.1,1-2.3,1.7-3.7,2.3S360,437.8,357.9,437.8z"/>
	</g>
	<path class="st21" d="M354.9,510.6H88.7c-30.1,0-54.7-24.6-54.7-54.7V54.7C34,24.6,58.6,0,88.7,0h266.2c30.1,0,54.7,24.6,54.7,54.7
		v401.1C409.7,485.9,385.1,510.6,354.9,510.6z"/>
</g>
</svg>
