<?xml version="1.0" encoding="utf-8"?>
<!-- Generator: Adobe Illustrator 21.0.0, SVG Export Plug-In . SVG Version: 6.00 Build 0)  -->
<svg version="1.1" id="Capa_1" xmlns="http://www.w3.org/2000/svg" xmlns:xlink="http://www.w3.org/1999/xlink" x="0px" y="0px"
	 viewBox="0 0 441 516.6" style="enable-background:new 0 0 441 516.6;" xml:space="preserve">
<style type="text/css">
	.st0{fill:#90DFAA;}
	.st1{fill:#76B285;}
	.st2{fill:#324A5E;}
	.st3{fill:#FFFFFF;}
	.st4{fill:#E6E9EE;}
	.st5{fill:#FF7058;}
	.st6{fill:#54C0EB;}
	.st7{fill:#A952A5;}
	.st8{fill:#460C44;}
	.st9{fill:#FFDA79;}
	.st10{fill:#FFD155;}
	.st11{fill:#36495E;}
	.st12{fill:#6A82A1;}
	.st13{fill:#2C3E50;}
	.st14{fill:#FF7F4F;}
	.st15{fill:#D35933;}
	.st16{fill:#386895;}
	.st17{fill:#273B7A;}
	.st18{fill:#121149;}
	.st19{fill:#38C6D9;}
	.st20{fill:#02B2B2;}
	.st21{fill:none;}
	.st22{fill:#FEE187;}
	.st23{fill:#FFC61B;}
	.st24{fill:#B54324;}
	.st25{fill:#6D0E64;}
	.st26{fill:#370732;}
	.st27{fill:#CFDBE6;}
	.st28{fill:#F9B54C;}
	.st29{fill:#F4A200;}
	.st30{fill:#4CDBC4;}
	.st31{fill:#05BEA6;}
	.st32{fill:#FF8E31;}
	.st33{fill:#ED7425;}
	.st34{fill:#5D6D7E;}
	.st35{fill:#34495E;}
	.st36{fill:#5E7D9B;}
	.st37{fill:#0684BA;}
	.st38{fill:#283A4D;}
	.st39{fill:#0578AB;}
	.st40{fill:#E5E9EC;}
	.st41{fill:#29ABE2;}
	.st42{fill:#D9E021;}
	.st43{fill:#BCBC1E;}
	.st44{fill:#FF1D25;}
	.st45{fill:#2B3B4E;}
	.st46{fill:#E6E6E6;}
	.st47{fill:#FFD300;}
	.st48{fill:#FC6F58;}
	.st49{fill:#F1543F;}
	.st50{fill:#FFD15D;}
	.st51{fill:#67D6A4;}
	.st52{fill:#018C4D;}
	.st53{fill:#D4145A;}
	.st54{fill:#9E005D;}
	.st55{fill:#39B54A;}
	.st56{fill:#0575A5;}
	.st57{fill:#025E90;}
	.st58{fill:#C1D354;}
	.st59{fill:#71CC8D;}
	.st60{fill:url(#SVGID_1_);}
	.st61{opacity:0.15;}
	.st62{clip-path:url(#SVGID_3_);}
	.st63{fill:#4D4D4D;}
	.st64{fill:#B60C1B;}
	.st65{fill:#8CC63F;}
	.st66{fill:#648C2C;}
	.st67{fill:#9B4C00;}
	.st68{fill:#6D3802;}
	.st69{fill:#EAA22F;}
	.st70{fill:#FF5419;}
	.st71{fill:#C92F00;}
	.st72{fill:#FFEDB5;}
	.st73{fill:#B2760B;}
	.st74{fill:#B82033;}
	.st75{fill:#B98A90;}
	.st76{fill:#663434;}
	.st77{fill:#009245;}
	.st78{fill:#FBB03B;}
	.st79{fill:#F7931E;}
	.st80{fill:#ED1C24;}
	.st81{fill:#AF1924;}
	.st82{fill:#CCCCCC;}
	.st83{fill:#B3B3B3;}
	.st84{fill:#FD8469;}
	.st85{fill:#57442F;}
	.st86{fill:#FCD088;}
	.st87{fill:#DDAB62;}
	.st88{fill:#E8CF89;}
	.st89{fill:#B76D5C;}
	.st90{fill:#91483C;}
	.st91{fill:#FF0F27;}
	.st92{fill:#444444;}
	.st93{fill:#333333;}
	.st94{fill:#D48B07;}
	.st95{fill:#9B6207;}
	.st96{fill:#EFEFEF;}
	.st97{fill:#E2E2E2;}
	.st98{fill:#B2B2B2;}
	.st99{fill:#D75A4A;}
	.st100{fill:#ED8A19;}
	.st101{fill:#C7CAC7;}
	.st102{fill:#FBCE9D;}
	.st103{fill:#38454F;}
	.st104{fill:#F2ECBF;}
	.st105{fill:#EBBA16;}
	.st106{fill:#6A6E77;}
	.st107{fill:#D0223A;}
	.st108{fill:#008645;}
	.st109{fill:#FF7BAC;}
	.st110{fill:#CE6E95;}
	.st111{fill:#0071BC;}
	.st112{fill:#EA4949;}
	.st113{fill:#B54040;}
	.st114{fill:#EDBF00;}
	.st115{fill:#E8CA4B;}
	.st116{fill:#CE8505;}
	.st117{fill:#EA9C00;}
	.st118{fill:#297358;}
	.st119{fill:#4ABC96;}
	.st120{fill:#3CA57F;}
	.st121{fill:#369975;}
	.st122{fill:#CC013A;}
	.st123{clip-path:url(#SVGID_5_);}
	.st124{fill:#161616;}
	.st125{fill:url(#SVGID_6_);}
	.st126{clip-path:url(#SVGID_8_);}
	.st127{fill:#0F0F0F;}
	.st128{opacity:0.5;fill:#FFFFFF;}
	.st129{fill:#191919;}
	.st130{fill:#232323;}
	.st131{fill:#2D2D2D;}
	.st132{opacity:0.6;fill:url(#SVGID_9_);}
	.st133{opacity:0.5;fill:url(#SVGID_10_);}
	.st134{fill:#808080;}
	.st135{fill:#2E3192;}
	.st136{fill:#1B1464;}
	.st137{fill:#006837;}
</style>
<g>
	<g>
		<circle class="st17" cx="219.4" cy="184.7" r="162.1"/>
		<path class="st18" d="M179.5,289.7l56.2,56.2c72.1-7.2,130.3-61.7,143.1-132L264,51.5L179.5,289.7z"/>
		<rect x="192.4" y="160.1" class="st86" width="54" height="54"/>
		<rect x="219.1" y="160.1" class="st87" width="27.4" height="54"/>
		<path class="st14" d="M283.9,203.3l-28.6-5.7l-5.1-7.4c-0.9-1.4-2.7-1.9-4.3-1.2l-26.5,11.4L193.1,189c-1.5-0.7-3.3-0.2-4.3,1.2
			l-5.2,7.4l-28.6,5.7c-14.6,2.9-25.1,15.7-25.1,30.6v38.4c25.6,17,56.4,26.9,89.5,26.9c33.1,0,63.9-9.9,89.5-26.9v-38.4
			C308.9,219,298.4,206.2,283.9,203.3z"/>
		<path class="st70" d="M283.9,203.3l-28.6-5.7l-5.1-7.4c-0.9-1.4-2.7-1.9-4.3-1.2l-26.5,11.4l-0.4-0.2v99c0.1,0,0.2,0,0.4,0
			c33.1,0,63.9-9.9,89.5-26.9v-38.4C308.9,219,298.4,206.2,283.9,203.3z"/>
		<path class="st72" d="M277.4,105.2c0.3-2.7,0.4-5.3,0.4-7.9c0-34.2-26.1-61.9-58.4-61.9S161,63.1,161,97.2c0,2.6,0.2,5.2,0.4,7.9
			c-5.7,1.5-8.4,10.2-6,19.5c2.3,9.4,8.9,15.8,14.6,14.3c0.5-0.1,1-0.3,1.5-0.6c10.6,21.2,28.1,38.4,47.9,38.4s37.4-17.2,47.9-38.4
			c0.5,0.2,1,0.5,1.5,0.6c5.7,1.4,12.2-5,14.6-14.3C285.7,115.3,283.1,106.6,277.4,105.2z"/>
		<path class="st88" d="M277.4,105.2c0.3-2.7,0.4-5.3,0.4-7.9c0-34.2-26.1-61.9-58.4-61.9c-0.1,0-0.2,0-0.4,0v141.4
			c0.1,0,0.2,0,0.4,0c19.8,0,37.4-17.2,47.9-38.4c0.5,0.2,1,0.5,1.5,0.6c5.7,1.4,12.2-5,14.6-14.3
			C285.7,115.3,283.1,106.6,277.4,105.2z"/>
		<polygon class="st89" points="219.4,256.6 191.1,229.2 219.4,201 247.7,229.2 		"/>
		<polygon class="st90" points="247.7,229.2 219.4,201 219.1,201.3 219.1,256.2 219.4,256.6 		"/>
		<path class="st70" d="M261.6,198.9l-42.1,48.3l-42.1-48.3l-22.7,4.2c-0.3,0.1-0.7,0.2-1,0.3v81.9c20.1,9,42.4,14,65.9,14
			c23,0,44.9-4.8,64.8-13.5v-82.7L261.6,198.9z"/>
		<path class="st91" d="M261.6,198.9l-42.1,48.3l-0.4-0.4v52.4c0.1,0,0.2,0,0.4,0c23,0,44.9-4.8,64.8-13.5v-82.7L261.6,198.9z"/>
		<path class="st92" d="M273.8,99.1c-1.1-1.1-2.8-1.1-3.9,0l-13.1,13.1c-3.3-5.1-10.7-5.1-14.4-5.1c-3.9,0-14.7,0-17.6,7.2h-12.8
			c-2.9-7.2-13.7-7.2-17.6-7.2c-3.7,0-11.1,0-14.4,5.1l-13.1-13.1c-1.1-1.1-2.8-1.1-3.9,0c-1.1,1.1-1.1,2.8,0,3.9l15.3,15.3
			c0,0,0,0,0,0c0,9.3,4.8,14.7,13.3,14.7c8.3,0,19.8-5,21-13.2h11.6c1.2,8.3,12.7,13.3,21,13.3c8.4,0,13.3-5.4,13.3-14.8
			c0,0,0,0,0,0l15.3-15.3C274.8,101.9,274.8,100.2,273.8,99.1z M191.5,127.6c-3.6,0-7.8-1-7.8-9.2c0-3.8,1.6-5.8,10.6-5.8
			c11.5,0,12.9,3.1,12.9,5.8C207.2,123.6,197.7,127.6,191.5,127.6z M245.2,127.7c-6.2,0-15.7-4-15.7-9.3c0-2.7,1.5-5.8,12.9-5.8
			c9,0,10.6,1.9,10.6,5.8C253,126.7,248.5,127.7,245.2,127.7z"/>
		<path class="st93" d="M273.8,99.1c-1.1-1.1-2.8-1.1-3.9,0l-13.1,13.1c-3.3-5.1-10.7-5.1-14.4-5.1c-3.9,0-14.7,0-17.6,7.2h-5.7v5.5
			h5.1c1.2,8.3,12.7,13.3,21,13.3c8.4,0,13.3-5.4,13.3-14.8c0,0,0,0,0,0l15.3-15.3C274.8,101.9,274.8,100.2,273.8,99.1z
			 M245.2,127.7c-6.2,0-15.7-4-15.7-9.3c0-2.7,1.5-5.8,12.9-5.8c9,0,10.6,1.9,10.6,5.8C253,126.7,248.5,127.7,245.2,127.7z"/>
		<path class="st94" d="M201.6,75l72.6,42.3c0,0,23.5-62.2-38-82.3c-50.5-16.5-57.7,16.6-57.7,16.6s-31.3,1.8-17,53.7
			C161.5,105.2,190.2,96.1,201.6,75z"/>
		<path class="st95" d="M236.2,34.9c-6.4-2.1-12-3.4-17.1-4v54.2l55.1,32.1C274.2,117.2,297.7,55,236.2,34.9z"/>
		<path class="st96" d="M105.4,299.9c29.2,28.9,69.5,46.8,113.8,46.9h0.3c44.4,0,84.6-17.9,113.8-46.9l-35.8-61.7H141.2L105.4,299.9
			z"/>
		<path class="st97" d="M297.6,238.2h-78.2v108.6h0.1c44.4,0,84.6-17.9,113.8-46.9L297.6,238.2z"/>
		<path class="st98" d="M275.4,261h-111c-2.1,0-3.8-1.7-3.8-3.8V256c0-2.1,1.7-3.8,3.8-3.8h111c2.1,0,3.8,1.7,3.8,3.8v1.2
			C279.2,259.3,277.5,261,275.4,261z"/>
		<path class="st98" d="M281.9,278.3H157.8c-2.4,0-4.3-1.9-4.3-4.3v-1.3c0-2.4,1.9-4.3,4.3-4.3h124.1c2.4,0,4.3,1.9,4.3,4.3v1.3
			C286.2,276.4,284.3,278.3,281.9,278.3z"/>
		<path class="st98" d="M270.3,297.4H145.1c-2.4,0-4.3-1.9-4.3-4.3v-1.3c0-2.4,1.9-4.3,4.3-4.3h125.1c2.4,0,4.3,1.9,4.3,4.3v1.3
			C274.6,295.5,272.6,297.4,270.3,297.4z"/>
		<g>
			<path class="st99" d="M343.7,202.8c5.5-5.5,14.3-5.5,19.8,0s5.5,14.3,0,19.8L343.7,202.8z"/>
			<polygon class="st100" points="348.7,230 303.4,275.3 302.5,283.6 352.4,233.7 352.4,233.7 			"/>
			<polygon class="st100" points="292.6,273.7 300.9,272.8 346.2,227.5 338.8,220.1 293.5,265.4 			"/>
			<polygon class="st100" points="336.3,217.6 332.6,213.9 332.6,213.9 282.7,263.8 291.1,262.9 			"/>
			<polygon class="st101" points="359.8,226.3 359.8,226.3 363.5,222.6 343.7,202.8 340,206.5 340,206.5 			"/>
			<polygon class="st101" points="337.6,209 337.6,209 335.1,211.5 335.1,211.5 354.9,231.2 354.9,231.2 357.3,228.8 357.3,228.8 
							"/>
			<path class="st102" d="M299.8,276.4l-8.9,1c-0.1,0-0.1,0-0.2,0h0l0,0l0,0c0,0,0,0,0,0c-0.1,0-0.1,0-0.2,0c-0.1,0-0.1,0-0.2-0.1
				c-0.1,0-0.2-0.1-0.4-0.1c-0.1,0-0.2-0.1-0.2-0.1c-0.1-0.1-0.2-0.1-0.3-0.2c-0.1-0.1-0.1-0.1-0.2-0.2c-0.1-0.1-0.1-0.2-0.2-0.3
				c0-0.1-0.1-0.2-0.1-0.3c0-0.1,0-0.1,0-0.2c0-0.1,0-0.1,0-0.2c0-0.1,0-0.1,0-0.2l1-8.9l-8.9,1c-0.1,0-0.1,0-0.2,0
				c-0.1,0-0.3,0-0.4-0.1l-5,21l3.7-3.7c0.7-0.7,1.8-0.7,2.5,0c0.7,0.7,0.7,1.8,0,2.5l-3.7,3.7l21-5c0-0.2-0.1-0.4-0.1-0.6
				L299.8,276.4z"/>
			<path class="st103" d="M281.5,284.8c-0.7-0.7-1.8-0.7-2.5,0l-3.7,3.7l-0.8,3.2l3.2-0.8l3.7-3.7
				C282.2,286.6,282.2,285.5,281.5,284.8z"/>
			<polygon class="st104" points="359.8,226.3 340,206.5 340,206.5 337.6,209 337.6,209 357.3,228.8 357.3,228.8 			"/>
			<path class="st105" d="M346.2,227.5l-45.3,45.3l-8.3,0.9l0.9-8.3l45.3-45.3l-2.5-2.5l-45.3,45.3l-8.3,0.9l-2,2l-0.4,1.7
				c0.1,0,0.3,0.1,0.4,0.1c0.1,0,0.1,0,0.2,0l8.9-1l-1,8.9c0,0.1,0,0.1,0,0.2c0,0.1,0,0.1,0,0.2c0,0.1,0,0.1,0,0.2
				c0,0.1,0.1,0.2,0.1,0.3c0,0.1,0.1,0.2,0.2,0.3c0.1,0.1,0.1,0.2,0.2,0.2c0.1,0.1,0.2,0.2,0.3,0.2c0.1,0.1,0.2,0.1,0.2,0.1
				c0.1,0.1,0.2,0.1,0.4,0.1c0.1,0,0.1,0.1,0.2,0.1c0.1,0,0.1,0,0.2,0h0l0,0h0h0h0l0,0c0.1,0,0.1,0,0.2,0l8.9-1l-1,8.9
				c0,0.2,0,0.4,0.1,0.6l1.7-0.4l2-2l0.9-8.3l45.3-45.3L346.2,227.5z"/>
			<polygon class="st104" points="354.9,231.2 335.1,211.5 335.1,211.5 332.6,213.9 332.6,213.9 336.3,217.6 338.8,220.1 
				346.2,227.5 348.7,230 352.4,233.7 352.4,233.7 			"/>
		</g>
	</g>
	<g>
		<rect x="-0.3" y="345.6" class="st21" width="441" height="204.7"/>
		<path class="st3" d="M100.9,397.4v-43.6h27.3v5.2h-21.5v12h20v5.2h-20v16.2h21.5v5.2H100.9z"/>
		<path class="st3" d="M155.1,397.4h-4.6l-13.5-26.3v26.3h-3.8v-30.5h5.8l12.3,24.2v-24.2h3.8V397.4z"/>
		<path class="st3" d="M168.4,397.4v-26.9h-10.3v-3.6h24.6v3.6h-10.3v26.9H168.4z"/>
		<path class="st3" d="M209.5,397.4h-5.3l-9.7-12.1h-4.6v12.1h-4.1v-30.5h7.9c1.8,0,3.2,0.1,4.4,0.3c1.2,0.2,2.3,0.6,3.4,1.3
			c1.1,0.7,1.9,1.6,2.5,2.6c0.6,1.1,0.9,2.4,0.9,4c0,2.2-0.6,4.1-1.7,5.6s-2.7,2.6-4.6,3.3L209.5,397.4z M200.7,375.4
			c0-0.9-0.2-1.7-0.5-2.4c-0.3-0.7-0.8-1.3-1.5-1.7c-0.6-0.4-1.2-0.7-2-0.8c-0.8-0.2-1.7-0.2-2.9-0.2h-4v11.5h3.6
			c1.2,0,2.2-0.1,3.1-0.3s1.7-0.6,2.4-1.3c0.6-0.6,1-1.3,1.3-2.1C200.5,377.4,200.7,376.5,200.7,375.4z"/>
		<path class="st3" d="M211.9,397.4v-30.5H231v3.6h-15v8.4h14v3.6h-14v11.3h15v3.6H211.9z"/>
		<path class="st3" d="M257.6,366.8l-10.5,30.5h-4.4l-10.5-30.5h4.3l8.4,25.3l8.4-25.3H257.6z"/>
		<path class="st3" d="M271.2,397.4h-11.9v-3.1h3.9V370h-3.9v-3.1h11.9v3.1h-3.9v24.3h3.9V397.4z"/>
		<path class="st3" d="M284.7,397.9c-2.2,0-4.1-0.2-5.7-0.7c-1.6-0.5-3-1-4.4-1.7v-5.1h0.3c1.3,1.3,2.9,2.2,4.6,2.9s3.3,1,4.9,1
			c2.2,0,3.9-0.5,5.1-1.4s1.7-2.2,1.7-3.7c0-1.2-0.3-2.2-0.9-3s-1.6-1.3-2.9-1.7c-0.9-0.3-1.8-0.5-2.6-0.7s-1.8-0.4-2.9-0.7
			c-1.1-0.3-2-0.6-2.8-1s-1.6-1-2.2-1.7c-0.6-0.7-1.1-1.5-1.5-2.4c-0.3-0.9-0.5-2-0.5-3.1c0-2.5,1-4.5,2.9-6.2
			c1.9-1.7,4.4-2.5,7.4-2.5c1.7,0,3.3,0.2,4.9,0.5c1.5,0.3,2.9,0.8,4.2,1.5v4.9h-0.3c-1-0.9-2.2-1.7-3.7-2.3s-3.1-1-4.8-1
			c-1.9,0-3.4,0.4-4.6,1.3c-1.2,0.9-1.7,2-1.7,3.5c0,1.3,0.3,2.3,1,3.1s1.7,1.3,3,1.7c0.9,0.2,1.9,0.5,3.2,0.8
			c1.2,0.3,2.3,0.6,3.1,0.8c2.1,0.6,3.6,1.6,4.6,2.9s1.5,2.9,1.5,4.8c0,1.2-0.2,2.4-0.7,3.5s-1.2,2.1-2,3c-1,0.9-2.1,1.6-3.3,2.1
			S286.5,397.9,284.7,397.9z"/>
		<path class="st3" d="M306.7,397.4v-26.9h-10.3v-3.6H321v3.6h-10.3v26.9H306.7z"/>
		<path class="st3" d="M318.4,397.4l10.3-30.5h5l10.3,30.5h-4.3l-2.8-8.5h-11.7l-2.8,8.5H318.4z M335.9,385.4l-4.7-14.4l-4.7,14.4
			H335.9z"/>
		<path class="st3" d="M58.8,477.4v-43.6h27.3v5.2H64.6v12h20v5.2h-20v16.2h21.5v5.2H58.8z"/>
		<path class="st3" d="M113,477.4h-4.6l-13.5-26.3v26.3h-3.8v-30.5h5.8l12.3,24.2v-24.2h3.8V477.4z"/>
		<path class="st3" d="M126.3,477.4v-26.9H116v-3.6h24.6v3.6h-10.3v26.9H126.3z"/>
		<path class="st3" d="M167.3,477.4h-5.3l-9.7-12.1h-4.6v12.1h-4.1v-30.5h7.9c1.8,0,3.2,0.1,4.4,0.3c1.2,0.2,2.3,0.6,3.4,1.3
			c1.1,0.7,1.9,1.6,2.5,2.6c0.6,1.1,0.9,2.4,0.9,4c0,2.2-0.6,4.1-1.7,5.6s-2.7,2.6-4.6,3.3L167.3,477.4z M158.6,455.4
			c0-0.9-0.2-1.7-0.5-2.4c-0.3-0.7-0.8-1.3-1.5-1.7c-0.6-0.4-1.2-0.7-2-0.8c-0.8-0.2-1.7-0.2-2.9-0.2h-4v11.5h3.6
			c1.2,0,2.2-0.1,3.1-0.3s1.7-0.6,2.4-1.3c0.6-0.6,1-1.3,1.3-2.1C158.4,457.4,158.6,456.5,158.6,455.4z"/>
		<path class="st3" d="M169.8,477.4v-30.5h19.1v3.6h-15v8.4h14v3.6h-14v11.3h15v3.6H169.8z"/>
		<path class="st3" d="M215.4,446.8l-10.5,30.5h-4.4l-10.5-30.5h4.3l8.4,25.3l8.4-25.3H215.4z"/>
		<path class="st3" d="M229,477.4h-11.9v-3.1h3.9V450h-3.9v-3.1H229v3.1h-3.9v24.3h3.9V477.4z"/>
		<path class="st3" d="M242.6,477.9c-2.2,0-4.1-0.2-5.7-0.7c-1.6-0.5-3-1-4.4-1.7v-5.1h0.3c1.3,1.3,2.9,2.2,4.6,2.9s3.3,1,4.9,1
			c2.2,0,3.9-0.5,5.1-1.4s1.7-2.2,1.7-3.7c0-1.2-0.3-2.2-0.9-3s-1.6-1.3-2.9-1.7c-0.9-0.3-1.8-0.5-2.6-0.7s-1.8-0.4-2.9-0.7
			c-1.1-0.3-2-0.6-2.8-1s-1.6-1-2.2-1.7c-0.6-0.7-1.1-1.5-1.5-2.4c-0.3-0.9-0.5-2-0.5-3.1c0-2.5,1-4.5,2.9-6.2
			c1.9-1.7,4.4-2.5,7.4-2.5c1.7,0,3.3,0.2,4.9,0.5c1.5,0.3,2.9,0.8,4.2,1.5v4.9h-0.3c-1-0.9-2.2-1.7-3.7-2.3s-3.1-1-4.8-1
			c-1.9,0-3.4,0.4-4.6,1.3c-1.2,0.9-1.7,2-1.7,3.5c0,1.3,0.3,2.3,1,3.1s1.7,1.3,3,1.7c0.9,0.2,1.9,0.5,3.2,0.8
			c1.2,0.3,2.3,0.6,3.1,0.8c2.1,0.6,3.6,1.6,4.6,2.9s1.5,2.9,1.5,4.8c0,1.2-0.2,2.4-0.7,3.5s-1.2,2.1-2,3c-1,0.9-2.1,1.6-3.3,2.1
			S244.4,477.9,242.6,477.9z"/>
		<path class="st3" d="M264.6,477.4v-26.9h-10.3v-3.6h24.6v3.6h-10.3v26.9H264.6z"/>
		<path class="st3" d="M276.3,477.4l10.3-30.5h5l10.3,30.5h-4.3l-2.8-8.5h-11.7l-2.8,8.5H276.3z M293.7,465.4L289,451l-4.7,14.4
			H293.7z"/>
		<path class="st3" d="M328.9,462.1c0,2.8-0.6,5.3-1.7,7.5c-1.1,2.2-2.6,4-4.5,5.3c-1.5,1-3.1,1.6-4.7,1.9c-1.6,0.3-3.6,0.5-6.1,0.5
			h-7v-30.5h7c2.9,0,5.1,0.2,6.8,0.6c1.6,0.4,3,1,4.2,1.8c2,1.3,3.5,3,4.6,5.2C328.3,456.6,328.9,459.2,328.9,462.1z M324.6,462.1
			c0-2.4-0.4-4.4-1.2-6c-0.8-1.7-1.9-3-3.5-3.9c-1.1-0.7-2.2-1.1-3.5-1.4s-2.8-0.4-4.6-0.4h-3.1v23.6h3.1c1.8,0,3.4-0.1,4.7-0.4
			s2.6-0.8,3.7-1.6c1.4-1,2.5-2.2,3.2-3.8C324.3,466.4,324.6,464.5,324.6,462.1z"/>
		<path class="st3" d="M354.9,450.4c1.2,1.3,2.1,3,2.7,5s1,4.2,1,6.8c0,2.5-0.3,4.7-0.9,6.7s-1.5,3.7-2.7,5
			c-1.2,1.4-2.7,2.5-4.4,3.1c-1.7,0.7-3.5,1-5.5,1c-2.1,0-3.9-0.3-5.6-1s-3.1-1.7-4.3-3.1c-1.2-1.4-2.1-3-2.7-5s-0.9-4.2-0.9-6.7
			c0-2.6,0.3-4.8,1-6.8c0.6-1.9,1.5-3.6,2.7-5c1.2-1.4,2.6-2.4,4.3-3.1c1.7-0.7,3.5-1.1,5.6-1.1c2.1,0,4,0.4,5.6,1.1
			S353.7,449,354.9,450.4z M354.3,462.1c0-2-0.2-3.8-0.7-5.4s-1.1-2.9-1.8-3.9c-0.8-1.1-1.8-1.8-2.9-2.4s-2.4-0.8-3.8-0.8
			c-1.5,0-2.8,0.3-3.9,0.8c-1.1,0.5-2.1,1.3-2.9,2.4c-0.8,1-1.4,2.3-1.9,3.9c-0.4,1.6-0.6,3.3-0.6,5.3c0,4,0.8,7.1,2.5,9.2
			c1.7,2.1,3.9,3.2,6.8,3.2s5.1-1.1,6.8-3.2C353.5,469.2,354.3,466.1,354.3,462.1z"/>
		<path class="st3" d="M386.6,477.4h-5.3l-9.7-12.1h-4.6v12.1H363v-30.5h7.9c1.8,0,3.2,0.1,4.4,0.3c1.2,0.2,2.3,0.6,3.4,1.3
			c1.1,0.7,1.9,1.6,2.5,2.6c0.6,1.1,0.9,2.4,0.9,4c0,2.2-0.6,4.1-1.7,5.6s-2.7,2.6-4.6,3.3L386.6,477.4z M377.9,455.4
			c0-0.9-0.2-1.7-0.5-2.4c-0.3-0.7-0.8-1.3-1.5-1.7c-0.6-0.4-1.2-0.7-2-0.8c-0.8-0.2-1.7-0.2-2.9-0.2h-4v11.5h3.6
			c1.2,0,2.2-0.1,3.1-0.3s1.7-0.6,2.4-1.3c0.6-0.6,1-1.3,1.3-2.1C377.7,457.4,377.9,456.5,377.9,455.4z"/>
	</g>
	<path class="st21" d="M381.3,512.2H59.1c-32.7,0-59.4-26.7-59.4-59.4v-393c0-32.7,26.7-59.4,59.4-59.4h322.2
		c32.7,0,59.4,26.7,59.4,59.4v393C440.7,485.4,413.9,512.2,381.3,512.2z"/>
</g>
</svg>
