<?xml version="1.0" encoding="utf-8"?>
<!-- Generator: Adobe Illustrator 21.0.0, SVG Export Plug-In . SVG Version: 6.00 Build 0)  -->
<svg version="1.1" id="Capa_1" xmlns="http://www.w3.org/2000/svg" xmlns:xlink="http://www.w3.org/1999/xlink" x="0px" y="0px"
	 viewBox="0 0 441 512" style="enable-background:new 0 0 441 512;" xml:space="preserve">
<style type="text/css">
	.st0{fill:#FF7F4F;}
	.st1{fill:#D35933;}
	.st2{fill:#386895;}
	.st3{fill:#273B7A;}
	.st4{fill:#121149;}
	.st5{fill:#38C6D9;}
	.st6{fill:#02B2B2;}
	.st7{fill:none;}
	.st8{fill:#FFFFFF;}
	.st9{fill:#6D0E64;}
	.st10{fill:#370732;}
	.st11{fill:#CFDBE6;}
	.st12{fill:#F9B54C;}
	.st13{fill:#F4A200;}
	.st14{fill:#4CDBC4;}
	.st15{fill:#05BEA6;}
	.st16{fill:#FF8E31;}
	.st17{fill:#ED7425;}
	.st18{fill:#5D6D7E;}
	.st19{fill:#34495E;}
	.st20{fill:#5E7D9B;}
	.st21{fill:#0684BA;}
	.st22{fill:#283A4D;}
	.st23{fill:#0578AB;}
	.st24{fill:#E5E9EC;}
	.st25{fill:#29ABE2;}
	.st26{fill:#324A5E;}
	.st27{fill:#2B3B4E;}
	.st28{fill:#E6E6E6;}
	.st29{fill:#FFD300;}
	.st30{fill:#FC6F58;}
	.st31{fill:#F1543F;}
	.st32{fill:#FFD15D;}
	.st33{fill:#67D6A4;}
	.st34{fill:#018C4D;}
	.st35{fill:#D4145A;}
	.st36{fill:#9E005D;}
	.st37{fill:#FFDA79;}
	.st38{fill:#FFD155;}
	.st39{fill:#36495E;}
	.st40{fill:#6A82A1;}
	.st41{fill:#2C3E50;}
	.st42{fill:#39B54A;}
	.st43{fill:#0575A5;}
	.st44{fill:#025E90;}
	.st45{fill:#C1D354;}
	.st46{fill:#71CC8D;}
	.st47{fill:url(#SVGID_1_);}
	.st48{opacity:0.15;}
	.st49{clip-path:url(#SVGID_3_);}
	.st50{fill:#4D4D4D;}
	.st51{fill:#B60C1B;}
</style>
<g>
	<g>
		<circle class="st35" cx="219.8" cy="183.2" r="160.7"/>
		<path class="st36" d="M184.4,260.3l-28.9,16.1l82.1,66.5c79.4-8.7,141.4-75.3,142.9-156.7l-99.6-83.4h-35.4l-36,3.6v82l-54-59.8
			l31.4,87.3l-4.5,2.6l22.3,22.3l-9.1,27.4L184.4,260.3z"/>
		<g>
			<path class="st37" d="M277.1,276.4H156.3c-4,0-7.2-3.2-7.2-7.2v-160c0-4,3.2-7.2,7.2-7.2h33.5c4,0,7.2,3.2,7.2,7.2V124h39.3
				v-14.8c0-4,3.2-7.2,7.2-7.2h33.5c4,0,7.2,3.2,7.2,7.2v160C284.3,273.1,281.1,276.4,277.1,276.4z"/>
			<path class="st38" d="M277.1,101.9h-33.5c-4,0-7.2,3.2-7.2,7.2V124h-19.6v152.4h60.4c4,0,7.2-3.2,7.2-7.2v-160
				C284.3,105.2,281.1,101.9,277.1,101.9z"/>
			<path class="st39" d="M243.6,138.5h-53.8c-4,0-7.2-3.2-7.2-7.2v-29c0-4,3.2-7.2,7.2-7.2h53.8c4,0,7.2,3.2,7.2,7.2v29
				C250.8,135.2,247.6,138.5,243.6,138.5z"/>
			<g>
				<path class="st40" d="M205.2,192.5H182c-4,0-7.2-3.2-7.2-7.2v-23.2c0-4,3.2-7.2,7.2-7.2h23.2c4,0,7.2,3.2,7.2,7.2v23.2
					C212.4,189.3,209.2,192.5,205.2,192.5z"/>
				<path class="st40" d="M205.2,244.7H182c-4,0-7.2-3.2-7.2-7.2v-23.2c0-4,3.2-7.2,7.2-7.2h23.2c4,0,7.2,3.2,7.2,7.2v23.2
					C212.4,241.4,209.2,244.7,205.2,244.7z"/>
			</g>
			<g>
				<path class="st41" d="M243.6,95h-26.9v43.5h26.9c4,0,7.2-3.2,7.2-7.2v-29C250.8,98.3,247.6,95,243.6,95z"/>
				<path class="st41" d="M251.4,181h-26.1c-4,0-7.2-3.2-7.2-7.2s3.2-7.2,7.2-7.2h26.1c4,0,7.2,3.2,7.2,7.2
					C258.6,177.7,255.4,181,251.4,181z"/>
				<path class="st41" d="M251.4,233.1h-26.1c-4,0-7.2-3.2-7.2-7.2c0-4,3.2-7.2,7.2-7.2h26.1c4,0,7.2,3.2,7.2,7.2
					C258.6,229.9,255.4,233.1,251.4,233.1z"/>
			</g>
		</g>
		<path class="st42" d="M228.3,150.2c-2.8-3-7.6-3.2-10.6-0.4l-21.2,19.5l-5.6-4.2c-2.8-2.1-6.7-1.5-8.8,1.3l-1.5,2
			c-2.1,2.8-1.5,6.7,1.3,8.8l10.5,7.9c1.4,1,3.1,1.4,4.7,1.2c1.9,0.1,3.9-0.6,5.4-2l25.3-23.4C230.9,158.1,231.1,153.3,228.3,150.2z
			"/>
	</g>
	<g>
		<rect x="1.2" y="380.5" class="st7" width="440.3" height="95.1"/>
		<path class="st8" d="M57.5,456.6v-64.1h40.1v7.6H66v17.6h29.4v7.6H66v23.8h31.5v7.6H57.5z"/>
		<path class="st8" d="M137,456.6h-6.7L110.5,418v38.7H105v-44.8h8.5l18,35.5v-35.5h5.6V456.6z"/>
		<path class="st8" d="M163.6,457.4c-2.9,0-5.6-0.5-8.1-1.5c-2.5-1-4.6-2.5-6.4-4.4c-1.8-1.9-3.2-4.4-4.2-7.3c-1-2.9-1.5-6.3-1.5-10
			c0-3.8,0.5-7,1.4-9.8c1-2.8,2.3-5.2,4.2-7.3c1.8-2,3.9-3.5,6.4-4.6c2.4-1.1,5.2-1.6,8.2-1.6c1.5,0,2.9,0.1,4.2,0.3
			c1.3,0.2,2.5,0.5,3.7,0.8c1,0.3,2,0.7,3,1.1c1,0.5,2,0.9,3,1.5v7.2h-0.5c-0.5-0.5-1.2-1.1-2-1.7s-1.8-1.4-3-2
			c-1.1-0.6-2.4-1.1-3.7-1.5c-1.3-0.4-2.9-0.6-4.7-0.6c-1.9,0-3.7,0.4-5.4,1.2c-1.7,0.8-3.2,1.9-4.5,3.5c-1.3,1.5-2.2,3.4-3,5.8
			c-0.7,2.3-1.1,4.9-1.1,7.8c0,3.1,0.4,5.7,1.1,7.9c0.7,2.2,1.8,4.1,3,5.6c1.2,1.5,2.7,2.6,4.4,3.4c1.7,0.8,3.5,1.1,5.4,1.1
			c1.7,0,3.3-0.2,4.8-0.6c1.5-0.4,2.8-1,3.9-1.6c1.1-0.6,2.1-1.3,2.9-1.9c0.8-0.7,1.4-1.2,1.9-1.7h0.5v7.1c-1,0.5-1.9,0.9-2.8,1.3
			c-0.9,0.4-1.9,0.8-3.2,1.2c-1.3,0.4-2.5,0.7-3.6,1S165.4,457.4,163.6,457.4z"/>
		<path class="st8" d="M198.8,457.6c-2.6,0-4.9-0.3-6.9-1s-3.6-1.7-5-3.1c-1.6-1.6-2.7-3.4-3.3-5.6c-0.6-2.2-1-4.9-1-8.1v-28h6v28
			c0,2.1,0.1,3.8,0.4,5.2c0.3,1.4,0.8,2.7,1.5,3.8c0.8,1.2,1.9,2.1,3.3,2.7c1.4,0.6,3.1,0.9,5,0.9c1.9,0,3.5-0.3,5-0.9
			c1.4-0.6,2.6-1.5,3.4-2.7c0.7-1.1,1.2-2.4,1.5-3.8c0.3-1.4,0.4-3.1,0.4-5.1v-28.1h6v28c0,3.1-0.3,5.8-0.9,8
			c-0.6,2.2-1.7,4.1-3.3,5.7c-1.4,1.4-3.1,2.4-5,3.1C203.9,457.2,201.6,457.6,198.8,457.6z"/>
		<path class="st8" d="M223.6,456.6v-44.8h28v5.3h-22.1v12.3h20.6v5.3h-20.6v16.7h22.1v5.3H223.6z"/>
		<path class="st8" d="M270.7,457.4c-3.3,0-6-0.3-8.3-1c-2.3-0.7-4.4-1.5-6.4-2.5v-7.5h0.4c2,1.8,4.2,3.3,6.7,4.3
			c2.5,1,4.9,1.5,7.2,1.5c3.3,0,5.8-0.7,7.5-2.1c1.7-1.4,2.5-3.2,2.5-5.4c0-1.8-0.4-3.2-1.3-4.4c-0.9-1.1-2.3-2-4.2-2.5
			c-1.4-0.4-2.7-0.7-3.8-1c-1.1-0.3-2.6-0.6-4.3-1.1c-1.5-0.4-2.9-0.9-4.2-1.5c-1.2-0.6-2.3-1.4-3.3-2.4c-0.9-1-1.6-2.1-2.2-3.5
			c-0.5-1.3-0.8-2.9-0.8-4.6c0-3.6,1.4-6.7,4.2-9.1c2.8-2.5,6.4-3.7,10.8-3.7c2.5,0,4.9,0.3,7.1,0.8c2.2,0.5,4.3,1.2,6.2,2.1v7.1
			h-0.5c-1.4-1.3-3.3-2.4-5.5-3.4c-2.2-1-4.6-1.5-7-1.5c-2.8,0-5,0.6-6.7,1.9c-1.7,1.3-2.6,3-2.6,5.1c0,1.9,0.5,3.4,1.5,4.5
			c1,1.1,2.5,1.9,4.4,2.5c1.3,0.3,2.8,0.7,4.6,1.2s3.3,0.8,4.5,1.2c3.1,0.9,5.4,2.4,6.8,4.3c1.4,1.9,2.1,4.3,2.1,7
			c0,1.7-0.4,3.5-1.1,5.2c-0.7,1.7-1.7,3.2-3,4.3c-1.4,1.3-3.1,2.3-4.9,3C275.7,457.1,273.4,457.4,270.7,457.4z"/>
		<path class="st8" d="M303.1,456.6v-39.5H288v-5.3h36.1v5.3H309v39.5H303.1z"/>
		<path class="st8" d="M320.3,456.6l15.1-44.8h7.3l15.1,44.8h-6.3l-4.1-12.5h-17.1l-4.1,12.5H320.3z M345.9,439l-6.9-21.1L332,439
			H345.9z"/>
		<path class="st8" d="M374.5,457.4c-3.3,0-6-0.3-8.3-1c-2.3-0.7-4.4-1.5-6.4-2.5v-7.5h0.4c2,1.8,4.2,3.3,6.7,4.3
			c2.5,1,4.9,1.5,7.2,1.5c3.3,0,5.8-0.7,7.5-2.1c1.7-1.4,2.5-3.2,2.5-5.4c0-1.8-0.4-3.2-1.3-4.4c-0.9-1.1-2.3-2-4.2-2.5
			c-1.4-0.4-2.7-0.7-3.8-1c-1.1-0.3-2.6-0.6-4.3-1.1c-1.5-0.4-2.9-0.9-4.2-1.5c-1.2-0.6-2.3-1.4-3.3-2.4c-0.9-1-1.6-2.1-2.2-3.5
			c-0.5-1.3-0.8-2.9-0.8-4.6c0-3.6,1.4-6.7,4.2-9.1c2.8-2.5,6.4-3.7,10.8-3.7c2.5,0,4.9,0.3,7.1,0.8c2.2,0.5,4.3,1.2,6.2,2.1v7.1
			h-0.5c-1.4-1.3-3.3-2.4-5.5-3.4c-2.2-1-4.6-1.5-7-1.5c-2.8,0-5,0.6-6.7,1.9c-1.7,1.3-2.6,3-2.6,5.1c0,1.9,0.5,3.4,1.5,4.5
			c1,1.1,2.5,1.9,4.4,2.5c1.3,0.3,2.8,0.7,4.6,1.2s3.3,0.8,4.5,1.2c3.1,0.9,5.4,2.4,6.8,4.3c1.4,1.9,2.1,4.3,2.1,7
			c0,1.7-0.4,3.5-1.1,5.2c-0.7,1.7-1.7,3.2-3,4.3c-1.4,1.3-3.1,2.3-4.9,3C379.5,457.1,377.2,457.4,374.5,457.4z"/>
	</g>
	<path class="st7" d="M382.2,511H60.5c-32.6,0-59.3-26.7-59.3-59.3V59.3C1.2,26.7,27.9,0,60.5,0h321.7c32.6,0,59.3,26.7,59.3,59.3
		v392.4C441.5,484.3,414.9,511,382.2,511z"/>
</g>
</svg>
