<?xml version="1.0" encoding="utf-8"?>
<!-- Generator: Adobe Illustrator 21.0.0, SVG Export Plug-In . SVG Version: 6.00 Build 0)  -->
<svg version="1.1" id="Capa_1" xmlns="http://www.w3.org/2000/svg" xmlns:xlink="http://www.w3.org/1999/xlink" x="0px" y="0px"
	 viewBox="0 0 441 516.6" style="enable-background:new 0 0 441 516.6;" xml:space="preserve">
<style type="text/css">
	.st0{fill:#90DFAA;}
	.st1{fill:#76B285;}
	.st2{fill:#324A5E;}
	.st3{fill:#FFFFFF;}
	.st4{fill:#E6E9EE;}
	.st5{fill:#FF7058;}
	.st6{fill:#54C0EB;}
	.st7{fill:#A952A5;}
	.st8{fill:#460C44;}
	.st9{fill:#FFDA79;}
	.st10{fill:#FFD155;}
	.st11{fill:#36495E;}
	.st12{fill:#6A82A1;}
	.st13{fill:#2C3E50;}
	.st14{fill:#FF7F4F;}
	.st15{fill:#D35933;}
	.st16{fill:#386895;}
	.st17{fill:#273B7A;}
	.st18{fill:#121149;}
	.st19{fill:#38C6D9;}
	.st20{fill:#02B2B2;}
	.st21{fill:none;}
	.st22{fill:#FEE187;}
	.st23{fill:#FFC61B;}
	.st24{fill:#B54324;}
	.st25{fill:#6D0E64;}
	.st26{fill:#370732;}
	.st27{fill:#CFDBE6;}
	.st28{fill:#F9B54C;}
	.st29{fill:#F4A200;}
	.st30{fill:#4CDBC4;}
	.st31{fill:#05BEA6;}
	.st32{fill:#FF8E31;}
	.st33{fill:#ED7425;}
	.st34{fill:#5D6D7E;}
	.st35{fill:#34495E;}
	.st36{fill:#5E7D9B;}
	.st37{fill:#0684BA;}
	.st38{fill:#283A4D;}
	.st39{fill:#0578AB;}
	.st40{fill:#E5E9EC;}
	.st41{fill:#29ABE2;}
	.st42{fill:#D9E021;}
	.st43{fill:#BCBC1E;}
	.st44{fill:#FF1D25;}
	.st45{fill:#2B3B4E;}
	.st46{fill:#E6E6E6;}
	.st47{fill:#FFD300;}
	.st48{fill:#FC6F58;}
	.st49{fill:#F1543F;}
	.st50{fill:#FFD15D;}
	.st51{fill:#67D6A4;}
	.st52{fill:#018C4D;}
	.st53{fill:#D4145A;}
	.st54{fill:#9E005D;}
	.st55{fill:#39B54A;}
	.st56{fill:#0575A5;}
	.st57{fill:#025E90;}
	.st58{fill:#C1D354;}
	.st59{fill:#71CC8D;}
	.st60{fill:url(#SVGID_1_);}
	.st61{opacity:0.15;}
	.st62{clip-path:url(#SVGID_3_);}
	.st63{fill:#4D4D4D;}
	.st64{fill:#B60C1B;}
	.st65{fill:#FDFEFE;}
	.st66{fill:#8CC63F;}
	.st67{fill:#648C2C;}
	.st68{fill:#9B4C00;}
	.st69{fill:#6D3802;}
	.st70{fill:#EAA22F;}
	.st71{fill:#FF5419;}
	.st72{fill:#C92F00;}
	.st73{fill:#FFEDB5;}
	.st74{fill:#B2760B;}
	.st75{fill:#B82033;}
	.st76{fill:#B98A90;}
	.st77{fill:#663434;}
	.st78{fill:#009245;}
	.st79{fill:#FBB03B;}
	.st80{fill:#F7931E;}
	.st81{fill:#ED1C24;}
	.st82{fill:#AF1924;}
	.st83{fill:#CCCCCC;}
	.st84{fill:#B3B3B3;}
	.st85{fill:#FD8469;}
	.st86{fill:#57442F;}
	.st87{fill:#FCD088;}
	.st88{fill:#DDAB62;}
	.st89{fill:#E8CF89;}
	.st90{fill:#B76D5C;}
	.st91{fill:#91483C;}
	.st92{fill:#FF0F27;}
	.st93{fill:#444444;}
	.st94{fill:#333333;}
	.st95{fill:#D48B07;}
	.st96{fill:#9B6207;}
	.st97{fill:#EFEFEF;}
	.st98{fill:#E2E2E2;}
	.st99{fill:#B2B2B2;}
	.st100{fill:#D75A4A;}
	.st101{fill:#ED8A19;}
	.st102{fill:#C7CAC7;}
	.st103{fill:#FBCE9D;}
	.st104{fill:#38454F;}
	.st105{fill:#F2ECBF;}
	.st106{fill:#EBBA16;}
	.st107{fill:#564825;}
	.st108{fill:#2B2413;}
	.st109{fill:#6B9130;}
	.st110{fill:#057236;}
	.st111{fill:#C69C6D;}
	.st112{fill:#754C24;}
	.st113{fill:#2487AA;}
	.st114{fill:#0071BC;}
	.st115{fill:#055A7F;}
	.st116{fill:#2E3192;}
	.st117{fill:#6A6E77;}
	.st118{fill:#D0223A;}
	.st119{fill:#008645;}
	.st120{fill:#FF7BAC;}
	.st121{fill:#CE6E95;}
	.st122{fill:#EA4949;}
	.st123{fill:#B54040;}
	.st124{fill:#EDBF00;}
	.st125{fill:#E8CA4B;}
	.st126{fill:#CE8505;}
	.st127{fill:#EA9C00;}
	.st128{fill:#297358;}
	.st129{fill:#4ABC96;}
	.st130{fill:#3CA57F;}
	.st131{fill:#369975;}
	.st132{fill:#CC013A;}
	.st133{clip-path:url(#SVGID_5_);}
	.st134{fill:#161616;}
	.st135{fill:url(#SVGID_6_);}
	.st136{clip-path:url(#SVGID_8_);}
	.st137{fill:#0F0F0F;}
	.st138{opacity:0.5;fill:#FFFFFF;}
	.st139{fill:#191919;}
	.st140{fill:#232323;}
	.st141{fill:#2D2D2D;}
	.st142{opacity:0.6;fill:url(#SVGID_9_);}
	.st143{opacity:0.5;fill:url(#SVGID_10_);}
	.st144{fill:#808080;}
	.st145{fill:#1B1464;}
	.st146{fill:#F2F2F2;}
	.st147{fill:#006837;}
	.st148{fill:#0191E9;}
	.st149{fill:#0067A0;}
	.st150{fill:#242424;}
	.st151{fill:#FFBE00;}
	.st152{fill:#F4502A;}
	.st153{fill:#C29100;}
	.st154{fill:#BA3D20;}
</style>
<g>
	<g>
		<path class="st151" d="M219,344.1c-45.7,0-89.3-19.5-119.8-53.6c-26.3-29.4-40.8-67.4-40.8-107c0-88.6,72-160.6,160.6-160.6
			c39.5,0,77.5,14.5,107,40.8c34.1,30.5,53.6,74.1,53.6,119.8C379.6,272.1,307.6,344.1,219,344.1"/>
		<path class="st152" d="M355.2,183.5c0,4.5-0.2,9-0.7,13.5c-0.9,9.4-2.8,18.6-5.6,27.3c-15.9,50.8-60.8,88.8-115.3,94.7
			c-0.3,0-0.7,0.1-1,0.1c-4.5,0.5-9,0.7-13.7,0.7c-40.4,0-76.7-17.6-101.6-45.5c-0.2-0.2-0.4-0.5-0.6-0.7c-21.2-24-34-55.5-34-90.1
			c0-75.2,61-136.2,136.2-136.2c34.5,0,66.1,12.8,90.1,34c0.2,0.2,0.5,0.4,0.7,0.6C337.7,106.9,355.2,143.1,355.2,183.5"/>
		<path class="st153" d="M118.9,275.9C118.9,275.9,118.9,276,118.9,275.9C118.9,276,118.9,275.9,118.9,275.9 M117,273.8
			c0.6,0.7,1.2,1.4,1.9,2.1c-0.5-0.5-1-1.1-1.5-1.6C117.3,274.1,117.1,274,117,273.8"/>
		<path class="st154" d="M219,47.3c-75.2,0-136.2,61-136.2,136.2c0,34.7,12.9,66.3,34.2,90.3c0.1,0.1,0.3,0.3,0.4,0.4
			c0.5,0.5,1,1.1,1.5,1.6c0,0,0,0,0,0c0,0,0.1,0.1,0.1,0.1c3.8,4.1,7.8,8,12.1,11.6c-20.1-23.7-32.2-54.4-32.2-87.9
			c0-75.2,61-136.2,136.2-136.2c33.5,0,64.2,12.1,87.9,32.2C298.1,66,260.7,47.3,219,47.3"/>
		<path class="st154" d="M210.3,109c-3.3,0-5.9,0.4-7.5,1.3c-12.6,7.1-44.2,31.5-44.2,31.5l46.6,46.2l-9.3,10.6l-38.1-37.7
			c0,0-28.9,25.7-1.1,70.2l1.4,12.2l75.6,75.6c54.5-5.8,99.4-43.8,115.3-94.7c2.7-8.8,4.6-17.9,5.6-27.3l-70.2-70.1
			C284.4,126.8,232.2,109,210.3,109"/>
		<g>
			<path class="st3" d="M251.1,241H191c-1.7,0-3.4-1.2-3.4-3.1v-31.6c0-1.8,0.7-3.9,1.9-5.8c5-7.6,11.6-14.2,17.5-19.9
				c8.1-7.9,15.1-14.8,15.1-21.7c0-0.9-0.1-1.4-0.2-1.6c-0.7,0.5-2.1,3.3-2.1,7.3c0,1.8-1.4,3.3-3.3,3.3l-24.6-1.1
				c-3.8-0.3-3.8-2.5-3.8-9.1c0-22.1,13.6-37.6,33.1-37.6c22.7,0,34.6,18.7,34.6,37.1c0,23.2-11.8,34.2-30.1,47.2l25.7,0
				c1.9,0,3.3,1.5,3.3,3.4v30C254.7,239.4,253.6,241,251.1,241z M191.6,237h59.1v-28.7h-28.5c-2,0-2.9-1.3-2.9-2.6
				c0-1.2,0.8-2.2,1.2-2.5c0.1-0.1,0.2-0.2,0.3-0.2c18.8-13.1,31.1-23.4,31.1-45.8c0-16.4-10.5-33.1-30.6-33.1
				c-20.1,0-29.1,16.9-29.1,33.6c0,2.3,0,4.3,0.1,5.1l23.6,1.1c0.2-5.3,2.4-10.6,6.1-10.6c1,0,4.2,0.4,4.2,5.6
				c0,8.6-7.6,16-16.3,24.6c-5.7,5.6-12.2,11.9-16.9,19.2c-1.2,1.8-1.3,3.3-1.3,3.7V237z M251.4,208.3L251.4,208.3L251.4,208.3z"/>
		</g>
		<path class="st66" d="M303.9,179.3c0,12.2-2.7,23.7-7.5,34.1l-15.3-8.1c3.6-7.9,5.5-16.7,5.5-25.9c0-35-28.5-63.5-63.5-63.5
			c-13.6,0-26.6,4.3-37.4,12.2l14.5,16.1l-41.5-2.2l2.2-41.5l13.2,14.7c14-10.7,31.1-16.6,49-16.6
			C267.6,98.5,303.9,134.8,303.9,179.3z"/>
		<path class="st66" d="M135,186.8c0-12.2,2.7-23.7,7.5-34.1l15.3,8.1c-3.6,7.9-5.5,16.7-5.5,25.9c0,35,28.5,63.5,63.5,63.5
			c13.6,0,26.6-4.3,37.4-12.2L238.7,222l41.5,2.2l-2.2,41.5l-13.2-14.7c-14,10.7-31.1,16.6-49,16.6C171.2,267.7,135,231.4,135,186.8
			z"/>
		<g>
			<path class="st2" d="M206.9,228.4l-15.1-9.7l63-98.4c2.7-4.2,8.2-5.4,12.4-2.7l0,0c4.2,2.7,5.4,8.2,2.7,12.4L206.9,228.4z"/>
			<path class="st45" d="M267.1,117.7L267.1,117.7c0,0-0.1,0-0.1-0.1l-67.7,106l7.6,4.9l63-98.4
				C272.5,125.9,271.3,120.3,267.1,117.7z"/>
			<polygon class="st28" points="189.6,238.7 206.9,228.4 191.7,218.8 			"/>
			<polygon class="st29" points="189.6,238.6 189.6,238.7 206.9,228.4 199.2,223.6 			"/>
		</g>
	</g>
	<g>
		<rect x="0.3" y="341.7" class="st21" width="440.5" height="208.3"/>
		<path class="st3" d="M71.4,406.4v-54.5h34.1v6.4H78.7v14.9h25v6.4h-25V400h26.8v6.4H71.4z"/>
		<path class="st3" d="M139.2,406.4h-5.7l-16.9-32.9v32.9h-4.7v-38.2h7.2l15.4,30.2v-30.2h4.7V406.4z"/>
		<path class="st3" d="M155.8,406.4v-33.7H143v-4.5h30.7v4.5h-12.8v33.7H155.8z"/>
		<path class="st3" d="M207.1,406.4h-6.6l-12.1-15.2h-5.8v15.2h-5.1v-38.2h9.8c2.2,0,4,0.1,5.5,0.4c1.5,0.2,2.9,0.8,4.2,1.7
			c1.3,0.9,2.4,2,3.2,3.3s1.2,3,1.2,5c0,2.8-0.7,5.1-2.1,7c-1.4,1.9-3.3,3.3-5.8,4.2L207.1,406.4z M196.2,379c0-1.1-0.2-2.1-0.6-3
			s-1-1.6-1.8-2.1c-0.7-0.5-1.6-0.8-2.5-1c-1-0.2-2.1-0.3-3.6-0.3h-5V387h4.5c1.5,0,2.8-0.1,3.9-0.4s2.2-0.8,3-1.6
			c0.7-0.7,1.3-1.6,1.6-2.6C196,381.5,196.2,380.3,196.2,379z"/>
		<path class="st3" d="M210.2,406.4v-38.2H234v4.5h-18.8v10.5h17.5v4.5h-17.5v14.2H234v4.5H210.2z"/>
		<path class="st3" d="M267.3,368.3l-13.1,38.2h-5.5l-13.1-38.2h5.4l10.6,31.7l10.6-31.7H267.3z"/>
		<path class="st3" d="M284.3,406.4h-14.8v-3.9h4.9v-30.4h-4.9v-3.9h14.8v3.9h-4.9v30.4h4.9V406.4z"/>
		<path class="st3" d="M301.2,407.1c-2.8,0-5.1-0.3-7.1-0.9c-1.9-0.6-3.8-1.3-5.5-2.1v-6.4h0.4c1.7,1.6,3.6,2.8,5.7,3.7
			c2.1,0.9,4.2,1.3,6.1,1.3c2.8,0,4.9-0.6,6.4-1.8s2.2-2.7,2.2-4.6c0-1.5-0.4-2.8-1.1-3.7s-1.9-1.7-3.6-2.1
			c-1.2-0.3-2.3-0.6-3.2-0.8c-1-0.2-2.2-0.5-3.7-0.9c-1.3-0.3-2.5-0.8-3.5-1.3c-1-0.5-2-1.2-2.8-2.1c-0.8-0.8-1.4-1.8-1.8-3
			c-0.4-1.1-0.7-2.4-0.7-3.9c0-3.1,1.2-5.7,3.6-7.8c2.4-2.1,5.5-3.1,9.2-3.1c2.1,0,4.2,0.2,6.1,0.6c1.9,0.4,3.7,1,5.3,1.8v6.1h-0.4
			c-1.2-1.1-2.8-2.1-4.7-2.9c-1.9-0.8-3.9-1.2-6-1.2c-2.4,0-4.3,0.6-5.7,1.7c-1.5,1.1-2.2,2.6-2.2,4.3c0,1.6,0.4,2.9,1.3,3.9
			s2.1,1.7,3.7,2.1c1.1,0.3,2.4,0.6,3.9,1c1.6,0.4,2.8,0.7,3.9,1c2.6,0.8,4.6,2,5.8,3.6c1.2,1.6,1.8,3.6,1.8,6c0,1.5-0.3,3-0.9,4.4
			c-0.6,1.5-1.5,2.7-2.6,3.7c-1.2,1.1-2.6,2-4.2,2.6S303.5,407.1,301.2,407.1z"/>
		<path class="st3" d="M328.7,406.4v-33.7h-12.8v-4.5h30.7v4.5h-12.8v33.7H328.7z"/>
		<path class="st3" d="M343.3,406.4l12.9-38.2h6.3l12.9,38.2H370l-3.5-10.7h-14.6l-3.5,10.7H343.3z M365.1,391.4l-5.9-18l-5.9,18
			H365.1z"/>
		<path class="st3" d="M92.9,486.4H59.2v-7.7c2.4-2.3,4.7-4.5,6.8-6.6c2.1-2.1,4.2-4.3,6.3-6.6c4.2-4.6,7-8.2,8.5-11
			c1.5-2.7,2.3-5.6,2.3-8.5c0-1.5-0.2-2.8-0.7-4c-0.5-1.1-1.1-2.1-2-2.9c-0.9-0.7-1.8-1.3-3-1.6s-2.4-0.5-3.7-0.5
			c-1.3,0-2.6,0.2-3.9,0.5c-1.3,0.3-2.6,0.7-3.8,1.2c-1,0.4-2,0.9-3,1.5c-1,0.6-1.7,1.1-2.3,1.5h-0.4v-7.8c1.5-0.8,3.6-1.5,6.3-2.2
			c2.7-0.7,5.3-1.1,7.7-1.1c5.1,0,9.1,1.3,11.9,4s4.3,6.4,4.3,11c0,2.1-0.3,4.1-0.8,5.9c-0.5,1.8-1.2,3.5-2.1,5
			c-0.9,1.6-2,3.2-3.3,4.7s-2.6,3.1-4,4.6c-2.3,2.5-4.9,5.1-7.7,7.8c-2.8,2.7-5.1,4.8-6.8,6.4h26.8V486.4z"/>
		<path class="st3" d="M130.1,467.4c0,3.5-0.7,6.6-2.1,9.4c-1.4,2.8-3.3,5-5.7,6.6c-1.9,1.2-3.9,2-5.9,2.4c-2,0.4-4.5,0.6-7.6,0.6
			H100v-38.2h8.7c3.6,0,6.4,0.3,8.4,0.8c2,0.5,3.8,1.3,5.2,2.2c2.5,1.6,4.4,3.8,5.7,6.5C129.5,460.5,130.1,463.7,130.1,467.4z
			 M124.9,467.3c0-2.9-0.5-5.4-1.5-7.5c-1-2.1-2.4-3.7-4.3-4.9c-1.3-0.8-2.8-1.4-4.3-1.8c-1.5-0.4-3.5-0.5-5.7-0.5h-3.9v29.5h3.9
			c2.3,0,4.2-0.2,5.9-0.5c1.7-0.4,3.2-1,4.6-2c1.8-1.2,3.1-2.8,4-4.8C124.4,472.8,124.9,470.3,124.9,467.3z"/>
		<path class="st3" d="M131.5,486.4l12.9-38.2h6.3l12.9,38.2h-5.4l-3.5-10.7h-14.6l-3.5,10.7H131.5z M153.3,471.4l-5.9-18l-5.9,18
			H153.3z"/>
		<path class="st3" d="M179,486.4h-8.8V476h8.8V486.4z"/>
		<path class="st3" d="M240.9,448.3l-13.1,38.2h-5.5l-13.1-38.2h5.4l10.6,31.7l10.6-31.7H240.9z"/>
		<path class="st3" d="M257.9,487.2c-2.2,0-4.2-0.3-5.9-0.9s-3.1-1.5-4.3-2.6c-1.3-1.3-2.3-2.9-2.8-4.8s-0.8-4.1-0.8-6.9v-23.8h5.1
			v23.8c0,1.8,0.1,3.2,0.3,4.4c0.2,1.2,0.7,2.3,1.3,3.2c0.7,1,1.6,1.8,2.8,2.3c1.2,0.5,2.6,0.8,4.3,0.8c1.6,0,3-0.3,4.2-0.8
			s2.2-1.3,2.9-2.3c0.6-1,1.1-2.1,1.3-3.2c0.2-1.2,0.3-2.6,0.3-4.3v-23.9h5.1v23.8c0,2.6-0.3,4.9-0.8,6.8c-0.5,1.9-1.5,3.5-2.8,4.8
			c-1.2,1.2-2.6,2.1-4.2,2.6C262.2,486.9,260.3,487.2,257.9,487.2z"/>
		<path class="st3" d="M279,486.4v-38.2h23.9v4.5h-18.8v10.5h17.5v4.5h-17.5v14.2h18.8v4.5H279z"/>
		<path class="st3" d="M330.6,486.4h-22.1v-38.2h5.1v33.7h17V486.4z"/>
		<path class="st3" d="M339.4,486.4v-33.7h-12.8v-4.5h30.7v4.5h-12.8v33.7H339.4z"/>
		<path class="st3" d="M354,486.4l12.9-38.2h6.3l12.9,38.2h-5.4l-3.5-10.7h-14.6l-3.5,10.7H354z M375.8,471.4l-5.9-18l-5.9,18H375.8
			z"/>
	</g>
	<path class="st21" d="M422.3,511.1H18.7c-10.1,0-18.4-8.3-18.4-18.4V18.3C0.3,8.2,8.6-0.1,18.7-0.1h403.6
		c10.1,0,18.4,8.3,18.4,18.4v474.3C440.7,502.8,432.4,511.1,422.3,511.1z"/>
</g>
</svg>
