<?xml version="1.0" encoding="utf-8"?>
<!-- Generator: Adobe Illustrator 21.0.0, SVG Export Plug-In . SVG Version: 6.00 Build 0)  -->
<svg version="1.1" id="Capa_1" xmlns="http://www.w3.org/2000/svg" xmlns:xlink="http://www.w3.org/1999/xlink" x="0px" y="0px"
	 viewBox="0 0 441 516.6" style="enable-background:new 0 0 441 516.6;" xml:space="preserve">
<style type="text/css">
	.st0{fill:#FF7F4F;}
	.st1{fill:#D35933;}
	.st2{fill:#386895;}
	.st3{fill:#273B7A;}
	.st4{fill:#121149;}
	.st5{fill:#38C6D9;}
	.st6{fill:#02B2B2;}
	.st7{fill:none;}
	.st8{fill:#FFFFFF;}
	.st9{fill:#6D0E64;}
	.st10{fill:#370732;}
	.st11{fill:#CFDBE6;}
	.st12{fill:#F9B54C;}
	.st13{fill:#F4A200;}
	.st14{fill:#4CDBC4;}
	.st15{fill:#05BEA6;}
	.st16{fill:#FF8E31;}
	.st17{fill:#ED7425;}
	.st18{fill:#5D6D7E;}
	.st19{fill:#34495E;}
	.st20{fill:#5E7D9B;}
	.st21{fill:#0684BA;}
	.st22{fill:#283A4D;}
	.st23{fill:#0578AB;}
	.st24{fill:#E5E9EC;}
	.st25{fill:#29ABE2;}
	.st26{fill:#324A5E;}
	.st27{fill:#2B3B4E;}
	.st28{fill:#E6E6E6;}
	.st29{fill:#FFD300;}
	.st30{fill:#FC6F58;}
	.st31{fill:#F1543F;}
	.st32{fill:#FFD15D;}
	.st33{fill:#67D6A4;}
	.st34{fill:#018C4D;}
	.st35{fill:#D4145A;}
	.st36{fill:#9E005D;}
	.st37{fill:#FFDA79;}
	.st38{fill:#FFD155;}
	.st39{fill:#36495E;}
	.st40{fill:#6A82A1;}
	.st41{fill:#2C3E50;}
	.st42{fill:#39B54A;}
	.st43{fill:#0575A5;}
	.st44{fill:#025E90;}
	.st45{fill:#C1D354;}
	.st46{fill:#71CC8D;}
	.st47{fill:url(#SVGID_1_);}
	.st48{opacity:0.15;}
	.st49{clip-path:url(#SVGID_3_);}
	.st50{fill:#4D4D4D;}
	.st51{fill:#B60C1B;}
	.st52{fill:#8CC63F;}
	.st53{fill:#648C2C;}
	.st54{fill:#9B4C00;}
	.st55{fill:#6D3802;}
	.st56{fill:#FFC61B;}
	.st57{fill:#EAA22F;}
	.st58{fill:#B54324;}
	.st59{fill:#FF5419;}
	.st60{fill:#C92F00;}
	.st61{fill:#FFEDB5;}
	.st62{fill:#B2760B;}
	.st63{fill:#B82033;}
	.st64{fill:#B98A90;}
	.st65{fill:#663434;}
</style>
<g>
	<g>
		<circle class="st52" cx="220.1" cy="186.5" r="161.8"/>
		<path class="st53" d="M375.1,232.8L343,199.4l-29.1-3.2L242.7,125l-6.5-3.2c-12.9,12.9-42.1-16.2-42.1-16.2l15.1,18.7
			c-18,0.4-34.3,7.3-46.6,18.6c-14.4,13.1-23.5,32-23.5,52.9c0,17.6,6.3,33.7,16.9,46.1l8.6,8.6l93.3,93.3
			C314,330.3,358.7,287.7,375.1,232.8z"/>
		<g>
			<path class="st54" d="M343.6,201.4c-1.8-3.3-5.3-5.4-9-5.4H307c-2.3,0-4.6,0.8-6.4,2.3l-12,9.7l-18.8-8.4v-34
				c0-2.2-0.7-4.3-1.9-6l-23.2-32c-1.9-2.7-5-4.2-8.3-4.2h-3.9h-10.1l-22-16.1c-2.7-2-6.1-2.5-9.3-1.5l-24,7.9l-33.1-13.6
				c-3.4-1.4-7.3-0.9-10.2,1.4c-2.9,2.3-4.4,5.9-3.8,9.6l5.7,37.8c-4.2,2.2-6.3,7.2-4.9,11.9l14.1,48.3c1.5,5.2,6.8,8.3,12,7.1
				c5.3-1.2,8.7-6.2,7.9-11.5l-7-46.4l43.5,71.4c0.8,1.2,1.8,2.3,3,3.1l33.9,23.1c1.3,0.9,2.7,1.4,4.2,1.7c0.5,0.1,1,0.1,1.5,0.1
				H307c3.4,0,6.6-1.7,8.5-4.5l27.6-41C345.2,208.8,345.4,204.7,343.6,201.4z"/>
			<path class="st55" d="M334.6,195.9H307c-2.3,0-4.6,0.8-6.4,2.3l-12,9.7l-18.8-8.4v-34c0-2.2-0.7-4.3-1.9-6l-23.2-32
				c-1.9-2.7-5-4.2-8.3-4.2h-3.9v134c0.5,0.1,1,0.1,1.5,0.1H307c3.4,0,6.6-1.7,8.5-4.5l27.6-41c2.1-3.1,2.3-7.2,0.6-10.5
				C341.9,198,338.4,195.9,334.6,195.9z"/>
		</g>
		<g>
			<path class="st56" d="M170.6,215.6h58.1c4.5,0,8.1-3.6,8.1-8.1v-78.4c0-4.5-3.6-8.1-8.1-8.1h-58.1V215.6L170.6,215.6z"/>
			<path class="st57" d="M170.6,168.1v47.5h58.1c4.5,0,8.1-3.6,8.1-8.1v-39.4L170.6,168.1L170.6,168.1z"/>
			<polygon class="st1" points="223.1,153.8 213.3,149.1 203.4,153.8 203.4,120.9 223.1,120.9 			"/>
			<polygon class="st58" points="213,120.9 213,149.2 213.3,149.1 223.1,153.8 223.1,120.9 			"/>
			<rect x="161.2" y="120.9" class="st59" width="18.9" height="94.7"/>
			<rect x="161.2" y="168.1" class="st60" width="18.9" height="47.5"/>
			<g>
				<rect x="189.6" y="182" class="st61" width="37.9" height="3.4"/>
				<rect x="189.6" y="188.9" class="st61" width="37.9" height="3.4"/>
			</g>
		</g>
	</g>
	<g>
		<rect y="345" class="st7" width="443.4" height="205.8"/>
		<path class="st8" d="M89.8,389.5c0,5.9-1.2,11.2-3.6,15.9c-2.4,4.7-5.6,8.4-9.6,11.1c-3.3,2.1-6.6,3.4-9.9,4.1
			c-3.4,0.7-7.7,1-12.9,1H39v-64.5h14.7c6.1,0,10.8,0.5,14.3,1.4c3.5,0.9,6.4,2.2,8.8,3.7c4.2,2.7,7.4,6.4,9.7,10.9
			C88.7,377.7,89.8,383.2,89.8,389.5z M80.9,389.3c0-5-0.8-9.2-2.5-12.7c-1.6-3.5-4.1-6.2-7.3-8.2c-2.3-1.4-4.7-2.4-7.3-3
			s-5.8-0.9-9.7-0.9h-6.5v49.8h6.5c3.8,0,7.1-0.3,10-0.9s5.5-1.7,7.8-3.4c3-2,5.2-4.7,6.7-8.1C80.2,398.5,80.9,394.3,80.9,389.3z"/>
		<path class="st8" d="M113,421.6H95.4V417h5.8v-35.9h-5.8v-4.6H113v4.6h-5.8V417h5.8V421.6z"/>
		<path class="st8" d="M155.3,421.6h-7.8l-14.3-18h-6.9v18h-6v-45.2H132c2.6,0,4.8,0.1,6.5,0.4c1.7,0.3,3.4,0.9,5,2
			c1.6,1,2.8,2.3,3.7,3.9c0.9,1.6,1.4,3.6,1.4,5.9c0,3.3-0.8,6.1-2.5,8.3c-1.7,2.2-4,3.9-6.9,4.9L155.3,421.6z M142.4,389.2
			c0-1.3-0.2-2.5-0.7-3.5s-1.2-1.9-2.2-2.5c-0.8-0.6-1.8-1-3-1.2c-1.1-0.2-2.5-0.3-4.2-0.3h-5.9v17h5.3c1.7,0,3.3-0.2,4.6-0.5
			c1.4-0.3,2.5-0.9,3.5-1.9c0.9-0.8,1.5-1.9,1.9-3C142.1,392.1,142.4,390.8,142.4,389.2z"/>
		<path class="st8" d="M158.9,421.6v-45.2h28.2v5.3h-22.2v12.4h20.7v5.3h-20.7v16.8h22.2v5.3H158.9z"/>
		<path class="st8" d="M211.4,422.5c-3,0-5.7-0.5-8.1-1.5s-4.6-2.5-6.4-4.4c-1.8-2-3.2-4.4-4.2-7.3c-1-2.9-1.5-6.3-1.5-10.1
			c0-3.8,0.5-7.1,1.4-9.9c1-2.8,2.4-5.3,4.2-7.3c1.8-2,3.9-3.6,6.4-4.6c2.5-1.1,5.2-1.6,8.3-1.6c1.5,0,2.9,0.1,4.3,0.3
			s2.6,0.5,3.7,0.8c1,0.3,2,0.7,3,1.1c1,0.5,2,1,3,1.5v7.2H225c-0.5-0.5-1.2-1.1-2-1.8c-0.8-0.7-1.8-1.4-3-2
			c-1.2-0.6-2.4-1.1-3.8-1.5c-1.4-0.4-2.9-0.6-4.7-0.6c-1.9,0-3.7,0.4-5.5,1.2c-1.7,0.8-3.2,2-4.5,3.5c-1.3,1.5-2.3,3.5-3,5.8
			c-0.7,2.3-1.1,4.9-1.1,7.9c0,3.1,0.4,5.8,1.1,8s1.8,4.1,3.1,5.7c1.3,1.5,2.7,2.6,4.4,3.4c1.7,0.8,3.5,1.1,5.4,1.1
			c1.7,0,3.3-0.2,4.8-0.6c1.5-0.4,2.8-1,3.9-1.6c1.1-0.6,2.1-1.3,2.9-1.9s1.4-1.2,1.9-1.7h0.5v7.2c-1,0.5-1.9,0.9-2.8,1.3
			c-0.9,0.4-1.9,0.8-3.2,1.2c-1.3,0.4-2.5,0.7-3.7,1C214.7,422.3,213.2,422.5,211.4,422.5z"/>
		<path class="st8" d="M241.6,421.6v-39.8h-15.2v-5.3h36.3v5.3h-15.2v39.8H241.6z"/>
		<path class="st8" d="M297.8,381.7c1.7,2,3.1,4.4,4,7.4c1,2.9,1.4,6.3,1.4,10c0,3.7-0.5,7-1.4,9.9s-2.3,5.4-4,7.4
			c-1.8,2.1-4,3.7-6.4,4.7c-2.5,1-5.2,1.5-8.1,1.5c-3.1,0-5.8-0.5-8.2-1.5s-4.5-2.6-6.3-4.6c-1.7-2-3.1-4.5-4-7.4s-1.4-6.2-1.4-9.9
			c0-3.8,0.5-7.1,1.4-10c0.9-2.9,2.3-5.3,4-7.4c1.7-2,3.8-3.5,6.3-4.6c2.5-1,5.2-1.6,8.2-1.6c3.1,0,5.8,0.5,8.3,1.6
			S296.1,379.7,297.8,381.7z M297,399.1c0-3-0.3-5.6-1-7.9c-0.6-2.3-1.6-4.2-2.7-5.7c-1.2-1.6-2.6-2.7-4.3-3.5s-3.6-1.2-5.7-1.2
			c-2.2,0-4.1,0.4-5.7,1.1c-1.6,0.8-3.1,1.9-4.3,3.5c-1.2,1.5-2.1,3.5-2.7,5.8c-0.6,2.3-1,5-1,7.9c0,5.9,1.2,10.5,3.7,13.6
			c2.5,3.1,5.8,4.7,10,4.7c4.2,0,7.5-1.6,10-4.7C295.8,409.5,297,405,297,399.1z"/>
		<path class="st8" d="M344.8,421.6H337l-14.3-18h-6.9v18h-6v-45.2h11.6c2.6,0,4.8,0.1,6.5,0.4c1.7,0.3,3.4,0.9,5,2
			c1.6,1,2.8,2.3,3.7,3.9c0.9,1.6,1.4,3.6,1.4,5.9c0,3.3-0.8,6.1-2.5,8.3c-1.7,2.2-4,3.9-6.9,4.9L344.8,421.6z M331.8,389.2
			c0-1.3-0.2-2.5-0.7-3.5s-1.2-1.9-2.2-2.5c-0.8-0.6-1.8-1-3-1.2c-1.1-0.2-2.5-0.3-4.2-0.3h-5.9v17h5.3c1.7,0,3.3-0.2,4.6-0.5
			c1.4-0.3,2.5-0.9,3.5-1.9c0.9-0.8,1.5-1.9,1.9-3C331.6,392.1,331.8,390.8,331.8,389.2z"/>
		<path class="st8" d="M364.2,421.6h-17.5V417h5.8v-35.9h-5.8v-4.6h17.5v4.6h-5.8V417h5.8V421.6z"/>
		<path class="st8" d="M403.5,381.7c1.7,2,3.1,4.4,4,7.4c1,2.9,1.4,6.3,1.4,10c0,3.7-0.5,7-1.4,9.9s-2.3,5.4-4,7.4
			c-1.8,2.1-4,3.7-6.4,4.7c-2.5,1-5.2,1.5-8.1,1.5c-3.1,0-5.8-0.5-8.2-1.5s-4.5-2.6-6.3-4.6c-1.7-2-3.1-4.5-4-7.4s-1.4-6.2-1.4-9.9
			c0-3.8,0.5-7.1,1.4-10c0.9-2.9,2.3-5.3,4-7.4c1.7-2,3.8-3.5,6.3-4.6c2.5-1,5.2-1.6,8.2-1.6c3.1,0,5.8,0.5,8.3,1.6
			S401.8,379.7,403.5,381.7z M402.7,399.1c0-3-0.3-5.6-1-7.9c-0.6-2.3-1.6-4.2-2.7-5.7c-1.2-1.6-2.6-2.7-4.3-3.5s-3.6-1.2-5.7-1.2
			c-2.2,0-4.1,0.4-5.7,1.1c-1.6,0.8-3.1,1.9-4.3,3.5c-1.2,1.5-2.1,3.5-2.7,5.8c-0.6,2.3-1,5-1,7.9c0,5.9,1.2,10.5,3.7,13.6
			c2.5,3.1,5.8,4.7,10,4.7c4.2,0,7.5-1.6,10-4.7C401.4,409.5,402.7,405,402.7,399.1z"/>
		<path class="st8" d="M119.1,501.6h-9.6L81,446v55.6h-8v-64.5h12.2l26,51.1v-51.1h8V501.6z"/>
		<path class="st8" d="M125.4,501.6l15.2-45.2h7.4l15.2,45.2h-6.3l-4.1-12.6h-17.3l-4.1,12.6H125.4z M151.1,483.9l-7-21.3l-6.9,21.3
			H151.1z"/>
		<path class="st8" d="M185.1,502.5c-3,0-5.7-0.5-8.1-1.5s-4.6-2.5-6.4-4.4c-1.8-2-3.2-4.4-4.2-7.3c-1-2.9-1.5-6.3-1.5-10.1
			c0-3.8,0.5-7.1,1.4-9.9c1-2.8,2.4-5.3,4.2-7.3c1.8-2,3.9-3.6,6.4-4.6c2.5-1.1,5.2-1.6,8.3-1.6c1.5,0,2.9,0.1,4.3,0.3
			s2.6,0.5,3.7,0.8c1,0.3,2,0.7,3,1.1c1,0.5,2,1,3,1.5v7.2h-0.5c-0.5-0.5-1.2-1.1-2-1.8c-0.8-0.7-1.8-1.4-3-2
			c-1.2-0.6-2.4-1.1-3.8-1.5c-1.4-0.4-2.9-0.6-4.7-0.6c-1.9,0-3.7,0.4-5.5,1.2c-1.7,0.8-3.2,2-4.5,3.5c-1.3,1.5-2.3,3.5-3,5.8
			c-0.7,2.3-1.1,4.9-1.1,7.9c0,3.1,0.4,5.8,1.1,8s1.8,4.1,3.1,5.7c1.3,1.5,2.7,2.6,4.4,3.4c1.7,0.8,3.5,1.1,5.4,1.1
			c1.7,0,3.3-0.2,4.8-0.6c1.5-0.4,2.8-1,3.9-1.6c1.1-0.6,2.1-1.3,2.9-1.9s1.4-1.2,1.9-1.7h0.5v7.2c-1,0.5-1.9,0.9-2.8,1.3
			c-0.9,0.4-1.9,0.8-3.2,1.2c-1.3,0.4-2.5,0.7-3.7,1C188.4,502.3,186.9,502.5,185.1,502.5z"/>
		<path class="st8" d="M220.6,501.6H203V497h5.8v-35.9H203v-4.6h17.5v4.6h-5.8V497h5.8V501.6z"/>
		<path class="st8" d="M259.9,461.7c1.7,2,3.1,4.4,4,7.4c1,2.9,1.4,6.3,1.4,10c0,3.7-0.5,7-1.4,9.9s-2.3,5.4-4,7.4
			c-1.8,2.1-4,3.7-6.4,4.7c-2.5,1-5.2,1.5-8.1,1.5c-3.1,0-5.8-0.5-8.2-1.5s-4.5-2.6-6.3-4.6c-1.7-2-3.1-4.5-4-7.4s-1.4-6.2-1.4-9.9
			c0-3.8,0.5-7.1,1.4-10c0.9-2.9,2.3-5.3,4-7.4c1.7-2,3.8-3.5,6.3-4.6c2.5-1,5.2-1.6,8.2-1.6c3.1,0,5.8,0.5,8.3,1.6
			S258.2,459.7,259.9,461.7z M259.1,479.1c0-3-0.3-5.6-1-7.9c-0.6-2.3-1.6-4.2-2.7-5.7c-1.2-1.6-2.6-2.7-4.3-3.5s-3.6-1.2-5.7-1.2
			c-2.2,0-4.1,0.4-5.7,1.1c-1.6,0.8-3.1,1.9-4.3,3.5c-1.2,1.5-2.1,3.5-2.7,5.8c-0.6,2.3-1,5-1,7.9c0,5.9,1.2,10.5,3.7,13.6
			c2.5,3.1,5.8,4.7,10,4.7c4.2,0,7.5-1.6,10-4.7C257.8,489.5,259.1,485,259.1,479.1z"/>
		<path class="st8" d="M304.2,501.6h-6.7l-20-38.9v38.9h-5.6v-45.2h8.5l18.2,35.8v-35.8h5.6V501.6z"/>
		<path class="st8" d="M308.5,501.6l15.2-45.2h7.4l15.2,45.2H340l-4.1-12.6h-17.3l-4.1,12.6H308.5z M334.2,483.9l-7-21.3l-6.9,21.3
			H334.2z"/>
		<path class="st8" d="M376.8,501.6h-26.2v-45.2h6v39.8h20.2V501.6z"/>
	</g>
	<path class="st7" d="M424.9,516.6H18.4C8.3,516.6,0,508.3,0,498.1V20.4C0,10.3,8.3,2,18.4,2h406.5c10.1,0,18.4,8.3,18.4,18.4v477.7
		C443.4,508.3,435.1,516.6,424.9,516.6z"/>
</g>
</svg>
