<?xml version="1.0" encoding="utf-8"?>
<!-- Generator: Adobe Illustrator 21.0.0, SVG Export Plug-In . SVG Version: 6.00 Build 0)  -->
<svg version="1.1" id="Capa_1" xmlns="http://www.w3.org/2000/svg" xmlns:xlink="http://www.w3.org/1999/xlink" x="0px" y="0px"
	 viewBox="0 0 441 516.6" style="enable-background:new 0 0 441 516.6;" xml:space="preserve">
<style type="text/css">
	.st0{fill:#90DFAA;}
	.st1{fill:#76B285;}
	.st2{fill:#324A5E;}
	.st3{fill:#FFFFFF;}
	.st4{fill:#E6E9EE;}
	.st5{fill:#FF7058;}
	.st6{fill:#54C0EB;}
	.st7{fill:#A952A5;}
	.st8{fill:#460C44;}
	.st9{fill:#FFDA79;}
	.st10{fill:#FFD155;}
	.st11{fill:#36495E;}
	.st12{fill:#6A82A1;}
	.st13{fill:#2C3E50;}
	.st14{fill:#FF7F4F;}
	.st15{fill:#D35933;}
	.st16{fill:#386895;}
	.st17{fill:#273B7A;}
	.st18{fill:#121149;}
	.st19{fill:#38C6D9;}
	.st20{fill:#02B2B2;}
	.st21{fill:none;}
	.st22{fill:#FEE187;}
	.st23{fill:#FFC61B;}
	.st24{fill:#B54324;}
	.st25{fill:#6D0E64;}
	.st26{fill:#370732;}
	.st27{fill:#CFDBE6;}
	.st28{fill:#F9B54C;}
	.st29{fill:#F4A200;}
	.st30{fill:#4CDBC4;}
	.st31{fill:#05BEA6;}
	.st32{fill:#FF8E31;}
	.st33{fill:#ED7425;}
	.st34{fill:#5D6D7E;}
	.st35{fill:#34495E;}
	.st36{fill:#5E7D9B;}
	.st37{fill:#0684BA;}
	.st38{fill:#283A4D;}
	.st39{fill:#0578AB;}
	.st40{fill:#E5E9EC;}
	.st41{fill:#29ABE2;}
	.st42{fill:#D9E021;}
	.st43{fill:#BCBC1E;}
	.st44{fill:#FF1D25;}
	.st45{fill:#2B3B4E;}
	.st46{fill:#E6E6E6;}
	.st47{fill:#FFD300;}
	.st48{fill:#FC6F58;}
	.st49{fill:#F1543F;}
	.st50{fill:#FFD15D;}
	.st51{fill:#67D6A4;}
	.st52{fill:#018C4D;}
	.st53{fill:#D4145A;}
	.st54{fill:#9E005D;}
	.st55{fill:#39B54A;}
	.st56{fill:#0575A5;}
	.st57{fill:#025E90;}
	.st58{fill:#C1D354;}
	.st59{fill:#71CC8D;}
	.st60{fill:url(#SVGID_1_);}
	.st61{opacity:0.15;}
	.st62{clip-path:url(#SVGID_3_);}
	.st63{fill:#4D4D4D;}
	.st64{fill:#B60C1B;}
	.st65{fill:#8CC63F;}
	.st66{fill:#648C2C;}
	.st67{fill:#9B4C00;}
	.st68{fill:#6D3802;}
	.st69{fill:#EAA22F;}
	.st70{fill:#FF5419;}
	.st71{fill:#C92F00;}
	.st72{fill:#FFEDB5;}
	.st73{fill:#B2760B;}
	.st74{fill:#B82033;}
	.st75{fill:#B98A90;}
	.st76{fill:#663434;}
	.st77{fill:#009245;}
	.st78{fill:#FBB03B;}
	.st79{fill:#F7931E;}
	.st80{fill:#ED1C24;}
	.st81{fill:#AF1924;}
	.st82{fill:#CCCCCC;}
	.st83{fill:#B3B3B3;}
	.st84{fill:#6A6E77;}
	.st85{fill:#D0223A;}
	.st86{fill:#008645;}
	.st87{fill:#FF7BAC;}
	.st88{fill:#CE6E95;}
	.st89{fill:#0071BC;}
	.st90{fill:#EA4949;}
	.st91{fill:#B54040;}
	.st92{fill:#EDBF00;}
	.st93{fill:#E8CA4B;}
	.st94{fill:#CE8505;}
	.st95{fill:#EA9C00;}
	.st96{fill:#297358;}
	.st97{fill:#4ABC96;}
	.st98{fill:#3CA57F;}
	.st99{fill:#369975;}
	.st100{fill:#CC013A;}
	.st101{clip-path:url(#SVGID_5_);}
	.st102{fill:#161616;}
	.st103{fill:url(#SVGID_6_);}
	.st104{clip-path:url(#SVGID_8_);}
	.st105{fill:#0F0F0F;}
	.st106{opacity:0.5;fill:#FFFFFF;}
	.st107{fill:#191919;}
	.st108{fill:#232323;}
	.st109{fill:#2D2D2D;}
	.st110{opacity:0.6;fill:url(#SVGID_9_);}
	.st111{opacity:0.5;fill:url(#SVGID_10_);}
	.st112{fill:#808080;}
	.st113{fill:#2E3192;}
	.st114{fill:#1B1464;}
	.st115{fill:#006837;}
</style>
<g>
	<circle class="st7" cx="219.8" cy="184.8" r="160.7"/>
	<path class="st8" d="M184.4,261.9L155.5,278l82.1,66.5c79.4-8.7,141.4-75.3,142.9-156.7l-99.6-83.4h-35.4l-36,3.6v82l-54-59.8
		l31.4,87.3l-4.5,2.6l22.3,22.3l-9.1,27.4L184.4,261.9z"/>
	<g>
		<path class="st9" d="M277.1,278H156.3c-4,0-7.2-3.2-7.2-7.2v-160c0-4,3.2-7.2,7.2-7.2h33.5c4,0,7.2,3.2,7.2,7.2v14.8h39.3v-14.8
			c0-4,3.2-7.2,7.2-7.2h33.5c4,0,7.2,3.2,7.2,7.2v160C284.3,274.7,281.1,278,277.1,278z"/>
		<path class="st10" d="M277.1,103.5h-33.5c-4,0-7.2,3.2-7.2,7.2v14.8h-19.6V278h60.4c4,0,7.2-3.2,7.2-7.2v-160
			C284.3,106.8,281.1,103.5,277.1,103.5z"/>
		<path class="st11" d="M243.6,140h-53.8c-4,0-7.2-3.2-7.2-7.2v-29c0-4,3.2-7.2,7.2-7.2h53.8c4,0,7.2,3.2,7.2,7.2v29
			C250.8,136.8,247.6,140,243.6,140z"/>
		<g>
			<path class="st12" d="M205.2,194.1H182c-4,0-7.2-3.2-7.2-7.2v-23.2c0-4,3.2-7.2,7.2-7.2h23.2c4,0,7.2,3.2,7.2,7.2v23.2
				C212.4,190.9,209.2,194.1,205.2,194.1z"/>
		</g>
		<g>
			<path class="st13" d="M243.6,96.6h-26.9V140h26.9c4,0,7.2-3.2,7.2-7.2v-29C250.8,99.8,247.6,96.6,243.6,96.6z"/>
			<path class="st13" d="M251.4,182.5h-26.1c-4,0-7.2-3.2-7.2-7.2s3.2-7.2,7.2-7.2h26.1c4,0,7.2,3.2,7.2,7.2
				S255.4,182.5,251.4,182.5z"/>
		</g>
	</g>
</g>
<g>
	<g>
		<rect x="-0.3" y="345.6" class="st21" width="441" height="204.7"/>
		<path class="st3" d="M1.7,395.7L16,353.5h6.9l14.2,42.2h-5.9l-3.8-11.8H11.2l-3.8,11.8H1.7z M25.8,379.1l-6.5-19.9l-6.5,19.9H25.8
			z"/>
		<path class="st3" d="M61.2,366.1L51,395.7h-4.2l-10.1-29.5h4.2l8.2,24.5l8.2-24.5H61.2z"/>
		<path class="st3" d="M59.7,395.7l10-29.5h4.8l10,29.5h-4.1l-2.7-8.2H66.4l-2.7,8.2H59.7z M76.6,384.1L72,370.1l-4.5,13.9H76.6z"/>
		<path class="st3" d="M108.4,395.7H104l-13-25.5v25.5h-3.7v-29.5h5.6l11.9,23.4v-23.4h3.7V395.7z"/>
		<path class="st3" d="M125.9,396.2c-1.9,0-3.7-0.3-5.3-1s-3-1.6-4.2-2.9c-1.2-1.3-2.1-2.9-2.7-4.8s-1-4.1-1-6.6
			c0-2.5,0.3-4.6,0.9-6.5c0.6-1.8,1.5-3.4,2.7-4.8c1.2-1.3,2.6-2.3,4.2-3c1.6-0.7,3.4-1,5.4-1c1,0,1.9,0.1,2.8,0.2
			c0.9,0.1,1.7,0.3,2.4,0.6c0.6,0.2,1.3,0.4,2,0.7c0.7,0.3,1.3,0.6,2,1v4.7h-0.3c-0.3-0.3-0.8-0.7-1.3-1.2c-0.5-0.4-1.2-0.9-2-1.3
			c-0.8-0.4-1.6-0.7-2.5-1c-0.9-0.3-1.9-0.4-3.1-0.4c-1.3,0-2.4,0.3-3.6,0.8c-1.1,0.5-2.1,1.3-3,2.3c-0.8,1-1.5,2.3-1.9,3.8
			c-0.5,1.5-0.7,3.2-0.7,5.1c0,2,0.2,3.8,0.7,5.2c0.5,1.5,1.2,2.7,2,3.7c0.8,1,1.8,1.7,2.9,2.2c1.1,0.5,2.3,0.7,3.5,0.7
			c1.1,0,2.2-0.1,3.2-0.4c1-0.3,1.8-0.6,2.6-1.1c0.7-0.4,1.4-0.8,1.9-1.3c0.5-0.4,0.9-0.8,1.2-1.1h0.3v4.7c-0.6,0.3-1.3,0.6-1.8,0.9
			s-1.3,0.5-2.1,0.8c-0.9,0.3-1.7,0.5-2.4,0.6S127.1,396.2,125.9,396.2z"/>
		<path class="st3" d="M138.8,395.7v-29.5h18.5v3.5h-14.5v8.1h13.5v3.5h-13.5v11h14.5v3.5H138.8z"/>
		<path class="st3" d="M181,395.7v-42.2h26.4v5h-20.8V370h19.3v5h-19.3v15.7h20.8v5H181z"/>
		<path class="st3" d="M233.3,395.7h-4.4l-13-25.5v25.5h-3.7v-29.5h5.6l11.9,23.4v-23.4h3.7V395.7z"/>
		<path class="st3" d="M246.2,395.7v-26h-9.9v-3.5H260v3.5h-9.9v26H246.2z"/>
		<path class="st3" d="M285.9,395.7h-5.1l-9.4-11.7h-4.5v11.7H263v-29.5h7.6c1.7,0,3.1,0.1,4.3,0.3c1.1,0.2,2.2,0.6,3.3,1.3
			c1,0.7,1.8,1.5,2.4,2.6s0.9,2.3,0.9,3.9c0,2.2-0.5,4-1.6,5.4s-2.6,2.5-4.5,3.2L285.9,395.7z M277.4,374.4c0-0.9-0.2-1.6-0.5-2.3
			c-0.3-0.7-0.8-1.2-1.4-1.6c-0.6-0.4-1.2-0.6-1.9-0.8c-0.7-0.2-1.7-0.2-2.8-0.2h-3.9v11.1h3.4c1.1,0,2.1-0.1,3-0.3
			c0.9-0.2,1.7-0.6,2.3-1.2c0.6-0.6,1-1.2,1.3-2C277.3,376.4,277.4,375.5,277.4,374.4z"/>
		<path class="st3" d="M288.2,395.7v-29.5h18.5v3.5h-14.5v8.1h13.5v3.5h-13.5v11h14.5v3.5H288.2z"/>
		<path class="st3" d="M332.4,366.1l-10.2,29.5H318l-10.1-29.5h4.2l8.2,24.5l8.2-24.5H332.4z"/>
		<path class="st3" d="M345.5,395.7h-11.5v-3h3.8v-23.5h-3.8v-3h11.5v3h-3.8v23.5h3.8V395.7z"/>
		<path class="st3" d="M358.6,396.2c-2.1,0-4-0.2-5.5-0.7s-2.9-1-4.2-1.6V389h0.3c1.3,1.2,2.8,2.2,4.4,2.8c1.6,0.7,3.2,1,4.7,1
			c2.2,0,3.8-0.5,4.9-1.4s1.7-2.1,1.7-3.6c0-1.2-0.3-2.1-0.9-2.9c-0.6-0.7-1.5-1.3-2.8-1.6c-0.9-0.3-1.7-0.5-2.5-0.7
			c-0.8-0.2-1.7-0.4-2.8-0.7c-1-0.3-1.9-0.6-2.7-1c-0.8-0.4-1.5-0.9-2.1-1.6c-0.6-0.6-1.1-1.4-1.4-2.3s-0.5-1.9-0.5-3
			c0-2.4,0.9-4.4,2.8-6c1.9-1.6,4.2-2.4,7.1-2.4c1.7,0,3.2,0.2,4.7,0.5c1.5,0.3,2.8,0.8,4.1,1.4v4.7h-0.3c-0.9-0.9-2.1-1.6-3.6-2.3
			c-1.5-0.6-3-1-4.6-1c-1.8,0-3.3,0.4-4.4,1.3c-1.1,0.9-1.7,2-1.7,3.4c0,1.3,0.3,2.3,1,3s1.6,1.3,2.9,1.6c0.8,0.2,1.8,0.5,3.1,0.8
			c1.2,0.3,2.2,0.5,3,0.8c2,0.6,3.5,1.6,4.5,2.8c0.9,1.3,1.4,2.8,1.4,4.6c0,1.1-0.2,2.3-0.7,3.4c-0.5,1.1-1.1,2.1-2,2.9
			c-1,0.9-2,1.5-3.2,2C361.9,396,360.4,396.2,358.6,396.2z"/>
		<path class="st3" d="M379.9,395.7v-26H370v-3.5h23.7v3.5h-9.9v26H379.9z"/>
		<path class="st3" d="M391.2,395.7l10-29.5h4.8l10,29.5h-4.1l-2.7-8.2h-11.3l-2.7,8.2H391.2z M408.1,384.1l-4.6-13.9l-4.5,13.9
			H408.1z"/>
		<path class="st3" d="M426.9,396.2c-2.1,0-4-0.2-5.5-0.7s-2.9-1-4.2-1.6V389h0.3c1.3,1.2,2.8,2.2,4.4,2.8c1.6,0.7,3.2,1,4.7,1
			c2.2,0,3.8-0.5,4.9-1.4s1.7-2.1,1.7-3.6c0-1.2-0.3-2.1-0.9-2.9c-0.6-0.7-1.5-1.3-2.8-1.6c-0.9-0.3-1.7-0.5-2.5-0.7
			c-0.8-0.2-1.7-0.4-2.8-0.7c-1-0.3-1.9-0.6-2.7-1c-0.8-0.4-1.5-0.9-2.1-1.6c-0.6-0.6-1.1-1.4-1.4-2.3s-0.5-1.9-0.5-3
			c0-2.4,0.9-4.4,2.8-6c1.9-1.6,4.2-2.4,7.1-2.4c1.7,0,3.2,0.2,4.7,0.5c1.5,0.3,2.8,0.8,4.1,1.4v4.7h-0.3c-0.9-0.9-2.1-1.6-3.6-2.3
			c-1.5-0.6-3-1-4.6-1c-1.8,0-3.3,0.4-4.4,1.3c-1.1,0.9-1.7,2-1.7,3.4c0,1.3,0.3,2.3,1,3s1.6,1.3,2.9,1.6c0.8,0.2,1.8,0.5,3.1,0.8
			c1.2,0.3,2.2,0.5,3,0.8c2,0.6,3.5,1.6,4.5,2.8c0.9,1.3,1.4,2.8,1.4,4.6c0,1.1-0.2,2.3-0.7,3.4c-0.5,1.1-1.1,2.1-2,2.9
			c-1,0.9-2,1.5-3.2,2C430.2,396,428.7,396.2,426.9,396.2z"/>
		<path class="st3" d="M151.5,476.5c-3,0-5.7-0.5-8.2-1.4s-4.6-2.3-6.4-4.1c-1.8-1.9-3.1-4.2-4.1-6.9s-1.4-5.9-1.4-9.5
			c0-3.4,0.5-6.4,1.4-9.1c1-2.7,2.3-5,4.1-6.9c1.7-1.9,3.8-3.3,6.3-4.3s5.3-1.5,8.2-1.5c1.4,0,2.8,0.1,4.1,0.3s2.5,0.5,3.7,0.8
			c0.9,0.3,2,0.7,3.2,1.2c1.2,0.5,2.1,0.9,2.8,1.3v6.8h-0.5c-0.7-0.6-1.4-1.2-2.2-1.8c-0.7-0.6-1.8-1.2-3.2-1.8
			c-1.1-0.6-2.4-1-3.9-1.4s-3.1-0.6-4.8-0.6c-4.1,0-7.3,1.5-9.8,4.6c-2.5,3.1-3.8,7.1-3.8,12.2c0,2.8,0.3,5.3,1,7.4s1.6,3.9,2.9,5.4
			c1.2,1.5,2.7,2.6,4.4,3.3c1.7,0.8,3.6,1.1,5.8,1.1c1.6,0,3.2-0.1,4.7-0.3s2.9-0.6,4-1v-10.9h-9.7v-4.9h15.3v18.4
			c-0.7,0.3-1.7,0.7-2.9,1.2c-1.2,0.5-2.3,0.9-3.4,1.2c-1.4,0.4-2.6,0.7-3.7,0.9S153.1,476.5,151.5,476.5z"/>
		<path class="st3" d="M171.3,475.7v-29.5h18.5v3.5h-14.5v8.1h13.5v3.5h-13.5v11h14.5v3.5H171.3z"/>
		<path class="st3" d="M215.2,475.7h-4.4l-13-25.5v25.5h-3.7v-29.5h5.6l11.9,23.4v-23.4h3.7V475.7z"/>
		<path class="st3" d="M221.2,475.7v-29.5h18.5v3.5h-14.5v8.1h13.5v3.5h-13.5v11h14.5v3.5H221.2z"/>
		<path class="st3" d="M266.8,475.7h-5.1l-9.4-11.7h-4.5v11.7H244v-29.5h7.6c1.7,0,3.1,0.1,4.3,0.3c1.1,0.2,2.2,0.6,3.3,1.3
			c1,0.7,1.8,1.5,2.4,2.6s0.9,2.3,0.9,3.9c0,2.2-0.5,4-1.6,5.4s-2.6,2.5-4.5,3.2L266.8,475.7z M258.3,454.4c0-0.9-0.2-1.6-0.5-2.3
			c-0.3-0.7-0.8-1.2-1.4-1.6c-0.6-0.4-1.2-0.6-1.9-0.8c-0.7-0.2-1.7-0.2-2.8-0.2h-3.9v11.1h3.4c1.1,0,2.1-0.1,3-0.3
			c0.9-0.2,1.7-0.6,2.3-1.2c0.6-0.6,1-1.2,1.3-2C258.2,456.4,258.3,455.5,258.3,454.4z"/>
		<path class="st3" d="M266,475.7l10-29.5h4.8l10,29.5h-4.1l-2.7-8.2h-11.3l-2.7,8.2H266z M282.8,464.1l-4.6-13.9l-4.5,13.9H282.8z"
			/>
		<path class="st3" d="M310.6,475.7h-17.1v-29.5h3.9v26h13.2V475.7z"/>
	</g>
	<path class="st21" d="M381.3,512.2H59.1c-32.7,0-59.4-26.7-59.4-59.4v-393c0-32.7,26.7-59.4,59.4-59.4h322.2
		c32.7,0,59.4,26.7,59.4,59.4v393C440.7,485.4,413.9,512.2,381.3,512.2z"/>
</g>
<g>
	<g>
		<path class="st115" d="M220.8,232.5l-30.6-28.4c-3.4-3.1-8.6-3.5-12.4-1.1v72c3.8,2.4,9,2,12.4-1.1l30.6-28.4
			C224.6,241.9,224.6,236.1,220.8,232.5z"/>
		<path class="st55" d="M221.2,227.8l-26.9-26.9c-3-3-7.5-3.3-10.9-1.1V268c3.4,2.2,8,1.9,10.9-1.1l26.9-26.9
			C224.5,236.6,224.5,231.1,221.2,227.8z"/>
		<path class="st3" d="M217.2,239.3l-21.1,21.1c-1,1-2.6,1-3.6,0l-0.8-0.8c-1-1-1-2.6,0-3.6l21.1-21.1c1-1,2.6-1,3.6,0l0.8,0.8
			C218.2,236.7,218.2,238.3,217.2,239.3z"/>
	</g>
	<g>
		<path class="st115" d="M259.5,233.7l-23.6-21.9c-2.6-2.4-6.6-2.7-9.6-0.9v55.5c2.9,1.8,7,1.5,9.6-0.9l23.6-21.9
			C262.4,240.9,262.4,236.4,259.5,233.7z"/>
		<path class="st55" d="M259.8,230L239,209.3c-2.3-2.3-5.8-2.6-8.4-0.8V261c2.6,1.7,6.1,1.4,8.4-0.8l20.7-20.7
			C262.4,236.8,262.4,232.6,259.8,230z"/>
		<path class="st3" d="M256.7,238.9l-16.3,16.3c-0.8,0.8-2,0.8-2.8,0l-0.7-0.7c-0.8-0.8-0.8-2,0-2.8l16.3-16.3c0.8-0.8,2-0.8,2.8,0
			l0.7,0.7C257.5,236.9,257.5,238.1,256.7,238.9z"/>
	</g>
</g>
</svg>
