<?xml version="1.0" encoding="utf-8"?>
<!-- Generator: Adobe Illustrator 21.0.0, SVG Export Plug-In . SVG Version: 6.00 Build 0)  -->
<svg version="1.1" id="Capa_1" xmlns="http://www.w3.org/2000/svg" xmlns:xlink="http://www.w3.org/1999/xlink" x="0px" y="0px"
	 viewBox="0 0 441 512" style="enable-background:new 0 0 441 512;" xml:space="preserve">
<style type="text/css">
	.st0{fill:#90DFAA;}
	.st1{fill:#76B285;}
	.st2{fill:#324A5E;}
	.st3{fill:#FFFFFF;}
	.st4{fill:#E6E9EE;}
	.st5{fill:#FF7058;}
	.st6{fill:#54C0EB;}
	.st7{fill:#A952A5;}
	.st8{fill:#460C44;}
	.st9{fill:#FFDA79;}
	.st10{fill:#FFD155;}
	.st11{fill:#36495E;}
	.st12{fill:#6A82A1;}
	.st13{fill:#2C3E50;}
	.st14{fill:#FF7F4F;}
	.st15{fill:#D35933;}
	.st16{fill:#386895;}
	.st17{fill:#273B7A;}
	.st18{fill:#121149;}
	.st19{fill:#38C6D9;}
	.st20{fill:#02B2B2;}
	.st21{fill:none;}
	.st22{fill:#FEE187;}
	.st23{fill:#FFC61B;}
	.st24{fill:#B54324;}
	.st25{fill:#6D0E64;}
	.st26{fill:#370732;}
	.st27{fill:#CFDBE6;}
	.st28{fill:#F9B54C;}
	.st29{fill:#F4A200;}
	.st30{fill:#4CDBC4;}
	.st31{fill:#05BEA6;}
	.st32{fill:#FF8E31;}
	.st33{fill:#ED7425;}
	.st34{fill:#5D6D7E;}
	.st35{fill:#34495E;}
	.st36{fill:#5E7D9B;}
	.st37{fill:#0684BA;}
	.st38{fill:#283A4D;}
	.st39{fill:#0578AB;}
	.st40{fill:#E5E9EC;}
	.st41{fill:#29ABE2;}
	.st42{fill:#D9E021;}
	.st43{fill:#BCBC1E;}
	.st44{fill:#FF1D25;}
	.st45{fill:#2B3B4E;}
	.st46{fill:#E6E6E6;}
	.st47{fill:#FFD300;}
	.st48{fill:#FC6F58;}
	.st49{fill:#F1543F;}
	.st50{fill:#FFD15D;}
	.st51{fill:#67D6A4;}
	.st52{fill:#018C4D;}
	.st53{fill:#D4145A;}
	.st54{fill:#9E005D;}
	.st55{fill:#39B54A;}
	.st56{fill:#0575A5;}
	.st57{fill:#025E90;}
	.st58{fill:#C1D354;}
	.st59{fill:#71CC8D;}
	.st60{fill:url(#SVGID_1_);}
	.st61{opacity:0.15;}
	.st62{clip-path:url(#SVGID_3_);}
	.st63{fill:#4D4D4D;}
	.st64{fill:#B60C1B;}
	.st65{fill:#8CC63F;}
	.st66{fill:#648C2C;}
	.st67{fill:#9B4C00;}
	.st68{fill:#6D3802;}
	.st69{fill:#EAA22F;}
	.st70{fill:#FF5419;}
	.st71{fill:#C92F00;}
	.st72{fill:#FFEDB5;}
	.st73{fill:#B2760B;}
	.st74{fill:#B82033;}
	.st75{fill:#B98A90;}
	.st76{fill:#663434;}
	.st77{fill:#009245;}
	.st78{fill:#FBB03B;}
	.st79{fill:#F7931E;}
	.st80{fill:#ED1C24;}
	.st81{fill:#AF1924;}
	.st82{fill:#CCCCCC;}
	.st83{fill:#B3B3B3;}
	.st84{fill:#6A6E77;}
	.st85{fill:#D0223A;}
	.st86{fill:#008645;}
	.st87{fill:#FF7BAC;}
	.st88{fill:#CE6E95;}
	.st89{fill:#0071BC;}
	.st90{fill:#EA4949;}
	.st91{fill:#B54040;}
	.st92{fill:#EDBF00;}
	.st93{fill:#E8CA4B;}
	.st94{fill:#CE8505;}
	.st95{fill:#EA9C00;}
	.st96{fill:#297358;}
	.st97{fill:#4ABC96;}
	.st98{fill:#3CA57F;}
	.st99{fill:#369975;}
	.st100{fill:#CC013A;}
	.st101{clip-path:url(#SVGID_5_);}
	.st102{fill:#161616;}
	.st103{fill:url(#SVGID_6_);}
	.st104{clip-path:url(#SVGID_8_);}
	.st105{fill:#0F0F0F;}
	.st106{opacity:0.5;fill:#FFFFFF;}
	.st107{fill:#191919;}
	.st108{fill:#232323;}
	.st109{fill:#2D2D2D;}
	.st110{opacity:0.6;fill:url(#SVGID_9_);}
	.st111{opacity:0.5;fill:url(#SVGID_10_);}
	.st112{fill:#808080;}
	.st113{fill:#2E3192;}
	.st114{fill:#1B1464;}
	.st115{fill:#006837;}
</style>
<g>
	<g>
		<circle class="st53" cx="219.8" cy="184.2" r="160.7"/>
		<path class="st54" d="M184.4,261.3l-28.9,16.1l82.1,66.5c79.4-8.7,141.4-75.3,142.9-156.7l-99.6-83.4h-35.4l-36,3.6v82l-54-59.8
			l31.4,87.3l-4.5,2.6l22.3,22.3l-9.1,27.4L184.4,261.3z"/>
		<g>
			<path class="st9" d="M277.1,277.4H156.3c-4,0-7.2-3.2-7.2-7.2v-160c0-4,3.2-7.2,7.2-7.2h33.5c4,0,7.2,3.2,7.2,7.2V125h39.3v-14.8
				c0-4,3.2-7.2,7.2-7.2h33.5c4,0,7.2,3.2,7.2,7.2v160C284.3,274.1,281.1,277.4,277.1,277.4z"/>
			<path class="st10" d="M277.1,102.9h-33.5c-4,0-7.2,3.2-7.2,7.2V125h-19.6v152.4h60.4c4,0,7.2-3.2,7.2-7.2v-160
				C284.3,106.2,281.1,102.9,277.1,102.9z"/>
			<path class="st11" d="M243.6,139.5h-53.8c-4,0-7.2-3.2-7.2-7.2v-29c0-4,3.2-7.2,7.2-7.2h53.8c4,0,7.2,3.2,7.2,7.2v29
				C250.8,136.2,247.6,139.5,243.6,139.5z"/>
			<g>
				<path class="st12" d="M205.2,193.5H182c-4,0-7.2-3.2-7.2-7.2v-23.2c0-4,3.2-7.2,7.2-7.2h23.2c4,0,7.2,3.2,7.2,7.2v23.2
					C212.4,190.3,209.2,193.5,205.2,193.5z"/>
				<path class="st12" d="M205.2,245.7H182c-4,0-7.2-3.2-7.2-7.2v-23.2c0-4,3.2-7.2,7.2-7.2h23.2c4,0,7.2,3.2,7.2,7.2v23.2
					C212.4,242.4,209.2,245.7,205.2,245.7z"/>
			</g>
			<g>
				<path class="st13" d="M243.6,96h-26.9v43.5h26.9c4,0,7.2-3.2,7.2-7.2v-29C250.8,99.3,247.6,96,243.6,96z"/>
				<path class="st13" d="M251.4,182h-26.1c-4,0-7.2-3.2-7.2-7.2s3.2-7.2,7.2-7.2h26.1c4,0,7.2,3.2,7.2,7.2
					C258.6,178.7,255.4,182,251.4,182z"/>
				<path class="st13" d="M251.4,234.1h-26.1c-4,0-7.2-3.2-7.2-7.2c0-4,3.2-7.2,7.2-7.2h26.1c4,0,7.2,3.2,7.2,7.2
					C258.6,230.9,255.4,234.1,251.4,234.1z"/>
			</g>
		</g>
		<path class="st55" d="M228.3,151.2c-2.8-3-7.6-3.2-10.6-0.4l-21.2,19.5l-5.6-4.2c-2.8-2.1-6.7-1.5-8.8,1.3l-1.5,2
			c-2.1,2.8-1.5,6.7,1.3,8.8l10.5,7.9c1.4,1,3.1,1.4,4.7,1.2c1.9,0.1,3.9-0.6,5.4-2l25.3-23.4C230.9,159.1,231.1,154.3,228.3,151.2z
			"/>
	</g>
	<g>
		<rect x="1.2" y="381.5" class="st21" width="440.3" height="95.1"/>
		<path class="st3" d="M29.2,457.6v-64.1h40.1v7.6H37.7v17.6h29.4v7.6H37.7v23.8h31.5v7.6H29.2z"/>
		<path class="st3" d="M108.7,457.6H102L82.2,419v38.7h-5.6v-44.8h8.5l18,35.5v-35.5h5.6V457.6z"/>
		<path class="st3" d="M128.3,457.6v-39.5h-15.1v-5.3h36.1v5.3h-15.1v39.5H128.3z"/>
		<path class="st3" d="M188.6,457.6h-7.7l-14.2-17.8h-6.8v17.8h-6v-44.8h11.6c2.6,0,4.7,0.1,6.5,0.4c1.7,0.3,3.4,0.9,5,2
			c1.6,1,2.8,2.3,3.7,3.9c0.9,1.6,1.4,3.6,1.4,5.9c0,3.3-0.8,6-2.5,8.3s-3.9,3.8-6.8,4.9L188.6,457.6z M175.7,425.4
			c0-1.3-0.2-2.5-0.7-3.5c-0.5-1-1.2-1.8-2.1-2.5c-0.8-0.6-1.8-1-3-1.2c-1.1-0.2-2.5-0.3-4.2-0.3h-5.9v16.9h5.2
			c1.7,0,3.2-0.2,4.6-0.5c1.4-0.3,2.5-0.9,3.5-1.9c0.9-0.8,1.5-1.8,1.9-3C175.5,428.3,175.7,427,175.7,425.4z"/>
		<path class="st3" d="M192.1,457.6v-44.8h28v5.3h-22.1v12.3h20.6v5.3h-20.6v16.7h22.1v5.3H192.1z"/>
		<path class="st3" d="M259.2,412.8l-15.4,44.8h-6.4l-15.4-44.8h6.4l12.4,37.2l12.4-37.2H259.2z"/>
		<path class="st3" d="M279.2,457.6h-17.4v-4.6h5.7v-35.7h-5.7v-4.6h17.4v4.6h-5.7v35.7h5.7V457.6z"/>
		<path class="st3" d="M299,458.4c-3.3,0-6-0.3-8.3-1c-2.3-0.7-4.4-1.5-6.4-2.5v-7.5h0.4c2,1.8,4.2,3.3,6.7,4.3
			c2.5,1,4.9,1.5,7.2,1.5c3.3,0,5.8-0.7,7.5-2.1c1.7-1.4,2.5-3.2,2.5-5.4c0-1.8-0.4-3.2-1.3-4.4c-0.9-1.1-2.3-2-4.2-2.5
			c-1.4-0.4-2.7-0.7-3.8-1c-1.1-0.3-2.6-0.6-4.3-1.1c-1.5-0.4-2.9-0.9-4.2-1.5c-1.2-0.6-2.3-1.4-3.3-2.4c-0.9-1-1.6-2.1-2.2-3.5
			c-0.5-1.3-0.8-2.9-0.8-4.6c0-3.6,1.4-6.7,4.2-9.1c2.8-2.5,6.4-3.7,10.8-3.7c2.5,0,4.9,0.3,7.1,0.8c2.2,0.5,4.3,1.2,6.2,2.1v7.1
			h-0.5c-1.4-1.3-3.3-2.4-5.5-3.4c-2.2-1-4.6-1.5-7-1.5c-2.8,0-5,0.6-6.7,1.9c-1.7,1.3-2.6,3-2.6,5.1c0,1.9,0.5,3.4,1.5,4.5
			c1,1.1,2.5,1.9,4.4,2.5c1.3,0.3,2.8,0.7,4.6,1.2s3.3,0.8,4.5,1.2c3.1,0.9,5.4,2.4,6.8,4.3c1.4,1.9,2.1,4.3,2.1,7
			c0,1.7-0.4,3.5-1.1,5.2c-0.7,1.7-1.7,3.2-3,4.3c-1.4,1.3-3.1,2.3-4.9,3C304,458.1,301.8,458.4,299,458.4z"/>
		<path class="st3" d="M331.4,457.6v-39.5h-15.1v-5.3h36.1v5.3h-15.1v39.5H331.4z"/>
		<path class="st3" d="M348.6,457.6l15.1-44.8h7.3l15.1,44.8h-6.3l-4.1-12.5h-17.1l-4.1,12.5H348.6z M374.2,440l-6.9-21.1l-6.9,21.1
			H374.2z"/>
		<path class="st3" d="M402.8,458.4c-3.3,0-6-0.3-8.3-1c-2.3-0.7-4.4-1.5-6.4-2.5v-7.5h0.4c2,1.8,4.2,3.3,6.7,4.3
			c2.5,1,4.9,1.5,7.2,1.5c3.3,0,5.8-0.7,7.5-2.1c1.7-1.4,2.5-3.2,2.5-5.4c0-1.8-0.4-3.2-1.3-4.4c-0.9-1.1-2.3-2-4.2-2.5
			c-1.4-0.4-2.7-0.7-3.8-1c-1.1-0.3-2.6-0.6-4.3-1.1c-1.5-0.4-2.9-0.9-4.2-1.5c-1.2-0.6-2.3-1.4-3.3-2.4c-0.9-1-1.6-2.1-2.2-3.5
			c-0.5-1.3-0.8-2.9-0.8-4.6c0-3.6,1.4-6.7,4.2-9.1c2.8-2.5,6.4-3.7,10.8-3.7c2.5,0,4.9,0.3,7.1,0.8c2.2,0.5,4.3,1.2,6.2,2.1v7.1
			h-0.5c-1.4-1.3-3.3-2.4-5.5-3.4c-2.2-1-4.6-1.5-7-1.5c-2.8,0-5,0.6-6.7,1.9c-1.7,1.3-2.6,3-2.6,5.1c0,1.9,0.5,3.4,1.5,4.5
			c1,1.1,2.5,1.9,4.4,2.5c1.3,0.3,2.8,0.7,4.6,1.2s3.3,0.8,4.5,1.2c3.1,0.9,5.4,2.4,6.8,4.3c1.4,1.9,2.1,4.3,2.1,7
			c0,1.7-0.4,3.5-1.1,5.2c-0.7,1.7-1.7,3.2-3,4.3c-1.4,1.3-3.1,2.3-4.9,3C407.8,458.1,405.5,458.4,402.8,458.4z"/>
	</g>
	<path class="st21" d="M382.2,512H60.5c-32.6,0-59.3-26.7-59.3-59.3V60.3C1.2,27.7,27.9,1,60.5,1h321.7c32.6,0,59.3,26.7,59.3,59.3
		v392.4C441.5,485.3,414.9,512,382.2,512z"/>
</g>
</svg>
