<?xml version="1.0" encoding="utf-8"?>
<!-- Generator: Adobe Illustrator 21.0.0, SVG Export Plug-In . SVG Version: 6.00 Build 0)  -->
<svg version="1.1" id="Capa_1" xmlns="http://www.w3.org/2000/svg" xmlns:xlink="http://www.w3.org/1999/xlink" x="0px" y="0px"
	 viewBox="0 0 441 512" style="enable-background:new 0 0 441 512;" xml:space="preserve">
<style type="text/css">
	.st0{fill:#0575A5;}
	.st1{fill:#025E90;}
	.st2{fill:#C1D354;}
	.st3{fill:#F4A200;}
	.st4{fill:#FFFFFF;}
	.st5{fill:#0B8036;}
	.st6{fill:none;}
	.st7{fill:#FAFAFA;}
	.st8{font-family:'ArialMT';}
	.st9{font-size:48px;}
	.st10{font-size:36px;}
	.st11{opacity:0.15;enable-background:new    ;}
	.st12{clip-path:url(#SVGID_2_);}
	.st13{fill:#39B54A;}
</style>
<g>
	<g>
		<circle class="st0" cx="218.5" cy="183.2" r="160.7"/>
		<path class="st1" d="M372.5,229.2l-96.6-96.6l-6.8-6.8c-15.5-14-36-22.6-58.4-22.9v21.3l-2.9-2.9c-17.8,0.4-34,7.3-46.3,18.5
			c-14.3,13-23.3,31.7-23.3,52.6c0,17.4,6.3,33.5,16.8,45.8l8.5,8.5l92.7,92.7C311.8,326,356.2,283.7,372.5,229.2z"/>
		<path class="st2" d="M210.7,191v-88.1c48.3,0.8,87.4,39.9,88.1,88.1H210.7L210.7,191z"/>
		<path class="st3" d="M212.7,193.8h86.1c-0.4,22.9-9.3,44.4-25.3,60.9L212.7,193.8z"/>
		<path class="st4" d="M207.9,121.4c-38.6,0.8-69.7,32.3-69.7,71c0,39.3,31.8,71.1,71.1,71.1c19.1,0,36.5-7.6,49.2-19.8L207.9,193
			V121.4L207.9,121.4z"/>
	</g>
	<circle class="st5" cx="218.7" cy="183" r="160.5"/>
	<path class="st6" d="M381,511H59.3C26.7,511,0,484.3,0,451.7V59.3C0,26.7,26.7,0,59.3,0H381c32.6,0,59.3,26.7,59.3,59.3v392.4
		C440.3,484.3,413.6,511,381,511z"/>
	<text transform="matrix(0.9477 0 0 1 31.5589 423.2002)"><tspan x="0" y="0" class="st7 st8 st9">E</tspan><tspan x="32" y="0" class="st7 st8 st10">STADO DE </tspan><tspan x="226" y="0" class="st7 st8 st9">M</tspan><tspan x="266" y="0" class="st7 st8 st10">EXICO</tspan><tspan x="135.6" y="57.6" class="st7 st8 st9">2017</tspan></text>
</g>
<image style="overflow:visible;" width="629" height="640" xlink:href="../../mexico.png"  transform="matrix(0.3768 0 0 0.4047 92.2 53.7)">
</image>
<g class="st11">
	<g>
		<defs>
			<path id="SVGID_1_" d="M2515.7,429.2H648.2c-13.9,0-25.2-11.4-25.2-25.2v-952.6c0-13.9,11.4-25.2,25.2-25.2h1867.4
				c13.9,0,25.2,11.4,25.2,25.2V404C2540.9,417.9,2529.5,429.2,2515.7,429.2z"/>
		</defs>
		<clipPath id="SVGID_2_">
			<use xlink:href="#SVGID_1_"  style="overflow:visible;"/>
		</clipPath>
		<g class="st12">
			<path class="st13" d="M292.7,22.1c0,0.2-0.1,0.3-0.3,0.3c-0.1,0-0.3-0.1-0.3-0.3c0-0.1,0.1-0.3,0.3-0.3
				C292.5,21.8,292.7,21.9,292.7,22.1z"/>
			<path class="st13" d="M319.8,11.2c0,0.2-0.1,0.3-0.3,0.3c-0.2,0-0.3-0.1-0.3-0.3s0.1-0.3,0.3-0.3C319.6,10.9,319.8,11,319.8,11.2
				z"/>
			<path class="st13" d="M346.5,1.3c0,0.2-0.1,0.3-0.3,0.3c-0.2,0-0.3-0.1-0.3-0.3S346,1,346.2,1C346.3,1,346.5,1.1,346.5,1.3z"/>
			<path class="st13" d="M301.6,47.7c0,0.2-0.1,0.3-0.3,0.3c-0.2,0-0.3-0.1-0.3-0.3s0.1-0.3,0.3-0.3
				C301.4,47.5,301.6,47.6,301.6,47.7z"/>
			<path class="st13" d="M328,37.4c0,0.2-0.1,0.3-0.3,0.3s-0.3-0.1-0.3-0.3s0.1-0.3,0.3-0.3S328,37.3,328,37.4z"/>
			<circle class="st13" cx="354.1" cy="27.4" r="0.3"/>
			<path class="st13" d="M380.4,18.5c0,0.2-0.1,0.3-0.3,0.3c-0.2,0-0.3-0.1-0.3-0.3c0-0.2,0.2-0.3,0.3-0.3
				C380.2,18.1,380.4,18.3,380.4,18.5z"/>
			<path class="st13" d="M405.4,11.5c0,0.2-0.1,0.4-0.3,0.4c-0.2,0-0.4-0.2-0.4-0.4s0.2-0.4,0.4-0.4
				C405.2,11.1,405.4,11.3,405.4,11.5z"/>
			<path class="st13" d="M429.2,7.2c0,0.2-0.2,0.4-0.4,0.4c-0.2,0-0.4-0.2-0.4-0.4c0-0.2,0.2-0.4,0.4-0.4C429,6.8,429.2,7,429.2,7.2
				z"/>
			<path class="st13" d="M337.6,62.4c0,0.2-0.1,0.3-0.3,0.3c-0.2,0-0.3-0.1-0.3-0.3s0.1-0.3,0.3-0.3
				C337.5,62.1,337.6,62.2,337.6,62.4z"/>
			<path class="st13" d="M363.3,52.8c0,0.2-0.2,0.3-0.3,0.3c-0.2,0-0.3-0.1-0.3-0.3s0.1-0.3,0.3-0.3
				C363.2,52.5,363.3,52.6,363.3,52.8z"/>
			<path class="st13" d="M389,43.6c0,0.2-0.1,0.3-0.3,0.3c-0.2,0-0.3-0.1-0.3-0.3s0.2-0.3,0.3-0.3C388.9,43.3,389,43.5,389,43.6z"/>
			<path class="st13" d="M414.2,35.7c0,0.2-0.2,0.4-0.4,0.4c-0.2,0-0.4-0.2-0.4-0.4s0.2-0.4,0.4-0.4
				C414.1,35.4,414.2,35.5,414.2,35.7z"/>
			<path class="st13" d="M438.4,30c0,0.2-0.2,0.4-0.4,0.4c-0.2,0-0.4-0.2-0.4-0.4c0-0.2,0.2-0.4,0.4-0.4
				C438.3,29.6,438.4,29.7,438.4,30z"/>
			<circle class="st13" cx="348.7" cy="85.8" r="0.3"/>
			<path class="st13" d="M373.5,77.2c0,0.2-0.1,0.3-0.3,0.3c-0.2,0-0.3-0.1-0.3-0.3s0.1-0.3,0.3-0.3C373.4,76.9,373.5,77,373.5,77.2
				z"/>
			<path class="st13" d="M398.6,68.4c0,0.2-0.1,0.3-0.3,0.3c-0.2,0-0.3-0.2-0.3-0.3c0-0.2,0.2-0.4,0.3-0.4S398.6,68.2,398.6,68.4z"
				/>
			<path class="st13" d="M423.6,60.1c0,0.2-0.2,0.4-0.4,0.4c-0.2,0-0.4-0.2-0.4-0.4s0.2-0.4,0.4-0.4
				C423.4,59.7,423.6,59.9,423.6,60.1z"/>
			<path class="st13" d="M342.3,112.8c0,0.2-0.1,0.3-0.3,0.3c-0.2,0-0.3-0.1-0.3-0.3c0-0.2,0.1-0.3,0.3-0.3
				C342.2,112.5,342.3,112.7,342.3,112.8z"/>
			<path class="st13" d="M363,107.3c0,0.2-0.1,0.3-0.3,0.3c-0.2,0-0.3-0.1-0.3-0.3c0-0.2,0.1-0.3,0.3-0.3
				C362.8,106.9,363,107.1,363,107.3z"/>
			<path class="st13" d="M385.6,100.2c0,0.2-0.2,0.3-0.3,0.3c-0.2,0-0.3-0.1-0.3-0.3c0-0.2,0.2-0.3,0.3-0.3
				C385.4,99.9,385.6,100,385.6,100.2z"/>
			<path class="st13" d="M409.3,92.3c0,0.2-0.2,0.4-0.3,0.4c-0.2,0-0.4-0.2-0.4-0.4c0-0.2,0.2-0.4,0.4-0.4
				C409.2,91.9,409.3,92.1,409.3,92.3z"/>
			<path class="st13" d="M433.7,84.2c0,0.2-0.2,0.4-0.4,0.4c-0.2,0-0.4-0.2-0.4-0.4c0-0.2,0.2-0.4,0.4-0.4
				C433.5,83.8,433.7,84,433.7,84.2z"/>
			<path class="st13" d="M380.2,126.4c0,0.2-0.2,0.3-0.3,0.3c-0.2,0-0.3-0.2-0.3-0.3c0-0.2,0.2-0.3,0.3-0.3
				C380.1,126,380.2,126.2,380.2,126.4z"/>
			<path class="st13" d="M400.1,121.3c0,0.2-0.2,0.4-0.4,0.4c-0.2,0-0.3-0.2-0.3-0.4c0-0.2,0.1-0.3,0.3-0.3S400.1,121.1,400.1,121.3
				z"/>
			<path class="st13" d="M421.9,114.9c0,0.2-0.2,0.4-0.4,0.4c-0.2,0-0.4-0.2-0.4-0.4c0-0.2,0.2-0.4,0.4-0.4
				C421.7,114.5,421.9,114.7,421.9,114.9z"/>
			<path class="st13" d="M383.4,148.8c0,0.2-0.1,0.3-0.3,0.3c-0.2,0-0.3-0.1-0.3-0.3s0.1-0.3,0.3-0.3
				C383.2,148.4,383.4,148.6,383.4,148.8z"/>
			<path class="st13" d="M399.5,145.1c0,0.2-0.1,0.3-0.3,0.3c-0.2,0-0.3-0.2-0.3-0.3c0-0.2,0.1-0.3,0.3-0.3
				C399.3,144.7,399.5,144.9,399.5,145.1z"/>
			<path class="st13" d="M417.5,140.6c0,0.2-0.2,0.4-0.4,0.4c-0.2,0-0.3-0.2-0.3-0.4s0.1-0.3,0.3-0.3S417.5,140.5,417.5,140.6z"/>
			<path class="st13" d="M437,135.7c0,0.2-0.2,0.4-0.4,0.4c-0.2,0-0.4-0.2-0.4-0.4s0.2-0.4,0.4-0.4S437,135.5,437,135.7z"/>
			<path class="st13" d="M392.3,172.1c0,0.2-0.1,0.3-0.3,0.3c-0.2,0-0.3-0.1-0.3-0.3s0.1-0.3,0.3-0.3
				C392.1,171.8,392.3,172,392.3,172.1z"/>
			<path class="st13" d="M403.9,169.3c0,0.2-0.2,0.3-0.3,0.3c-0.2,0-0.3-0.1-0.3-0.3s0.2-0.3,0.3-0.3
				C403.8,169,403.9,169.2,403.9,169.3z"/>
			<path class="st13" d="M418.3,165.8c0,0.2-0.2,0.3-0.3,0.3c-0.2,0-0.3-0.1-0.3-0.3s0.1-0.3,0.3-0.3
				C418.1,165.5,418.3,165.6,418.3,165.8z"/>
			<ellipse class="st13" cx="434.5" cy="161.5" rx="0.4" ry="0.4"/>
			<path class="st13" d="M415,194.2c0,0.2-0.1,0.3-0.3,0.3c-0.2,0-0.3-0.1-0.3-0.3s0.1-0.3,0.3-0.3C414.8,193.9,415,194,415,194.2z"
				/>
			<ellipse class="st13" cx="424.1" cy="191.5" rx="0.3" ry="0.3"/>
			<path class="st13" d="M436.9,188.1c0,0.2-0.2,0.3-0.4,0.3c-0.2,0-0.4-0.2-0.4-0.3s0.2-0.3,0.4-0.3
				C436.7,187.8,436.9,187.9,436.9,188.1z"/>
			<path class="st13" d="M439.9,234.8c0,0.2-0.1,0.3-0.3,0.3c-0.2,0-0.3-0.1-0.3-0.3s0.1-0.3,0.3-0.3
				C439.7,234.5,439.9,234.6,439.9,234.8z"/>
			<path class="st13" d="M435.3,228.4c0,0.2-0.1,0.3-0.3,0.3c-0.2,0-0.3-0.2-0.3-0.3c0-0.2,0.1-0.3,0.3-0.3
				C435.2,228.1,435.3,228.3,435.3,228.4z"/>
			<path class="st13" d="M433.1,223.9c0,0.2-0.1,0.3-0.3,0.3c-0.2,0-0.3-0.2-0.3-0.3c0-0.2,0.2-0.3,0.3-0.3
				C432.9,223.6,433.1,223.7,433.1,223.9z"/>
			<path class="st13" d="M433.8,220.5c0,0.2-0.1,0.3-0.3,0.3s-0.3-0.2-0.3-0.3c0-0.2,0.1-0.3,0.3-0.3S433.8,220.4,433.8,220.5z"/>
			<path class="st13" d="M437.8,217.7c0,0.2-0.1,0.3-0.3,0.3c-0.2,0-0.3-0.2-0.3-0.3c0-0.2,0.1-0.3,0.3-0.3
				C437.6,217.4,437.8,217.5,437.8,217.7z"/>
		</g>
	</g>
</g>
</svg>
