<?xml version="1.0" encoding="utf-8"?>
<!-- Generator: Adobe Illustrator 21.0.0, SVG Export Plug-In . SVG Version: 6.00 Build 0)  -->
<svg version="1.1" id="Capa_1" xmlns="http://www.w3.org/2000/svg" xmlns:xlink="http://www.w3.org/1999/xlink" x="0px" y="0px"
	 viewBox="0 0 441 512" style="enable-background:new 0 0 441 512;" xml:space="preserve">
<style type="text/css">
	.st0{fill:#90DFAA;}
	.st1{fill:#76B285;}
	.st2{fill:#324A5E;}
	.st3{fill:#FFFFFF;}
	.st4{fill:#E6E9EE;}
	.st5{fill:#FF7058;}
	.st6{fill:#54C0EB;}
	.st7{fill:#A952A5;}
	.st8{fill:#460C44;}
	.st9{fill:#FFDA79;}
	.st10{fill:#FFD155;}
	.st11{fill:#36495E;}
	.st12{fill:#6A82A1;}
	.st13{fill:#2C3E50;}
	.st14{fill:#FF7F4F;}
	.st15{fill:#D35933;}
	.st16{fill:#386895;}
	.st17{fill:#273B7A;}
	.st18{fill:#121149;}
	.st19{fill:#38C6D9;}
	.st20{fill:#02B2B2;}
	.st21{fill:none;}
	.st22{fill:#FEE187;}
	.st23{fill:#FFC61B;}
	.st24{fill:#B54324;}
	.st25{fill:#9E005D;}
	.st26{fill:#7C0050;}
	.st27{fill:#EDEDED;}
	.st28{fill:#E3E3E3;}
	.st29{fill:#EFEFF0;}
	.st30{fill:#8CC63F;}
	.st31{fill:#8BAF3A;}
	.st32{fill:#31BAFD;}
	.st33{fill:#2B9ED8;}
	.st34{fill:#E9EFF4;}
	.st35{fill:#D0D1D3;}
	.st36{fill:#FED8B2;}
	.st37{fill:#EFC095;}
	.st38{fill:#F4E3C3;}
	.st39{fill:#3F3B3B;}
	.st40{fill:#272525;}
	.st41{fill:#FC9483;}
	.st42{fill:#FD8469;}
	.st43{fill:#2B3B4E;}
	.st44{fill:#1B2B3A;}
	.st45{fill:#FC6F58;}
	.st46{fill:none;stroke:#FFFFFF;stroke-width:3;stroke-linecap:round;stroke-miterlimit:10;}
	.st47{fill:#C2001B;}
	.st48{fill:#940030;}
	.st49{fill:#E8E8E8;}
	.st50{fill:#FF5419;}
	.st51{fill:#366695;}
	.st52{fill:#666666;}
	.st53{fill:#3FA9F5;}
	.st54{fill:#6D0E64;}
	.st55{fill:#370732;}
	.st56{fill:#CFDBE6;}
	.st57{fill:#F9B54C;}
	.st58{fill:#F4A200;}
	.st59{fill:#4CDBC4;}
	.st60{fill:#05BEA6;}
	.st61{fill:#FF8E31;}
	.st62{fill:#ED7425;}
	.st63{fill:#5D6D7E;}
	.st64{fill:#34495E;}
	.st65{fill:#5E7D9B;}
	.st66{fill:#0684BA;}
	.st67{fill:#283A4D;}
	.st68{fill:#0578AB;}
	.st69{fill:#E5E9EC;}
	.st70{fill:#29ABE2;}
	.st71{fill:#D9E021;}
	.st72{fill:#BCBC1E;}
	.st73{fill:#FF1D25;}
	.st74{fill:#E6E6E6;}
	.st75{fill:#FFD300;}
	.st76{fill:#F1543F;}
	.st77{fill:#FFD15D;}
	.st78{fill:#67D6A4;}
	.st79{fill:#018C4D;}
	.st80{fill:#D4145A;}
	.st81{fill:#39B54A;}
	.st82{fill:#0575A5;}
	.st83{fill:#025E90;}
	.st84{fill:#C1D354;}
	.st85{fill:#71CC8D;}
	.st86{fill:url(#SVGID_1_);}
	.st87{opacity:0.15;}
	.st88{clip-path:url(#SVGID_3_);}
	.st89{fill:#4D4D4D;}
	.st90{fill:#B60C1B;}
	.st91{fill:#FDFEFE;}
	.st92{fill:#648C2C;}
	.st93{fill:#9B4C00;}
	.st94{fill:#6D3802;}
	.st95{fill:#EAA22F;}
	.st96{fill:#C92F00;}
	.st97{fill:#FFEDB5;}
	.st98{fill:#B2760B;}
	.st99{fill:#B82033;}
	.st100{fill:#B98A90;}
	.st101{fill:#663434;}
	.st102{fill:#009245;}
	.st103{fill:#FBB03B;}
	.st104{fill:#F7931E;}
	.st105{fill:#ED1C24;}
	.st106{fill:#AF1924;}
	.st107{fill:#CCCCCC;}
	.st108{fill:#B3B3B3;}
	.st109{fill:#57442F;}
	.st110{fill:#FCD088;}
	.st111{fill:#DDAB62;}
	.st112{fill:#E8CF89;}
	.st113{fill:#B76D5C;}
	.st114{fill:#91483C;}
	.st115{fill:#FF0F27;}
	.st116{fill:#444444;}
	.st117{fill:#333333;}
	.st118{fill:#D48B07;}
	.st119{fill:#9B6207;}
	.st120{fill:#EFEFEF;}
	.st121{fill:#E2E2E2;}
	.st122{fill:#B2B2B2;}
	.st123{fill:#D75A4A;}
	.st124{fill:#ED8A19;}
	.st125{fill:#C7CAC7;}
	.st126{fill:#FBCE9D;}
	.st127{fill:#38454F;}
	.st128{fill:#F2ECBF;}
	.st129{fill:#EBBA16;}
	.st130{fill:#564825;}
	.st131{fill:#2B2413;}
	.st132{fill:#6B9130;}
	.st133{fill:#057236;}
	.st134{fill:#C69C6D;}
	.st135{fill:#754C24;}
	.st136{fill:#2487AA;}
	.st137{fill:#0071BC;}
	.st138{fill:#055A7F;}
	.st139{fill:#2E3192;}
	.st140{fill:#6A6E77;}
	.st141{fill:#D0223A;}
	.st142{fill:#008645;}
	.st143{fill:#FF7BAC;}
	.st144{fill:#CE6E95;}
	.st145{fill:#EA4949;}
	.st146{fill:#B54040;}
	.st147{fill:#EDBF00;}
	.st148{fill:#E8CA4B;}
	.st149{fill:#CE8505;}
	.st150{fill:#EA9C00;}
	.st151{fill:#297358;}
	.st152{fill:#4ABC96;}
	.st153{fill:#3CA57F;}
	.st154{fill:#369975;}
	.st155{fill:#CC013A;}
	.st156{clip-path:url(#SVGID_5_);}
	.st157{fill:#161616;}
	.st158{fill:url(#SVGID_6_);}
	.st159{clip-path:url(#SVGID_8_);}
	.st160{fill:#0F0F0F;}
	.st161{opacity:0.5;fill:#FFFFFF;}
	.st162{fill:#191919;}
	.st163{fill:#232323;}
	.st164{fill:#2D2D2D;}
	.st165{opacity:0.6;fill:url(#SVGID_9_);}
	.st166{opacity:0.5;fill:url(#SVGID_10_);}
	.st167{fill:#808080;}
	.st168{fill:#1B1464;}
	.st169{fill:#F2F2F2;}
	.st170{fill:#006837;}
	.st171{fill:#0191E9;}
	.st172{fill:#0067A0;}
	.st173{fill:#242424;}
	.st174{fill:#FFBE00;}
	.st175{fill:#F4502A;}
	.st176{fill:#C29100;}
	.st177{fill:#BA3D20;}
</style>
<g>
	<g>
		<circle class="st47" cx="222.1" cy="185" r="160.3"/>
		<path class="st48" d="M381.3,166l-87.9-87.9L150.8,291.8l52.3,52.3c6.2,0.7,12.5,1.1,18.9,1.1c88.5,0,160.3-71.8,160.3-160.3
			C382.4,178.6,382,172.2,381.3,166z"/>
		<rect x="150.8" y="78.1" class="st3" width="142.5" height="213.8"/>
		<rect x="221.7" y="78.1" class="st49" width="71.6" height="213.8"/>
		<rect x="168.6" y="95.9" class="st14" width="106.9" height="53.4"/>
		<rect x="221.7" y="95.9" class="st50" width="53.8" height="53.4"/>
		<g>
			<rect x="168.6" y="163.9" class="st51" width="106.9" height="6.5"/>
			<rect x="168.6" y="181.7" class="st51" width="106.9" height="6.5"/>
			<rect x="168.6" y="199.5" class="st51" width="106.9" height="6.5"/>
			<rect x="255" y="253" class="st51" width="20.5" height="6.5"/>
			<rect x="168.6" y="217.3" class="st51" width="106.9" height="6.5"/>
			<rect x="168.6" y="217.3" class="st51" width="106.9" height="6.5"/>
			<rect x="168.6" y="235.2" class="st51" width="106.9" height="6.5"/>
			<rect x="168.6" y="253" class="st51" width="106.9" height="6.5"/>
			<rect x="168.6" y="270.8" class="st51" width="106.9" height="6.5"/>
		</g>
		<path class="st52" d="M341.4,217.2l-33.6-33.6c-1.3-1.3-2.9-1.9-4.6-1.9V204h-67.7c-7.6,0-13.7,6.1-13.7,13.7v8
			c0,7.6,6.1,13.7,13.7,13.7h67.7v22.2c1.6,0,3.3-0.6,4.6-1.9l33.6-33.6C343.9,223.8,343.9,219.7,341.4,217.2z"/>
		<path class="st53" d="M337.4,210.2l-33.6-33.6c-1.3-1.3-2.9-1.9-4.6-1.9V197h-67.7c-7.6,0-13.7,6.1-13.7,13.7v8
			c0,7.6,6.1,13.7,13.7,13.7h67.7v22.2c1.6,0,3.3-0.6,4.6-1.9l33.6-33.6C339.9,216.8,339.9,212.7,337.4,210.2z"/>
	</g>
	<g>
		<rect x="32.4" y="380.2" class="st21" width="375.7" height="95"/>
		<path class="st3" d="M100.9,437.2h-6.4v-41.3L82,424h-3.9l-12.4-28.1v41.3h-6v-48h8.7l12,26.7l11.6-26.7h8.9V437.2z"/>
		<path class="st3" d="M133,407.5c1.3,1.5,2.3,3.3,3,5.5s1.1,4.7,1.1,7.5c0,2.7-0.3,5.2-1,7.4c-0.7,2.2-1.7,4-3,5.5
			c-1.4,1.6-3,2.7-4.8,3.5c-1.8,0.7-3.8,1.1-6,1.1c-2.3,0-4.3-0.4-6.1-1.2c-1.8-0.8-3.4-1.9-4.7-3.4c-1.3-1.5-2.3-3.3-3-5.5
			c-0.7-2.2-1-4.6-1-7.4c0-2.8,0.3-5.3,1-7.4c0.7-2.1,1.7-4,3-5.5c1.3-1.5,2.9-2.6,4.7-3.4c1.8-0.8,3.9-1.2,6.1-1.2
			c2.3,0,4.3,0.4,6.2,1.2C130.1,404.9,131.7,406,133,407.5z M132.3,420.4c0-2.2-0.2-4.2-0.7-5.9c-0.5-1.7-1.2-3.1-2-4.3
			c-0.9-1.2-2-2-3.2-2.6c-1.3-0.6-2.7-0.9-4.2-0.9c-1.6,0-3,0.3-4.3,0.8c-1.2,0.6-2.3,1.4-3.2,2.6c-0.9,1.1-1.6,2.6-2,4.3
			c-0.5,1.7-0.7,3.7-0.7,5.9c0,4.4,0.9,7.8,2.8,10.1s4.3,3.5,7.4,3.5s5.6-1.2,7.4-3.5C131.4,428.2,132.3,424.8,132.3,420.4z"/>
		<path class="st3" d="M166.2,403.6l-11.6,33.6h-4.8l-11.5-33.6h4.8l9.3,27.9l9.3-27.9H166.2z"/>
		<path class="st3" d="M181.2,437.2h-13v-3.4h4.3V407h-4.3v-3.4h13v3.4h-4.3v26.7h4.3V437.2z"/>
		<path class="st3" d="M206.2,437.2h-19.5v-33.6h4.5v29.6h15V437.2z"/>
		<path class="st3" d="M221.4,437.2h-13v-3.4h4.3V407h-4.3v-3.4h13v3.4h-4.3v26.7h4.3V437.2z"/>
		<path class="st3" d="M248.3,437.2h-23.5v-4.2l18-25.5h-17.2v-4h22.2v4l-18.2,25.6h18.6V437.2z"/>
		<path class="st3" d="M249.1,437.2l11.3-33.6h5.5l11.3,33.6h-4.7l-3-9.4h-12.8l-3,9.4H249.1z M268.3,424l-5.2-15.8l-5.2,15.8H268.3
			z"/>
		<path class="st3" d="M293.6,437.8c-2.2,0-4.2-0.4-6.1-1.1c-1.8-0.7-3.4-1.8-4.8-3.3c-1.3-1.5-2.4-3.3-3.1-5.5
			c-0.7-2.2-1.1-4.7-1.1-7.5c0-2.8,0.4-5.3,1.1-7.4c0.7-2.1,1.8-3.9,3.1-5.5c1.3-1.5,2.9-2.7,4.8-3.4c1.8-0.8,3.9-1.2,6.2-1.2
			c1.1,0,2.2,0.1,3.2,0.2c1,0.2,1.9,0.4,2.7,0.6c0.7,0.2,1.5,0.5,2.2,0.8c0.8,0.3,1.5,0.7,2.2,1.1v5.4h-0.4
			c-0.4-0.4-0.9-0.8-1.5-1.3c-0.6-0.5-1.4-1-2.3-1.5c-0.9-0.5-1.8-0.8-2.8-1.2c-1-0.3-2.2-0.5-3.5-0.5c-1.4,0-2.8,0.3-4.1,0.9
			c-1.3,0.6-2.4,1.5-3.4,2.6c-0.9,1.1-1.7,2.6-2.2,4.3s-0.8,3.7-0.8,5.8c0,2.3,0.3,4.3,0.8,5.9c0.6,1.7,1.3,3.1,2.3,4.2
			c0.9,1.1,2,2,3.3,2.5c1.3,0.6,2.6,0.8,4,0.8c1.3,0,2.5-0.2,3.6-0.5c1.1-0.3,2.1-0.7,2.9-1.2c0.8-0.5,1.5-0.9,2.1-1.4
			c0.6-0.5,1.1-0.9,1.4-1.3h0.3v5.3c-0.7,0.3-1.4,0.7-2.1,1c-0.7,0.3-1.4,0.6-2.4,0.9c-1,0.3-1.9,0.6-2.7,0.7
			C296,437.7,294.9,437.8,293.6,437.8z"/>
		<path class="st3" d="M319.9,437.2h-13v-3.4h4.3V407h-4.3v-3.4h13v3.4h-4.3v26.7h4.3V437.2z"/>
		<path class="st3" d="M349.2,407.5c1.3,1.5,2.3,3.3,3,5.5c0.7,2.2,1.1,4.7,1.1,7.5c0,2.7-0.3,5.2-1,7.4c-0.7,2.2-1.7,4-3,5.5
			c-1.4,1.6-3,2.7-4.8,3.5c-1.8,0.7-3.8,1.1-6,1.1c-2.3,0-4.3-0.4-6.1-1.2c-1.8-0.8-3.4-1.9-4.7-3.4c-1.3-1.5-2.3-3.3-3-5.5
			c-0.7-2.2-1-4.6-1-7.4c0-2.8,0.3-5.3,1-7.4s1.7-4,3-5.5c1.3-1.5,2.9-2.6,4.7-3.4c1.8-0.8,3.9-1.2,6.1-1.2c2.3,0,4.3,0.4,6.2,1.2
			C346.4,404.9,347.9,406,349.2,407.5z M348.6,420.4c0-2.2-0.2-4.2-0.7-5.9c-0.5-1.7-1.2-3.1-2-4.3c-0.9-1.2-2-2-3.2-2.6
			c-1.3-0.6-2.7-0.9-4.2-0.9c-1.6,0-3,0.3-4.3,0.8c-1.2,0.6-2.3,1.4-3.2,2.6c-0.9,1.1-1.6,2.6-2,4.3c-0.5,1.7-0.7,3.7-0.7,5.9
			c0,4.4,0.9,7.8,2.8,10.1s4.3,3.5,7.4,3.5c3.1,0,5.6-1.2,7.4-3.5S348.6,424.8,348.6,420.4z M344.6,391l-6.2,8.4h-3.4l4-8.4H344.6z"
			/>
		<path class="st3" d="M382.1,437.2h-5l-14.8-29v29h-4.2v-33.6h6.3l13.5,26.6v-26.6h4.2V437.2z"/>
	</g>
	<path class="st21" d="M354.9,510.6H88.7c-30.1,0-54.7-24.6-54.7-54.7V54.7C34,24.6,58.6,0,88.7,0h266.2c30.1,0,54.7,24.6,54.7,54.7
		v401.1C409.7,485.9,385.1,510.6,354.9,510.6z"/>
</g>
</svg>
